<svg viewBox="0 0 640 293" xmlns="http://www.w3.org/2000/svg">
  <g fill="#006F9D" fill-rule="nonzero">
    <path d="M199.659,106.103 C199.659,112.398 194.556,117.501 188.26,117.501 C181.964,117.501 176.861,112.397 176.861,106.103 C176.861,99.807 181.965,94.704 188.26,94.704 C194.555,94.704 199.659,99.807 199.659,106.103 Z"></path>
    <path d="M334.383,144.459 C325.242,144.459 317.829,151.872 317.829,161.015 L317.797,165.185 L317.797,194.21 C317.797,200.316 312.848,205.265 306.742,205.265 C300.638,205.265 295.689,200.317 295.689,194.21 L295.689,165.185 L295.72,161.015 C295.72,139.661 313.03,122.351 334.383,122.351 L341.285,122.351 C347.39,122.351 352.34,127.3 352.34,133.405 C352.34,139.509 347.391,144.459 341.285,144.459 L334.383,144.459 Z"></path>
    <path d="M433.861,163.813 C433.861,187.417 414.724,206.555 391.119,206.555 C367.514,206.555 348.375,187.417 348.375,163.813 C348.375,140.206 367.514,121.07 391.119,121.07 C414.724,121.07 433.861,140.206 433.861,163.813 Z M391.029,141.694 C378.818,141.694 368.92,151.592 368.92,163.801 C368.92,176.011 378.818,185.909 391.029,185.909 C403.238,185.909 413.136,176.011 413.136,163.801 C413.137,151.593 403.238,141.694 391.029,141.694 Z"></path>
    <path d="M483.703,183.156 L479.467,183.155 C470.322,183.155 462.91,175.743 462.91,166.598 L462.877,162.43 L462.877,144.457 L482.221,144.458 C488.326,144.458 493.276,139.51 493.276,133.404 C493.276,127.298 488.327,122.349 482.221,122.349 L462.877,122.349 L462.877,116.824 C462.877,110.719 457.93,105.769 451.824,105.769 C445.718,105.769 440.769,110.718 440.769,116.824 L440.769,162.429 L440.8,166.599 C440.8,187.952 458.113,205.262 479.466,205.262 L483.702,205.263 C489.807,205.263 494.757,200.315 494.757,194.208 C494.758,188.105 489.809,183.156 483.703,183.156 Z"></path>
    <path d="M292.981,135.042 C292.981,113.688 275.67,96.378 254.317,96.378 L250.147,96.346 L222.458,96.346 C216.353,96.346 211.404,101.295 211.404,107.4 L211.404,194.2 C211.404,200.306 216.353,205.256 222.458,205.256 C228.562,205.256 233.512,200.307 233.512,194.2 L233.512,118.455 L250.148,118.455 L254.317,118.487 C263.461,118.487 270.874,125.899 270.874,135.043 C270.874,144.187 263.461,151.6 254.317,151.6 L255.674,151.616 L251.52,151.616 C245.416,151.616 240.466,156.563 240.466,162.67 C240.466,168.774 245.415,173.724 251.52,173.724 L255.674,173.724 L254.318,173.708 C275.671,173.706 292.981,156.396 292.981,135.042 Z"></path>
    <path d="M462.607,26.319 C462.607,31.494 458.41,35.689 453.236,35.689 C448.06,35.689 443.865,31.494 443.865,26.319 C443.865,21.144 448.06,16.948 453.236,16.948 C458.41,16.948 462.607,21.145 462.607,26.319 Z"></path>
    <path d="M430.514,54.688 C430.514,58.828 427.157,62.185 423.016,62.185 C418.877,62.185 415.52,58.828 415.52,54.688 C415.52,50.548 418.877,47.1909998 423.016,47.1909998 C427.156,47.19 430.514,50.548 430.514,54.688 Z"></path>
    <path d="M505.557,11.713 C505.557,18.183 500.311,23.426 493.842,23.426 C487.373,23.426 482.129,18.183 482.129,11.713 C482.129,5.243 487.373,0 493.842,0 C500.311,0 505.557,5.243 505.557,11.713 Z"></path>
    <path d="M555.119,16.318 C555.119,24.404 548.564,30.96 540.476,30.96 C532.392,30.96 525.835,24.404 525.835,16.318 C525.835,8.231 532.392,1.676 540.476,1.676 C548.564,1.677 555.119,8.231 555.119,16.318 Z"></path>
    <path d="M602.102,42.046 C602.102,52.153 593.909,60.347 583.801,60.347 C573.692,60.347 565.498,52.154 565.498,42.046 C565.498,31.937 573.691,23.744 583.801,23.744 C593.908,23.744 602.102,31.937 602.102,42.046 Z"></path>
    <path d="M635.436,90.282 C635.436,101.907 626.012,111.329 614.389,111.329 C602.766,111.329 593.342,101.907 593.342,90.282 C593.342,78.657 602.766,69.235 614.389,69.235 C626.012,69.235 635.436,78.657 635.436,90.282 Z"></path>
    <path d="M639.387,153.595 C639.387,166.96 628.551,177.796 615.184,177.796 C601.815,177.796 590.979,166.96 590.979,153.595 C590.979,140.23 601.815,129.395 615.184,129.395 C628.551,129.395 639.387,140.229 639.387,153.595 Z"></path>
    <path d="M612.766,215.886 C612.766,231.326 600.25,243.841 584.811,243.841 C569.372,243.841 556.856,231.326 556.856,215.886 C556.856,200.445 569.372,187.931 584.811,187.931 C600.25,187.931 612.766,200.444 612.766,215.886 Z"></path>
    <path d="M551.773,259.194 C551.773,276.502 537.744,290.531 520.437,290.531 C503.13,290.531 489.101,276.502 489.101,259.194 C489.101,241.886 503.13,227.858 520.437,227.858 C537.744,227.858 551.773,241.887 551.773,259.194 Z"></path>
    <path d="M472.107,257.38 C472.107,276.774 456.384,292.495 436.992,292.495 C417.6,292.495 401.877,276.773 401.877,257.38 C401.877,237.984 417.6,222.267 436.992,222.267 C456.384,222.267 472.107,237.984 472.107,257.38 Z"></path>
    <path d="M165.805,159.658 L165.805,194.21 C165.805,200.316 160.856,205.265 154.751,205.265 C148.647,205.265 143.697,200.317 143.697,194.21 L143.697,159.658 L143.681,161.014 C143.681,151.871 136.269,144.458 127.125,144.458 C117.981,144.458 110.569,151.871 110.569,161.014 L110.536,165.184 L110.536,194.209 C110.536,200.315 105.587,205.264 99.482,205.264 C93.377,205.264 88.428,200.316 88.428,194.209 L88.428,165.184 L88.46,161.014 C88.46,139.66 105.77,122.35 127.124,122.35 C148.478,122.35 165.788,139.661 165.788,161.014 L165.805,159.658 Z"></path>
    <path d="M0,167.957 L0,107.399 C0,101.295 4.949,96.345 11.054,96.345 C17.159,96.345 22.108,101.294 22.108,107.399 L22.108,167.957 L22.123,166.601 C22.123,175.744 29.536,183.157 38.679,183.157 C47.822,183.157 55.235,175.744 55.235,166.601 L55.268,162.431 L55.268,107.4 C55.268,101.296 60.217,96.345 66.322,96.345 C72.427,96.345 77.376,101.295 77.376,107.4 L77.376,162.431 L77.344,166.602 C77.344,187.956 60.034,205.265 38.68,205.265 C17.326,205.265 0.016,187.955 0.016,166.602 L0,167.957 Z"></path>
    <path d="M199.314,194.21 C199.314,200.316 194.365,205.265 188.26,205.265 C182.156,205.265 177.206,200.317 177.206,194.21 L177.206,133.478 C177.206,127.373 182.155,122.423 188.26,122.423 C194.365,122.423 199.314,127.372 199.314,133.478 L199.314,194.21 Z"></path>
  </g>
</svg>