<svg xmlns="http://www.w3.org/2000/svg" xmlns:rdkit="http://www.rdkit.org/xml" xmlns:xlink="http://www.w3.org/1999/xlink" version="1.1" baseProfile="full" xml:space="preserve" width="600px" height="200px" viewBox="0 0 600 200">
<!-- END OF HEADER -->
<rect style="opacity:0.0;fill:#FFFFFF;stroke:none" width="600" height="200" x="0" y="0"> </rect>
<rect style="opacity:0.0;fill:#FFFFFF;stroke:none" width="600" height="200" x="0" y="0"> </rect>
<rect style="opacity:0.0;fill:#FFFFFF;stroke:none" width="600" height="200" x="0" y="0"> </rect>
<rect style="opacity:0.0;fill:#FFFFFF;stroke:none" width="600" height="200" x="0" y="0"> </rect>
<path class="bond-0 atom-0 atom-1" d="M 8.74924,98.8601 L 21.5645,102.277" style="fill:none;fill-rule:evenodd;stroke:#000000;stroke-width:2.0px;stroke-linecap:butt;stroke-linejoin:miter;stroke-opacity:1"/>
<path class="bond-0 atom-0 atom-1" d="M 9.43258,96.297 L 22.2479,99.7138" style="fill:none;fill-rule:evenodd;stroke:#000000;stroke-width:2.0px;stroke-linecap:butt;stroke-linejoin:miter;stroke-opacity:1"/>
<path class="bond-1 atom-1 atom-2" d="M 21.9062,100.995 L 31.2728,91.6053" style="fill:none;fill-rule:evenodd;stroke:#000000;stroke-width:2.0px;stroke-linecap:butt;stroke-linejoin:miter;stroke-opacity:1"/>
<path class="bond-2 atom-2 atom-3" d="M 32.5535,91.2604 L 31.1719,86.1298" style="fill:none;fill-rule:evenodd;stroke:#000000;stroke-width:2.0px;stroke-linecap:butt;stroke-linejoin:miter;stroke-opacity:1"/>
<path class="bond-2 atom-2 atom-3" d="M 31.1719,86.1298 L 29.7903,80.9993" style="fill:none;fill-rule:evenodd;stroke:#FF0000;stroke-width:2.0px;stroke-linecap:butt;stroke-linejoin:miter;stroke-opacity:1"/>
<path class="bond-2 atom-2 atom-3" d="M 29.9922,91.9502 L 28.6106,86.8196" style="fill:none;fill-rule:evenodd;stroke:#000000;stroke-width:2.0px;stroke-linecap:butt;stroke-linejoin:miter;stroke-opacity:1"/>
<path class="bond-2 atom-2 atom-3" d="M 28.6106,86.8196 L 27.229,81.689" style="fill:none;fill-rule:evenodd;stroke:#FF0000;stroke-width:2.0px;stroke-linecap:butt;stroke-linejoin:miter;stroke-opacity:1"/>
<path class="bond-3 atom-2 atom-4" d="M 31.2728,91.6053 L 36.7092,93.0547" style="fill:none;fill-rule:evenodd;stroke:#000000;stroke-width:2.0px;stroke-linecap:butt;stroke-linejoin:miter;stroke-opacity:1"/>
<path class="bond-3 atom-2 atom-4" d="M 36.7092,93.0547 L 42.1456,94.5041" style="fill:none;fill-rule:evenodd;stroke:#0000FF;stroke-width:2.0px;stroke-linecap:butt;stroke-linejoin:miter;stroke-opacity:1"/>
<path class="bond-4 atom-4 atom-5" d="M 46.0307,93.0746 L 49.7427,89.3533" style="fill:none;fill-rule:evenodd;stroke:#0000FF;stroke-width:2.0px;stroke-linecap:butt;stroke-linejoin:miter;stroke-opacity:1"/>
<path class="bond-4 atom-4 atom-5" d="M 49.7427,89.3533 L 53.4548,85.632" style="fill:none;fill-rule:evenodd;stroke:#000000;stroke-width:2.0px;stroke-linecap:butt;stroke-linejoin:miter;stroke-opacity:1"/>
<path class="bond-5 atom-5 atom-6" d="M 53.4548,85.632 L 66.2701,89.0487" style="fill:none;fill-rule:evenodd;stroke:#000000;stroke-width:2.0px;stroke-linecap:butt;stroke-linejoin:miter;stroke-opacity:1"/>
<path class="bond-6 atom-6 atom-7" d="M 66.2701,89.0487 L 69.8126,85.4974" style="fill:none;fill-rule:evenodd;stroke:#000000;stroke-width:2.0px;stroke-linecap:butt;stroke-linejoin:miter;stroke-opacity:1"/>
<path class="bond-6 atom-6 atom-7" d="M 69.8126,85.4974 L 73.3551,81.946" style="fill:none;fill-rule:evenodd;stroke:#FF0000;stroke-width:2.0px;stroke-linecap:butt;stroke-linejoin:miter;stroke-opacity:1"/>
<path class="bond-7 atom-7 atom-8" d="M 77.9183,80.267 L 83.1851,81.6713" style="fill:none;fill-rule:evenodd;stroke:#FF0000;stroke-width:2.0px;stroke-linecap:butt;stroke-linejoin:miter;stroke-opacity:1"/>
<path class="bond-7 atom-7 atom-8" d="M 83.1851,81.6713 L 88.452,83.0755" style="fill:none;fill-rule:evenodd;stroke:#000000;stroke-width:2.0px;stroke-linecap:butt;stroke-linejoin:miter;stroke-opacity:1"/>
<path class="bond-8 atom-8 atom-9" d="M 88.452,83.0755 L 91.9007,95.8822" style="fill:none;fill-rule:evenodd;stroke:#000000;stroke-width:2.0px;stroke-linecap:butt;stroke-linejoin:miter;stroke-opacity:1"/>
<path class="bond-8 atom-8 atom-9" d="M 91.5306,84.3067 L 93.9447,93.2715" style="fill:none;fill-rule:evenodd;stroke:#000000;stroke-width:2.0px;stroke-linecap:butt;stroke-linejoin:miter;stroke-opacity:1"/>
<path class="bond-31 atom-26 atom-8" d="M 97.8186,73.6855 L 88.452,83.0755" style="fill:none;fill-rule:evenodd;stroke:#000000;stroke-width:2.0px;stroke-linecap:butt;stroke-linejoin:miter;stroke-opacity:1"/>
<path class="bond-9 atom-9 atom-10" d="M 91.9007,95.8822 L 104.716,99.2989" style="fill:none;fill-rule:evenodd;stroke:#000000;stroke-width:2.0px;stroke-linecap:butt;stroke-linejoin:miter;stroke-opacity:1"/>
<path class="bond-10 atom-10 atom-11" d="M 104.716,99.2989 L 106.11,104.475" style="fill:none;fill-rule:evenodd;stroke:#000000;stroke-width:2.0px;stroke-linecap:butt;stroke-linejoin:miter;stroke-opacity:1"/>
<path class="bond-10 atom-10 atom-11" d="M 106.11,104.475 L 107.503,109.65" style="fill:none;fill-rule:evenodd;stroke:#0000FF;stroke-width:2.0px;stroke-linecap:butt;stroke-linejoin:miter;stroke-opacity:1"/>
<path class="bond-10 atom-10 atom-11" d="M 107.695,100.162 L 108.671,103.785" style="fill:none;fill-rule:evenodd;stroke:#000000;stroke-width:2.0px;stroke-linecap:butt;stroke-linejoin:miter;stroke-opacity:1"/>
<path class="bond-10 atom-10 atom-11" d="M 108.671,103.785 L 109.647,107.408" style="fill:none;fill-rule:evenodd;stroke:#0000FF;stroke-width:2.0px;stroke-linecap:butt;stroke-linejoin:miter;stroke-opacity:1"/>
<path class="bond-32 atom-24 atom-10" d="M 114.083,89.9089 L 104.716,99.2989" style="fill:none;fill-rule:evenodd;stroke:#000000;stroke-width:2.0px;stroke-linecap:butt;stroke-linejoin:miter;stroke-opacity:1"/>
<path class="bond-11 atom-11 atom-12" d="M 110.107,112.624 L 115.544,114.073" style="fill:none;fill-rule:evenodd;stroke:#0000FF;stroke-width:2.0px;stroke-linecap:butt;stroke-linejoin:miter;stroke-opacity:1"/>
<path class="bond-11 atom-11 atom-12" d="M 115.544,114.073 L 120.98,115.522" style="fill:none;fill-rule:evenodd;stroke:#000000;stroke-width:2.0px;stroke-linecap:butt;stroke-linejoin:miter;stroke-opacity:1"/>
<path class="bond-12 atom-12 atom-13" d="M 120.98,115.522 L 124.692,111.801" style="fill:none;fill-rule:evenodd;stroke:#000000;stroke-width:2.0px;stroke-linecap:butt;stroke-linejoin:miter;stroke-opacity:1"/>
<path class="bond-12 atom-12 atom-13" d="M 124.692,111.801 L 128.404,108.08" style="fill:none;fill-rule:evenodd;stroke:#0000FF;stroke-width:2.0px;stroke-linecap:butt;stroke-linejoin:miter;stroke-opacity:1"/>
<path class="bond-12 atom-12 atom-13" d="M 120.216,112.533 L 122.814,109.928" style="fill:none;fill-rule:evenodd;stroke:#000000;stroke-width:2.0px;stroke-linecap:butt;stroke-linejoin:miter;stroke-opacity:1"/>
<path class="bond-12 atom-12 atom-13" d="M 122.814,109.928 L 125.412,107.323" style="fill:none;fill-rule:evenodd;stroke:#0000FF;stroke-width:2.0px;stroke-linecap:butt;stroke-linejoin:miter;stroke-opacity:1"/>
<path class="bond-13 atom-13 atom-14" d="M 129.685,103.677 L 128.292,98.5013" style="fill:none;fill-rule:evenodd;stroke:#0000FF;stroke-width:2.0px;stroke-linecap:butt;stroke-linejoin:miter;stroke-opacity:1"/>
<path class="bond-13 atom-13 atom-14" d="M 128.292,98.5013 L 126.898,93.3257" style="fill:none;fill-rule:evenodd;stroke:#000000;stroke-width:2.0px;stroke-linecap:butt;stroke-linejoin:miter;stroke-opacity:1"/>
<path class="bond-14 atom-14 atom-15" d="M 126.898,93.3257 L 130.61,89.6044" style="fill:none;fill-rule:evenodd;stroke:#000000;stroke-width:2.0px;stroke-linecap:butt;stroke-linejoin:miter;stroke-opacity:1"/>
<path class="bond-14 atom-14 atom-15" d="M 130.61,89.6044 L 134.322,85.8831" style="fill:none;fill-rule:evenodd;stroke:#0000FF;stroke-width:2.0px;stroke-linecap:butt;stroke-linejoin:miter;stroke-opacity:1"/>
<path class="bond-23 atom-14 atom-24" d="M 126.898,93.3257 L 114.083,89.9089" style="fill:none;fill-rule:evenodd;stroke:#000000;stroke-width:2.0px;stroke-linecap:butt;stroke-linejoin:miter;stroke-opacity:1"/>
<path class="bond-23 atom-14 atom-24" d="M 124.292,95.3762 L 115.322,92.9845" style="fill:none;fill-rule:evenodd;stroke:#000000;stroke-width:2.0px;stroke-linecap:butt;stroke-linejoin:miter;stroke-opacity:1"/>
<path class="bond-15 atom-15 atom-16" d="M 138.207,84.4536 L 143.643,85.903" style="fill:none;fill-rule:evenodd;stroke:#0000FF;stroke-width:2.0px;stroke-linecap:butt;stroke-linejoin:miter;stroke-opacity:1"/>
<path class="bond-15 atom-15 atom-16" d="M 143.643,85.903 L 149.08,87.3524" style="fill:none;fill-rule:evenodd;stroke:#000000;stroke-width:2.0px;stroke-linecap:butt;stroke-linejoin:miter;stroke-opacity:1"/>
<path class="bond-16 atom-16 atom-17" d="M 149.08,87.3524 L 152.528,100.159" style="fill:none;fill-rule:evenodd;stroke:#000000;stroke-width:2.0px;stroke-linecap:butt;stroke-linejoin:miter;stroke-opacity:1"/>
<path class="bond-16 atom-16 atom-17" d="M 152.158,88.5837 L 154.573,97.5484" style="fill:none;fill-rule:evenodd;stroke:#000000;stroke-width:2.0px;stroke-linecap:butt;stroke-linejoin:miter;stroke-opacity:1"/>
<path class="bond-33 atom-22 atom-16" d="M 158.446,77.9624 L 149.08,87.3524" style="fill:none;fill-rule:evenodd;stroke:#000000;stroke-width:2.0px;stroke-linecap:butt;stroke-linejoin:miter;stroke-opacity:1"/>
<path class="bond-17 atom-17 atom-18" d="M 152.528,100.159 L 165.344,103.576" style="fill:none;fill-rule:evenodd;stroke:#000000;stroke-width:2.0px;stroke-linecap:butt;stroke-linejoin:miter;stroke-opacity:1"/>
<path class="bond-18 atom-18 atom-19" d="M 165.344,103.576 L 174.71,94.1859" style="fill:none;fill-rule:evenodd;stroke:#000000;stroke-width:2.0px;stroke-linecap:butt;stroke-linejoin:miter;stroke-opacity:1"/>
<path class="bond-18 atom-18 atom-19" d="M 164.871,100.294 L 171.427,93.721" style="fill:none;fill-rule:evenodd;stroke:#000000;stroke-width:2.0px;stroke-linecap:butt;stroke-linejoin:miter;stroke-opacity:1"/>
<path class="bond-19 atom-19 atom-20" d="M 174.71,94.1859 L 180.231,95.6577" style="fill:none;fill-rule:evenodd;stroke:#000000;stroke-width:2.0px;stroke-linecap:butt;stroke-linejoin:miter;stroke-opacity:1"/>
<path class="bond-19 atom-19 atom-20" d="M 180.231,95.6577 L 185.751,97.1295" style="fill:none;fill-rule:evenodd;stroke:#7F4C19;stroke-width:2.0px;stroke-linecap:butt;stroke-linejoin:miter;stroke-opacity:1"/>
<path class="bond-20 atom-19 atom-21" d="M 174.71,94.1859 L 171.262,81.3791" style="fill:none;fill-rule:evenodd;stroke:#000000;stroke-width:2.0px;stroke-linecap:butt;stroke-linejoin:miter;stroke-opacity:1"/>
<path class="bond-21 atom-21 atom-22" d="M 171.262,81.3791 L 158.446,77.9624" style="fill:none;fill-rule:evenodd;stroke:#000000;stroke-width:2.0px;stroke-linecap:butt;stroke-linejoin:miter;stroke-opacity:1"/>
<path class="bond-21 atom-21 atom-22" d="M 168.656,83.4297 L 159.685,81.038" style="fill:none;fill-rule:evenodd;stroke:#000000;stroke-width:2.0px;stroke-linecap:butt;stroke-linejoin:miter;stroke-opacity:1"/>
<path class="bond-22 atom-22 atom-23" d="M 158.446,77.9624 L 157.053,72.7868" style="fill:none;fill-rule:evenodd;stroke:#000000;stroke-width:2.0px;stroke-linecap:butt;stroke-linejoin:miter;stroke-opacity:1"/>
<path class="bond-22 atom-22 atom-23" d="M 157.053,72.7868 L 155.659,67.6112" style="fill:none;fill-rule:evenodd;stroke:#33CCCC;stroke-width:2.0px;stroke-linecap:butt;stroke-linejoin:miter;stroke-opacity:1"/>
<path class="bond-24 atom-24 atom-25" d="M 114.083,89.9089 L 110.634,77.1022" style="fill:none;fill-rule:evenodd;stroke:#000000;stroke-width:2.0px;stroke-linecap:butt;stroke-linejoin:miter;stroke-opacity:1"/>
<path class="bond-25 atom-25 atom-26" d="M 110.634,77.1022 L 97.8186,73.6855" style="fill:none;fill-rule:evenodd;stroke:#000000;stroke-width:2.0px;stroke-linecap:butt;stroke-linejoin:miter;stroke-opacity:1"/>
<path class="bond-25 atom-25 atom-26" d="M 108.028,79.1527 L 99.0576,76.761" style="fill:none;fill-rule:evenodd;stroke:#000000;stroke-width:2.0px;stroke-linecap:butt;stroke-linejoin:miter;stroke-opacity:1"/>
<path class="bond-26 atom-26 atom-27" d="M 97.8186,73.6855 L 96.4249,68.5099" style="fill:none;fill-rule:evenodd;stroke:#000000;stroke-width:2.0px;stroke-linecap:butt;stroke-linejoin:miter;stroke-opacity:1"/>
<path class="bond-26 atom-26 atom-27" d="M 96.4249,68.5099 L 95.0312,63.3343" style="fill:none;fill-rule:evenodd;stroke:#0000FF;stroke-width:2.0px;stroke-linecap:butt;stroke-linejoin:miter;stroke-opacity:1"/>
<path class="bond-27 atom-27 atom-28" d="M 96.3125,58.9313 L 100.025,55.21" style="fill:none;fill-rule:evenodd;stroke:#0000FF;stroke-width:2.0px;stroke-linecap:butt;stroke-linejoin:miter;stroke-opacity:1"/>
<path class="bond-27 atom-27 atom-28" d="M 100.025,55.21 L 103.737,51.4887" style="fill:none;fill-rule:evenodd;stroke:#000000;stroke-width:2.0px;stroke-linecap:butt;stroke-linejoin:miter;stroke-opacity:1"/>
<path class="bond-28 atom-28 atom-29" d="M 103.395,52.7702 L 108.662,54.1745" style="fill:none;fill-rule:evenodd;stroke:#000000;stroke-width:2.0px;stroke-linecap:butt;stroke-linejoin:miter;stroke-opacity:1"/>
<path class="bond-28 atom-28 atom-29" d="M 108.662,54.1745 L 113.929,55.5787" style="fill:none;fill-rule:evenodd;stroke:#FF0000;stroke-width:2.0px;stroke-linecap:butt;stroke-linejoin:miter;stroke-opacity:1"/>
<path class="bond-28 atom-28 atom-29" d="M 104.078,50.2072 L 109.345,51.6114" style="fill:none;fill-rule:evenodd;stroke:#000000;stroke-width:2.0px;stroke-linecap:butt;stroke-linejoin:miter;stroke-opacity:1"/>
<path class="bond-28 atom-28 atom-29" d="M 109.345,51.6114 L 114.612,53.0156" style="fill:none;fill-rule:evenodd;stroke:#FF0000;stroke-width:2.0px;stroke-linecap:butt;stroke-linejoin:miter;stroke-opacity:1"/>
<path class="bond-29 atom-28 atom-30" d="M 103.737,51.4887 L 100.288,38.682" style="fill:none;fill-rule:evenodd;stroke:#000000;stroke-width:2.0px;stroke-linecap:butt;stroke-linejoin:miter;stroke-opacity:1"/>
<path class="bond-30 atom-30 atom-31" d="M 101.227,39.6186 L 110.594,30.2286" style="fill:none;fill-rule:evenodd;stroke:#000000;stroke-width:2.0px;stroke-linecap:butt;stroke-linejoin:miter;stroke-opacity:1"/>
<path class="bond-30 atom-30 atom-31" d="M 99.3489,37.7453 L 108.716,28.3553" style="fill:none;fill-rule:evenodd;stroke:#000000;stroke-width:2.0px;stroke-linecap:butt;stroke-linejoin:miter;stroke-opacity:1"/>
<path class="atom-3" d="M 25.8742 78.8105 Q 25.8742 77.7905, 26.3782 77.2205 Q 26.8822 76.6505, 27.8242 76.6505 Q 28.7662 76.6505, 29.2702 77.2205 Q 29.7742 77.7905, 29.7742 78.8105 Q 29.7742 79.8425, 29.2642 80.4305 Q 28.7542 81.0125, 27.8242 81.0125 Q 26.8882 81.0125, 26.3782 80.4305 Q 25.8742 79.8485, 25.8742 78.8105 M 27.8242 80.5325 Q 28.4722 80.5325, 28.8202 80.1005 Q 29.1742 79.6625, 29.1742 78.8105 Q 29.1742 77.9765, 28.8202 77.5565 Q 28.4722 77.1305, 27.8242 77.1305 Q 27.1762 77.1305, 26.8222 77.5505 Q 26.4742 77.9705, 26.4742 78.8105 Q 26.4742 79.6685, 26.8222 80.1005 Q 27.1762 80.5325, 27.8242 80.5325 " fill="#FF0000"/>
<path class="atom-4" d="M 43.1491 92.898 L 44.5411 95.148 Q 44.6791 95.37, 44.9011 95.772 Q 45.1231 96.174, 45.1351 96.198 L 45.1351 92.898 L 45.6991 92.898 L 45.6991 97.146 L 45.1171 97.146 L 43.6231 94.686 Q 43.4491 94.398, 43.2631 94.068 Q 43.0831 93.738, 43.0291 93.636 L 43.0291 97.146 L 42.4771 97.146 L 42.4771 92.898 L 43.1491 92.898 " fill="#0000FF"/>
<path class="atom-4" d="M 42.4261 97.5708 L 43.0021 97.5708 L 43.0021 99.3768 L 45.1741 99.3768 L 45.1741 97.5708 L 45.7501 97.5708 L 45.7501 101.819 L 45.1741 101.819 L 45.1741 99.8568 L 43.0021 99.8568 L 43.0021 101.819 L 42.4261 101.819 L 42.4261 97.5708 " fill="#0000FF"/>
<path class="atom-7" d="M 73.6867 79.6707 Q 73.6867 78.6507, 74.1907 78.0807 Q 74.6947 77.5107, 75.6367 77.5107 Q 76.5787 77.5107, 77.0827 78.0807 Q 77.5867 78.6507, 77.5867 79.6707 Q 77.5867 80.7027, 77.0767 81.2907 Q 76.5667 81.8727, 75.6367 81.8727 Q 74.7007 81.8727, 74.1907 81.2907 Q 73.6867 80.7087, 73.6867 79.6707 M 75.6367 81.3927 Q 76.2847 81.3927, 76.6327 80.9607 Q 76.9867 80.5227, 76.9867 79.6707 Q 76.9867 78.8367, 76.6327 78.4167 Q 76.2847 77.9907, 75.6367 77.9907 Q 74.9887 77.9907, 74.6347 78.4107 Q 74.2867 78.8307, 74.2867 79.6707 Q 74.2867 80.5287, 74.6347 80.9607 Q 74.9887 81.3927, 75.6367 81.3927 " fill="#FF0000"/>
<path class="atom-11" d="M 107.226 109.982 L 108.618 112.232 Q 108.756 112.454, 108.978 112.856 Q 109.2 113.258, 109.212 113.282 L 109.212 109.982 L 109.776 109.982 L 109.776 114.23 L 109.194 114.23 L 107.7 111.77 Q 107.526 111.482, 107.34 111.152 Q 107.16 110.822, 107.106 110.72 L 107.106 114.23 L 106.554 114.23 L 106.554 109.982 L 107.226 109.982 " fill="#0000FF"/>
<path class="atom-13" d="M 129.408 104.008 L 130.8 106.258 Q 130.938 106.48, 131.16 106.882 Q 131.382 107.284, 131.394 107.308 L 131.394 104.008 L 131.958 104.008 L 131.958 108.256 L 131.376 108.256 L 129.882 105.796 Q 129.708 105.508, 129.522 105.178 Q 129.342 104.848, 129.288 104.746 L 129.288 108.256 L 128.736 108.256 L 128.736 104.008 L 129.408 104.008 " fill="#0000FF"/>
<path class="atom-15" d="M 135.326 81.8117 L 136.718 84.0617 Q 136.856 84.2837, 137.078 84.6857 Q 137.3 85.0877, 137.312 85.1117 L 137.312 81.8117 L 137.876 81.8117 L 137.876 86.0597 L 137.294 86.0597 L 135.8 83.5997 Q 135.626 83.3117, 135.44 82.9817 Q 135.26 82.6517, 135.206 82.5497 L 135.206 86.0597 L 134.654 86.0597 L 134.654 81.8117 L 135.326 81.8117 " fill="#0000FF"/>
<path class="atom-15" d="M 134.603 77.1389 L 135.179 77.1389 L 135.179 78.9449 L 137.351 78.9449 L 137.351 77.1389 L 137.927 77.1389 L 137.927 81.3869 L 137.351 81.3869 L 137.351 79.4249 L 135.179 79.4249 L 135.179 81.3869 L 134.603 81.3869 L 134.603 77.1389 " fill="#0000FF"/>
<path class="atom-20" d="M 188.147 97.4946 Q 188.555 97.6086, 188.759 97.8606 Q 188.969 98.1066, 188.969 98.4726 Q 188.969 99.0606, 188.591 99.3966 Q 188.219 99.7266, 187.511 99.7266 L 186.083 99.7266 L 186.083 95.4786 L 187.337 95.4786 Q 188.063 95.4786, 188.429 95.7726 Q 188.795 96.0666, 188.795 96.6066 Q 188.795 97.2486, 188.147 97.4946 M 186.653 95.9586 L 186.653 97.2906 L 187.337 97.2906 Q 187.757 97.2906, 187.973 97.1226 Q 188.195 96.9486, 188.195 96.6066 Q 188.195 95.9586, 187.337 95.9586 L 186.653 95.9586 M 187.511 99.2466 Q 187.925 99.2466, 188.147 99.0486 Q 188.369 98.8506, 188.369 98.4726 Q 188.369 98.1246, 188.123 97.9506 Q 187.883 97.7706, 187.421 97.7706 L 186.653 97.7706 L 186.653 99.2466 L 187.511 99.2466 " fill="#7F4C19"/>
<path class="atom-20" d="M 189.935 96.6426 L 190.001 97.0686 Q 190.325 96.5886, 190.853 96.5886 Q 191.021 96.5886, 191.249 96.6486 L 191.159 97.1526 Q 190.901 97.0926, 190.757 97.0926 Q 190.505 97.0926, 190.337 97.1946 Q 190.175 97.2906, 190.043 97.5246 L 190.043 99.7266 L 189.479 99.7266 L 189.479 96.6426 L 189.935 96.6426 " fill="#7F4C19"/>
<path class="atom-23" d="M 153.735 63.0317 L 156.261 63.0317 L 156.261 63.5177 L 154.305 63.5177 L 154.305 64.8077 L 156.045 64.8077 L 156.045 65.2997 L 154.305 65.2997 L 154.305 67.2797 L 153.735 67.2797 L 153.735 63.0317 " fill="#33CCCC"/>
<path class="atom-27" d="M 88.9369 58.7547 L 89.5129 58.7547 L 89.5129 60.5607 L 91.6849 60.5607 L 91.6849 58.7547 L 92.2609 58.7547 L 92.2609 63.0027 L 91.6849 63.0027 L 91.6849 61.0407 L 89.5129 61.0407 L 89.5129 63.0027 L 88.9369 63.0027 L 88.9369 58.7547 " fill="#0000FF"/>
<path class="atom-27" d="M 93.4309 58.7547 L 94.8229 61.0047 Q 94.9609 61.2267, 95.1829 61.6287 Q 95.4049 62.0307, 95.4169 62.0547 L 95.4169 58.7547 L 95.9809 58.7547 L 95.9809 63.0027 L 95.3989 63.0027 L 93.9049 60.5427 Q 93.7309 60.2547, 93.5449 59.9247 Q 93.3649 59.5947, 93.3109 59.4927 L 93.3109 63.0027 L 92.7589 63.0027 L 92.7589 58.7547 L 93.4309 58.7547 " fill="#0000FF"/>
<path class="atom-29" d="M 114.602 54.9175 Q 114.602 53.8975, 115.106 53.3275 Q 115.61 52.7575, 116.552 52.7575 Q 117.494 52.7575, 117.998 53.3275 Q 118.502 53.8975, 118.502 54.9175 Q 118.502 55.9495, 117.992 56.5375 Q 117.482 57.1195, 116.552 57.1195 Q 115.616 57.1195, 115.106 56.5375 Q 114.602 55.9555, 114.602 54.9175 M 116.552 56.6395 Q 117.2 56.6395, 117.548 56.2075 Q 117.902 55.7695, 117.902 54.9175 Q 117.902 54.0835, 117.548 53.6635 Q 117.2 53.2375, 116.552 53.2375 Q 115.904 53.2375, 115.55 53.6575 Q 115.202 54.0775, 115.202 54.9175 Q 115.202 55.7755, 115.55 56.2075 Q 115.904 56.6395, 116.552 56.6395 " fill="#FF0000"/>
<path d="M 67.5142 188.104 Q 67.5142 185.288, 68.8262 183.816 Q 70.1542 182.328, 72.6662 182.328 Q 75.0022 182.328, 76.2502 183.976 L 75.1942 184.84 Q 74.2822 183.64, 72.6662 183.64 Q 70.9542 183.64, 70.0422 184.792 Q 69.1462 185.928, 69.1462 188.104 Q 69.1462 190.344, 70.0742 191.496 Q 71.0182 192.648, 72.8422 192.648 Q 74.0902 192.648, 75.5462 191.896 L 75.9942 193.096 Q 75.4022 193.48, 74.5062 193.704 Q 73.6102 193.928, 72.6182 193.928 Q 70.1542 193.928, 68.8262 192.424 Q 67.5142 190.92, 67.5142 188.104 " fill="#000000"/>
<path d="M 77.6262 181.64 L 79.0982 181.64 L 79.0982 193.784 L 77.6262 193.784 L 77.6262 181.64 " fill="#000000"/>
<path d="M 87.3222 185.56 L 87.3222 193.784 L 86.0902 193.784 L 85.9142 192.648 Q 84.8422 193.928, 83.1302 193.928 Q 81.7382 193.928, 81.0342 193.192 Q 80.3302 192.44, 80.3302 191 L 80.3302 185.56 L 81.8342 185.56 L 81.8342 190.888 Q 81.8342 191.864, 82.2022 192.312 Q 82.5862 192.744, 83.4182 192.744 Q 84.1702 192.744, 84.7942 192.408 Q 85.4182 192.056, 85.8182 191.448 L 85.8182 185.56 L 87.3222 185.56 " fill="#000000"/>
<path d="M 88.5862 192.088 Q 89.3062 192.392, 89.8182 192.536 Q 90.3462 192.68, 90.9062 192.68 Q 91.6262 192.68, 92.0262 192.376 Q 92.4422 192.072, 92.4422 191.48 Q 92.4422 191.112, 92.2182 190.888 Q 92.0102 190.648, 91.7382 190.536 Q 91.4822 190.424, 90.7622 190.184 Q 90.6502 190.152, 89.9142 189.896 Q 89.1782 189.64, 88.7782 189.096 Q 88.3942 188.552, 88.3942 187.752 Q 88.3942 186.76, 89.1622 186.088 Q 89.9302 185.416, 91.4182 185.416 Q 92.0422 185.416, 92.5862 185.56 Q 93.1462 185.704, 93.7542 185.944 L 93.3542 187.128 Q 92.8262 186.92, 92.3622 186.792 Q 91.9142 186.664, 91.4182 186.664 Q 90.6662 186.664, 90.2822 186.968 Q 89.8982 187.256, 89.8982 187.736 Q 89.8982 188.184, 90.2022 188.408 Q 90.5062 188.616, 91.1782 188.856 Q 91.3542 188.904, 91.4982 188.968 L 91.8822 189.112 Q 92.5542 189.336, 92.9542 189.56 Q 93.3702 189.784, 93.6582 190.248 Q 93.9462 190.696, 93.9462 191.448 Q 93.9462 192.632, 93.0982 193.288 Q 92.2662 193.928, 90.9222 193.928 Q 90.1382 193.928, 89.4662 193.768 Q 88.7942 193.592, 88.1222 193.304 L 88.5862 192.088 " fill="#000000"/>
<path d="M 94.4102 186.712 L 94.4102 185.56 L 95.9782 185.56 L 96.2342 183.16 L 97.3542 183.16 L 97.3542 185.56 L 99.8662 185.56 L 99.8662 186.712 L 97.3542 186.712 L 97.3542 191.256 Q 97.3542 192.68, 98.5542 192.68 Q 99.0342 192.68, 99.7382 192.456 L 99.9942 193.512 Q 99.1142 193.88, 98.2822 193.88 Q 97.2102 193.88, 96.5222 193.24 Q 95.8502 192.6, 95.8502 191.336 L 95.8502 186.712 L 94.4102 186.712 " fill="#000000"/>
<path d="M 100.73 189.656 Q 100.73 187.64, 101.738 186.536 Q 102.746 185.416, 104.586 185.416 Q 106.394 185.416, 107.194 186.504 Q 108.01 187.576, 108.01 189.608 L 108.01 189.864 L 102.266 189.864 Q 102.298 191.256, 102.922 191.992 Q 103.546 192.728, 104.714 192.728 Q 105.354 192.728, 105.946 192.584 Q 106.538 192.424, 107.258 192.104 L 107.69 193.128 Q 106.874 193.544, 106.138 193.736 Q 105.402 193.912, 104.634 193.912 Q 102.778 193.912, 101.754 192.792 Q 100.73 191.672, 100.73 189.656 M 104.586 186.6 Q 103.642 186.6, 103.066 187.144 Q 102.506 187.688, 102.33 188.744 L 106.426 188.744 Q 106.314 187.64, 105.866 187.128 Q 105.418 186.6, 104.586 186.6 " fill="#000000"/>
<path d="M 110.586 185.56 L 110.762 186.696 Q 111.626 185.416, 113.034 185.416 Q 113.482 185.416, 114.09 185.576 L 113.85 186.92 Q 113.162 186.76, 112.778 186.76 Q 112.106 186.76, 111.658 187.032 Q 111.226 187.288, 110.874 187.912 L 110.874 193.784 L 109.37 193.784 L 109.37 185.56 L 110.586 185.56 " fill="#000000"/>
<path d="" fill="#000000"/>
<path d="M 119.578 192.504 L 122.058 192.504 L 122.058 184.04 L 119.322 184.888 L 118.954 183.944 L 122.426 182.392 L 123.562 182.584 L 123.562 192.504 L 125.786 192.504 L 125.786 193.784 L 119.578 193.784 L 119.578 192.504 " fill="#000000"/>
<path class="bond-0 atom-0 atom-1" d="M 338.638,55.7247 L 338.17,68.9794" style="fill:none;fill-rule:evenodd;stroke:#000000;stroke-width:2.0px;stroke-linecap:butt;stroke-linejoin:miter;stroke-opacity:1"/>
<path class="bond-1 atom-1 atom-2" d="M 338.17,68.9794 L 349.415,76.0116" style="fill:none;fill-rule:evenodd;stroke:#000000;stroke-width:2.0px;stroke-linecap:butt;stroke-linejoin:miter;stroke-opacity:1"/>
<path class="bond-2 atom-1 atom-3" d="M 338.17,68.9794 L 333.285,71.5746" style="fill:none;fill-rule:evenodd;stroke:#000000;stroke-width:2.0px;stroke-linecap:butt;stroke-linejoin:miter;stroke-opacity:1"/>
<path class="bond-2 atom-1 atom-3" d="M 333.285,71.5746 L 328.4,74.1699" style="fill:none;fill-rule:evenodd;stroke:#0000FF;stroke-width:2.0px;stroke-linecap:butt;stroke-linejoin:miter;stroke-opacity:1"/>
<path class="bond-3 atom-3 atom-4" d="M 324.515,74.2536 L 316.427,70.3055" style="fill:none;fill-rule:evenodd;stroke:#0000FF;stroke-width:2.0px;stroke-linecap:butt;stroke-linejoin:miter;stroke-opacity:1"/>
<path class="bond-19 atom-19 atom-3" d="M 324.607,88.3351 L 325.359,82.9963" style="fill:none;fill-rule:evenodd;stroke:#000000;stroke-width:2.0px;stroke-linecap:butt;stroke-linejoin:miter;stroke-opacity:1"/>
<path class="bond-19 atom-19 atom-3" d="M 325.359,82.9963 L 326.111,77.6575" style="fill:none;fill-rule:evenodd;stroke:#0000FF;stroke-width:2.0px;stroke-linecap:butt;stroke-linejoin:miter;stroke-opacity:1"/>
<path class="bond-4 atom-4 atom-5" d="M 312.596,71.3938 L 308.959,75.1574" style="fill:none;fill-rule:evenodd;stroke:#0000FF;stroke-width:2.0px;stroke-linecap:butt;stroke-linejoin:miter;stroke-opacity:1"/>
<path class="bond-4 atom-4 atom-5" d="M 308.959,75.1574 L 305.322,78.921" style="fill:none;fill-rule:evenodd;stroke:#000000;stroke-width:2.0px;stroke-linecap:butt;stroke-linejoin:miter;stroke-opacity:1"/>
<path class="bond-4 atom-4 atom-5" d="M 313.413,74.3662 L 310.867,77.0007" style="fill:none;fill-rule:evenodd;stroke:#0000FF;stroke-width:2.0px;stroke-linecap:butt;stroke-linejoin:miter;stroke-opacity:1"/>
<path class="bond-4 atom-4 atom-5" d="M 310.867,77.0007 L 308.321,79.6352" style="fill:none;fill-rule:evenodd;stroke:#000000;stroke-width:2.0px;stroke-linecap:butt;stroke-linejoin:miter;stroke-opacity:1"/>
<path class="bond-5 atom-5 atom-6" d="M 305.322,78.921 L 292.189,77.0706" style="fill:none;fill-rule:evenodd;stroke:#000000;stroke-width:2.0px;stroke-linecap:butt;stroke-linejoin:miter;stroke-opacity:1"/>
<path class="bond-12 atom-5 atom-13" d="M 305.322,78.921 L 311.545,90.6337" style="fill:none;fill-rule:evenodd;stroke:#000000;stroke-width:2.0px;stroke-linecap:butt;stroke-linejoin:miter;stroke-opacity:1"/>
<path class="bond-6 atom-6 atom-7" d="M 292.189,77.0706 L 287.225,64.7717" style="fill:none;fill-rule:evenodd;stroke:#000000;stroke-width:2.0px;stroke-linecap:butt;stroke-linejoin:miter;stroke-opacity:1"/>
<path class="bond-6 atom-6 atom-7" d="M 288.985,76.2186 L 285.51,67.6093" style="fill:none;fill-rule:evenodd;stroke:#000000;stroke-width:2.0px;stroke-linecap:butt;stroke-linejoin:miter;stroke-opacity:1"/>
<path class="bond-20 atom-12 atom-6" d="M 284.02,87.5191 L 292.189,77.0706" style="fill:none;fill-rule:evenodd;stroke:#000000;stroke-width:2.0px;stroke-linecap:butt;stroke-linejoin:miter;stroke-opacity:1"/>
<path class="bond-7 atom-7 atom-8" d="M 287.225,64.7717 L 274.092,62.9212" style="fill:none;fill-rule:evenodd;stroke:#000000;stroke-width:2.0px;stroke-linecap:butt;stroke-linejoin:miter;stroke-opacity:1"/>
<path class="bond-8 atom-8 atom-9" d="M 274.092,62.9212 L 265.923,73.3698" style="fill:none;fill-rule:evenodd;stroke:#000000;stroke-width:2.0px;stroke-linecap:butt;stroke-linejoin:miter;stroke-opacity:1"/>
<path class="bond-8 atom-8 atom-9" d="M 274.956,66.1223 L 269.238,73.4363" style="fill:none;fill-rule:evenodd;stroke:#000000;stroke-width:2.0px;stroke-linecap:butt;stroke-linejoin:miter;stroke-opacity:1"/>
<path class="bond-9 atom-9 atom-10" d="M 265.923,73.3698 L 270.887,85.6687" style="fill:none;fill-rule:evenodd;stroke:#000000;stroke-width:2.0px;stroke-linecap:butt;stroke-linejoin:miter;stroke-opacity:1"/>
<path class="bond-10 atom-10 atom-11" d="M 270.887,85.6687 L 267.771,89.6531" style="fill:none;fill-rule:evenodd;stroke:#000000;stroke-width:2.0px;stroke-linecap:butt;stroke-linejoin:miter;stroke-opacity:1"/>
<path class="bond-10 atom-10 atom-11" d="M 267.771,89.6531 L 264.656,93.6376" style="fill:none;fill-rule:evenodd;stroke:#FF0000;stroke-width:2.0px;stroke-linecap:butt;stroke-linejoin:miter;stroke-opacity:1"/>
<path class="bond-11 atom-10 atom-12" d="M 270.887,85.6687 L 284.02,87.5191" style="fill:none;fill-rule:evenodd;stroke:#000000;stroke-width:2.0px;stroke-linecap:butt;stroke-linejoin:miter;stroke-opacity:1"/>
<path class="bond-11 atom-10 atom-12" d="M 273.227,83.3196 L 282.42,84.6149" style="fill:none;fill-rule:evenodd;stroke:#000000;stroke-width:2.0px;stroke-linecap:butt;stroke-linejoin:miter;stroke-opacity:1"/>
<path class="bond-13 atom-13 atom-14" d="M 311.545,90.6337 L 307.004,103.095" style="fill:none;fill-rule:evenodd;stroke:#000000;stroke-width:2.0px;stroke-linecap:butt;stroke-linejoin:miter;stroke-opacity:1"/>
<path class="bond-13 atom-13 atom-14" d="M 313.356,93.411 L 310.178,102.134" style="fill:none;fill-rule:evenodd;stroke:#000000;stroke-width:2.0px;stroke-linecap:butt;stroke-linejoin:miter;stroke-opacity:1"/>
<path class="bond-21 atom-19 atom-13" d="M 324.607,88.3351 L 311.545,90.6337" style="fill:none;fill-rule:evenodd;stroke:#000000;stroke-width:2.0px;stroke-linecap:butt;stroke-linejoin:miter;stroke-opacity:1"/>
<path class="bond-14 atom-14 atom-15" d="M 307.004,103.095 L 301.444,104.074" style="fill:none;fill-rule:evenodd;stroke:#000000;stroke-width:2.0px;stroke-linecap:butt;stroke-linejoin:miter;stroke-opacity:1"/>
<path class="bond-14 atom-14 atom-15" d="M 301.444,104.074 L 295.885,105.052" style="fill:none;fill-rule:evenodd;stroke:#0000FF;stroke-width:2.0px;stroke-linecap:butt;stroke-linejoin:miter;stroke-opacity:1"/>
<path class="bond-15 atom-14 atom-16" d="M 307.004,103.095 L 310.294,107.018" style="fill:none;fill-rule:evenodd;stroke:#000000;stroke-width:2.0px;stroke-linecap:butt;stroke-linejoin:miter;stroke-opacity:1"/>
<path class="bond-15 atom-14 atom-16" d="M 310.294,107.018 L 313.583,110.941" style="fill:none;fill-rule:evenodd;stroke:#0000FF;stroke-width:2.0px;stroke-linecap:butt;stroke-linejoin:miter;stroke-opacity:1"/>
<path class="bond-16 atom-16 atom-17" d="M 317.469,112.916 L 323.028,111.938" style="fill:none;fill-rule:evenodd;stroke:#0000FF;stroke-width:2.0px;stroke-linecap:butt;stroke-linejoin:miter;stroke-opacity:1"/>
<path class="bond-16 atom-16 atom-17" d="M 323.028,111.938 L 328.588,110.96" style="fill:none;fill-rule:evenodd;stroke:#000000;stroke-width:2.0px;stroke-linecap:butt;stroke-linejoin:miter;stroke-opacity:1"/>
<path class="bond-16 atom-16 atom-17" d="M 318.677,110.01 L 322.569,109.326" style="fill:none;fill-rule:evenodd;stroke:#0000FF;stroke-width:2.0px;stroke-linecap:butt;stroke-linejoin:miter;stroke-opacity:1"/>
<path class="bond-16 atom-16 atom-17" d="M 322.569,109.326 L 326.461,108.641" style="fill:none;fill-rule:evenodd;stroke:#000000;stroke-width:2.0px;stroke-linecap:butt;stroke-linejoin:miter;stroke-opacity:1"/>
<path class="bond-17 atom-17 atom-18" d="M 328.588,110.96 L 330.411,105.957" style="fill:none;fill-rule:evenodd;stroke:#000000;stroke-width:2.0px;stroke-linecap:butt;stroke-linejoin:miter;stroke-opacity:1"/>
<path class="bond-17 atom-17 atom-18" d="M 330.411,105.957 L 332.234,100.954" style="fill:none;fill-rule:evenodd;stroke:#0000FF;stroke-width:2.0px;stroke-linecap:butt;stroke-linejoin:miter;stroke-opacity:1"/>
<path class="bond-18 atom-18 atom-19" d="M 331.186,96.1814 L 327.897,92.2583" style="fill:none;fill-rule:evenodd;stroke:#0000FF;stroke-width:2.0px;stroke-linecap:butt;stroke-linejoin:miter;stroke-opacity:1"/>
<path class="bond-18 atom-18 atom-19" d="M 327.897,92.2583 L 324.607,88.3351" style="fill:none;fill-rule:evenodd;stroke:#000000;stroke-width:2.0px;stroke-linecap:butt;stroke-linejoin:miter;stroke-opacity:1"/>
<path class="bond-18 atom-18 atom-19" d="M 328.167,96.7088 L 325.864,93.9626" style="fill:none;fill-rule:evenodd;stroke:#0000FF;stroke-width:2.0px;stroke-linecap:butt;stroke-linejoin:miter;stroke-opacity:1"/>
<path class="bond-18 atom-18 atom-19" d="M 325.864,93.9626 L 323.561,91.2164" style="fill:none;fill-rule:evenodd;stroke:#000000;stroke-width:2.0px;stroke-linecap:butt;stroke-linejoin:miter;stroke-opacity:1"/>
<path class="atom-3" d="M 325.518 73.0779 L 326.91 75.3279 Q 327.048 75.5499, 327.27 75.9519 Q 327.492 76.3539, 327.504 76.3779 L 327.504 73.0779 L 328.068 73.0779 L 328.068 77.3259 L 327.486 77.3259 L 325.992 74.8659 Q 325.818 74.5779, 325.632 74.2479 Q 325.452 73.9179, 325.398 73.8159 L 325.398 77.3259 L 324.846 77.3259 L 324.846 73.0779 L 325.518 73.0779 " fill="#0000FF"/>
<path class="atom-4" d="M 313.6 67.2596 L 314.992 69.5096 Q 315.13 69.7316, 315.352 70.1336 Q 315.574 70.5356, 315.586 70.5596 L 315.586 67.2596 L 316.15 67.2596 L 316.15 71.5076 L 315.568 71.5076 L 314.074 69.0476 Q 313.9 68.7596, 313.714 68.4296 Q 313.534 68.0996, 313.48 67.9976 L 313.48 71.5076 L 312.928 71.5076 L 312.928 67.2596 L 313.6 67.2596 " fill="#0000FF"/>
<path class="atom-11" d="M 257.144 94.0172 L 257.72 94.0172 L 257.72 95.8232 L 259.892 95.8232 L 259.892 94.0172 L 260.468 94.0172 L 260.468 98.2652 L 259.892 98.2652 L 259.892 96.3032 L 257.72 96.3032 L 257.72 98.2652 L 257.144 98.2652 L 257.144 94.0172 " fill="#FF0000"/>
<path class="atom-11" d="M 260.768 96.1292 Q 260.768 95.1092, 261.272 94.5392 Q 261.776 93.9692, 262.718 93.9692 Q 263.66 93.9692, 264.164 94.5392 Q 264.668 95.1092, 264.668 96.1292 Q 264.668 97.1612, 264.158 97.7492 Q 263.648 98.3312, 262.718 98.3312 Q 261.782 98.3312, 261.272 97.7492 Q 260.768 97.1672, 260.768 96.1292 M 262.718 97.8512 Q 263.366 97.8512, 263.714 97.4192 Q 264.068 96.9812, 264.068 96.1292 Q 264.068 95.2952, 263.714 94.8752 Q 263.366 94.4492, 262.718 94.4492 Q 262.07 94.4492, 261.716 94.8692 Q 261.368 95.2892, 261.368 96.1292 Q 261.368 96.9872, 261.716 97.4192 Q 262.07 97.8512, 262.718 97.8512 " fill="#FF0000"/>
<path class="atom-15" d="M 286.422 103.27 L 286.998 103.27 L 286.998 105.076 L 289.17 105.076 L 289.17 103.27 L 289.746 103.27 L 289.746 107.518 L 289.17 107.518 L 289.17 105.556 L 286.998 105.556 L 286.998 107.518 L 286.422 107.518 L 286.422 103.27 " fill="#0000FF"/>
<path class="atom-15" d="M 289.952 107.369 Q 290.055 107.103, 290.3 106.957 Q 290.546 106.806, 290.887 106.806 Q 291.31 106.806, 291.548 107.036 Q 291.785 107.266, 291.785 107.674 Q 291.785 108.089, 291.477 108.477 Q 291.172 108.866, 290.538 109.325 L 291.833 109.325 L 291.833 109.642 L 289.944 109.642 L 289.944 109.376 Q 290.467 109.004, 290.776 108.727 Q 291.089 108.45, 291.239 108.2 Q 291.389 107.951, 291.389 107.693 Q 291.389 107.424, 291.255 107.274 Q 291.12 107.123, 290.887 107.123 Q 290.661 107.123, 290.51 107.214 Q 290.36 107.305, 290.253 107.507 L 289.952 107.369 " fill="#0000FF"/>
<path class="atom-15" d="M 293.003 103.27 L 294.395 105.52 Q 294.533 105.742, 294.755 106.144 Q 294.977 106.546, 294.989 106.57 L 294.989 103.27 L 295.553 103.27 L 295.553 107.518 L 294.971 107.518 L 293.477 105.058 Q 293.303 104.77, 293.117 104.44 Q 292.937 104.11, 292.883 104.008 L 292.883 107.518 L 292.331 107.518 L 292.331 103.27 L 293.003 103.27 " fill="#0000FF"/>
<path class="atom-16" d="M 314.587 111.134 L 315.979 113.384 Q 316.117 113.606, 316.339 114.008 Q 316.561 114.41, 316.573 114.434 L 316.573 111.134 L 317.137 111.134 L 317.137 115.382 L 316.555 115.382 L 315.061 112.922 Q 314.887 112.634, 314.701 112.304 Q 314.521 111.974, 314.467 111.872 L 314.467 115.382 L 313.915 115.382 L 313.915 111.134 L 314.587 111.134 " fill="#0000FF"/>
<path class="atom-18" d="M 332.19 96.3741 L 333.582 98.6241 Q 333.72 98.8461, 333.942 99.2481 Q 334.164 99.6501, 334.176 99.6741 L 334.176 96.3741 L 334.74 96.3741 L 334.74 100.622 L 334.158 100.622 L 332.664 98.1621 Q 332.49 97.8741, 332.304 97.5441 Q 332.124 97.2141, 332.07 97.1121 L 332.07 100.622 L 331.518 100.622 L 331.518 96.3741 L 332.19 96.3741 " fill="#0000FF"/>
<path d="M 267.277 188.104 Q 267.277 185.288, 268.589 183.816 Q 269.917 182.328, 272.429 182.328 Q 274.765 182.328, 276.013 183.976 L 274.957 184.84 Q 274.045 183.64, 272.429 183.64 Q 270.717 183.64, 269.805 184.792 Q 268.909 185.928, 268.909 188.104 Q 268.909 190.344, 269.837 191.496 Q 270.781 192.648, 272.605 192.648 Q 273.853 192.648, 275.309 191.896 L 275.757 193.096 Q 275.165 193.48, 274.269 193.704 Q 273.373 193.928, 272.381 193.928 Q 269.917 193.928, 268.589 192.424 Q 267.277 190.92, 267.277 188.104 " fill="#000000"/>
<path d="M 277.389 181.64 L 278.861 181.64 L 278.861 193.784 L 277.389 193.784 L 277.389 181.64 " fill="#000000"/>
<path d="M 287.085 185.56 L 287.085 193.784 L 285.853 193.784 L 285.677 192.648 Q 284.605 193.928, 282.893 193.928 Q 281.501 193.928, 280.797 193.192 Q 280.093 192.44, 280.093 191 L 280.093 185.56 L 281.597 185.56 L 281.597 190.888 Q 281.597 191.864, 281.965 192.312 Q 282.349 192.744, 283.181 192.744 Q 283.933 192.744, 284.557 192.408 Q 285.181 192.056, 285.581 191.448 L 285.581 185.56 L 287.085 185.56 " fill="#000000"/>
<path d="M 288.349 192.088 Q 289.069 192.392, 289.581 192.536 Q 290.109 192.68, 290.669 192.68 Q 291.389 192.68, 291.789 192.376 Q 292.205 192.072, 292.205 191.48 Q 292.205 191.112, 291.981 190.888 Q 291.773 190.648, 291.501 190.536 Q 291.245 190.424, 290.525 190.184 Q 290.413 190.152, 289.677 189.896 Q 288.941 189.64, 288.541 189.096 Q 288.157 188.552, 288.157 187.752 Q 288.157 186.76, 288.925 186.088 Q 289.693 185.416, 291.181 185.416 Q 291.805 185.416, 292.349 185.56 Q 292.909 185.704, 293.517 185.944 L 293.117 187.128 Q 292.589 186.92, 292.125 186.792 Q 291.677 186.664, 291.181 186.664 Q 290.429 186.664, 290.045 186.968 Q 289.661 187.256, 289.661 187.736 Q 289.661 188.184, 289.965 188.408 Q 290.269 188.616, 290.941 188.856 Q 291.117 188.904, 291.261 188.968 L 291.645 189.112 Q 292.317 189.336, 292.717 189.56 Q 293.133 189.784, 293.421 190.248 Q 293.709 190.696, 293.709 191.448 Q 293.709 192.632, 292.861 193.288 Q 292.029 193.928, 290.685 193.928 Q 289.901 193.928, 289.229 193.768 Q 288.557 193.592, 287.885 193.304 L 288.349 192.088 " fill="#000000"/>
<path d="M 294.173 186.712 L 294.173 185.56 L 295.741 185.56 L 295.997 183.16 L 297.117 183.16 L 297.117 185.56 L 299.629 185.56 L 299.629 186.712 L 297.117 186.712 L 297.117 191.256 Q 297.117 192.68, 298.317 192.68 Q 298.797 192.68, 299.501 192.456 L 299.757 193.512 Q 298.877 193.88, 298.045 193.88 Q 296.973 193.88, 296.285 193.24 Q 295.613 192.6, 295.613 191.336 L 295.613 186.712 L 294.173 186.712 " fill="#000000"/>
<path d="M 300.493 189.656 Q 300.493 187.64, 301.501 186.536 Q 302.509 185.416, 304.349 185.416 Q 306.157 185.416, 306.957 186.504 Q 307.773 187.576, 307.773 189.608 L 307.773 189.864 L 302.029 189.864 Q 302.061 191.256, 302.685 191.992 Q 303.309 192.728, 304.477 192.728 Q 305.117 192.728, 305.709 192.584 Q 306.301 192.424, 307.021 192.104 L 307.453 193.128 Q 306.637 193.544, 305.901 193.736 Q 305.165 193.912, 304.397 193.912 Q 302.541 193.912, 301.517 192.792 Q 300.493 191.672, 300.493 189.656 M 304.349 186.6 Q 303.405 186.6, 302.829 187.144 Q 302.269 187.688, 302.093 188.744 L 306.189 188.744 Q 306.077 187.64, 305.629 187.128 Q 305.181 186.6, 304.349 186.6 " fill="#000000"/>
<path d="M 310.349 185.56 L 310.525 186.696 Q 311.389 185.416, 312.797 185.416 Q 313.245 185.416, 313.853 185.576 L 313.613 186.92 Q 312.925 186.76, 312.541 186.76 Q 311.869 186.76, 311.421 187.032 Q 310.989 187.288, 310.637 187.912 L 310.637 193.784 L 309.133 193.784 L 309.133 185.56 L 310.349 185.56 " fill="#000000"/>
<path d="" fill="#000000"/>
<path d="M 318.685 184.6 Q 319.101 183.528, 320.093 182.936 Q 321.085 182.328, 322.461 182.328 Q 324.173 182.328, 325.133 183.256 Q 326.093 184.184, 326.093 185.832 Q 326.093 187.512, 324.845 189.08 Q 323.613 190.648, 321.053 192.504 L 326.285 192.504 L 326.285 193.784 L 318.653 193.784 L 318.653 192.712 Q 320.765 191.208, 322.013 190.088 Q 323.277 188.968, 323.885 187.96 Q 324.493 186.952, 324.493 185.912 Q 324.493 184.824, 323.949 184.216 Q 323.405 183.608, 322.461 183.608 Q 321.549 183.608, 320.941 183.976 Q 320.333 184.344, 319.901 185.16 L 318.685 184.6 " fill="#000000"/>
<path class="bond-0 atom-0 atom-1" d="M 478.607,124.019 L 483.745,125.767" style="fill:none;fill-rule:evenodd;stroke:#000000;stroke-width:2.0px;stroke-linecap:butt;stroke-linejoin:miter;stroke-opacity:1"/>
<path class="bond-0 atom-0 atom-1" d="M 483.745,125.767 L 488.882,127.514" style="fill:none;fill-rule:evenodd;stroke:#FF0000;stroke-width:2.0px;stroke-linecap:butt;stroke-linejoin:miter;stroke-opacity:1"/>
<path class="bond-1 atom-1 atom-2" d="M 493.445,126.292 L 497.293,122.922" style="fill:none;fill-rule:evenodd;stroke:#FF0000;stroke-width:2.0px;stroke-linecap:butt;stroke-linejoin:miter;stroke-opacity:1"/>
<path class="bond-1 atom-1 atom-2" d="M 497.293,122.922 L 501.14,119.551" style="fill:none;fill-rule:evenodd;stroke:#000000;stroke-width:2.0px;stroke-linecap:butt;stroke-linejoin:miter;stroke-opacity:1"/>
<path class="bond-2 atom-2 atom-3" d="M 501.14,119.551 L 513.697,123.822" style="fill:none;fill-rule:evenodd;stroke:#000000;stroke-width:2.0px;stroke-linecap:butt;stroke-linejoin:miter;stroke-opacity:1"/>
<path class="bond-2 atom-2 atom-3" d="M 503.878,117.681 L 512.668,120.67" style="fill:none;fill-rule:evenodd;stroke:#000000;stroke-width:2.0px;stroke-linecap:butt;stroke-linejoin:miter;stroke-opacity:1"/>
<path class="bond-30 atom-20 atom-2" d="M 498.561,106.542 L 501.14,119.551" style="fill:none;fill-rule:evenodd;stroke:#000000;stroke-width:2.0px;stroke-linecap:butt;stroke-linejoin:miter;stroke-opacity:1"/>
<path class="bond-3 atom-3 atom-4" d="M 513.697,123.822 L 523.674,115.083" style="fill:none;fill-rule:evenodd;stroke:#000000;stroke-width:2.0px;stroke-linecap:butt;stroke-linejoin:miter;stroke-opacity:1"/>
<path class="bond-4 atom-4 atom-5" d="M 523.674,115.083 L 528.981,116.888" style="fill:none;fill-rule:evenodd;stroke:#000000;stroke-width:2.0px;stroke-linecap:butt;stroke-linejoin:miter;stroke-opacity:1"/>
<path class="bond-4 atom-4 atom-5" d="M 528.981,116.888 L 534.288,118.694" style="fill:none;fill-rule:evenodd;stroke:#0000FF;stroke-width:2.0px;stroke-linecap:butt;stroke-linejoin:miter;stroke-opacity:1"/>
<path class="bond-4 atom-4 atom-5" d="M 526.12,113.114 L 529.835,114.377" style="fill:none;fill-rule:evenodd;stroke:#000000;stroke-width:2.0px;stroke-linecap:butt;stroke-linejoin:miter;stroke-opacity:1"/>
<path class="bond-4 atom-4 atom-5" d="M 529.835,114.377 L 533.55,115.641" style="fill:none;fill-rule:evenodd;stroke:#0000FF;stroke-width:2.0px;stroke-linecap:butt;stroke-linejoin:miter;stroke-opacity:1"/>
<path class="bond-32 atom-18 atom-4" d="M 521.094,102.074 L 523.674,115.083" style="fill:none;fill-rule:evenodd;stroke:#000000;stroke-width:2.0px;stroke-linecap:butt;stroke-linejoin:miter;stroke-opacity:1"/>
<path class="bond-5 atom-5 atom-6" d="M 538.173,117.653 L 542.19,114.134" style="fill:none;fill-rule:evenodd;stroke:#0000FF;stroke-width:2.0px;stroke-linecap:butt;stroke-linejoin:miter;stroke-opacity:1"/>
<path class="bond-5 atom-5 atom-6" d="M 542.19,114.134 L 546.207,110.615" style="fill:none;fill-rule:evenodd;stroke:#000000;stroke-width:2.0px;stroke-linecap:butt;stroke-linejoin:miter;stroke-opacity:1"/>
<path class="bond-6 atom-6 atom-7" d="M 546.207,110.615 L 545.161,105.338" style="fill:none;fill-rule:evenodd;stroke:#000000;stroke-width:2.0px;stroke-linecap:butt;stroke-linejoin:miter;stroke-opacity:1"/>
<path class="bond-6 atom-6 atom-7" d="M 545.161,105.338 L 544.115,100.061" style="fill:none;fill-rule:evenodd;stroke:#0000FF;stroke-width:2.0px;stroke-linecap:butt;stroke-linejoin:miter;stroke-opacity:1"/>
<path class="bond-6 atom-6 atom-7" d="M 543.291,109.548 L 542.559,105.854" style="fill:none;fill-rule:evenodd;stroke:#000000;stroke-width:2.0px;stroke-linecap:butt;stroke-linejoin:miter;stroke-opacity:1"/>
<path class="bond-6 atom-6 atom-7" d="M 542.559,105.854 L 541.827,102.16" style="fill:none;fill-rule:evenodd;stroke:#0000FF;stroke-width:2.0px;stroke-linecap:butt;stroke-linejoin:miter;stroke-opacity:1"/>
<path class="bond-7 atom-7 atom-8" d="M 541.685,96.945 L 536.378,95.14" style="fill:none;fill-rule:evenodd;stroke:#0000FF;stroke-width:2.0px;stroke-linecap:butt;stroke-linejoin:miter;stroke-opacity:1"/>
<path class="bond-7 atom-7 atom-8" d="M 536.378,95.14 L 531.071,93.3349" style="fill:none;fill-rule:evenodd;stroke:#000000;stroke-width:2.0px;stroke-linecap:butt;stroke-linejoin:miter;stroke-opacity:1"/>
<path class="bond-8 atom-8 atom-9" d="M 531.071,93.3349 L 530.025,88.0579" style="fill:none;fill-rule:evenodd;stroke:#000000;stroke-width:2.0px;stroke-linecap:butt;stroke-linejoin:miter;stroke-opacity:1"/>
<path class="bond-8 atom-8 atom-9" d="M 530.025,88.0579 L 528.978,82.7808" style="fill:none;fill-rule:evenodd;stroke:#0000FF;stroke-width:2.0px;stroke-linecap:butt;stroke-linejoin:miter;stroke-opacity:1"/>
<path class="bond-17 atom-8 atom-18" d="M 531.071,93.3349 L 521.094,102.074" style="fill:none;fill-rule:evenodd;stroke:#000000;stroke-width:2.0px;stroke-linecap:butt;stroke-linejoin:miter;stroke-opacity:1"/>
<path class="bond-17 atom-8 atom-18" d="M 531.322,96.6411 L 524.339,102.758" style="fill:none;fill-rule:evenodd;stroke:#000000;stroke-width:2.0px;stroke-linecap:butt;stroke-linejoin:miter;stroke-opacity:1"/>
<path class="bond-9 atom-9 atom-10" d="M 530.434,78.6237 L 534.451,75.1051" style="fill:none;fill-rule:evenodd;stroke:#0000FF;stroke-width:2.0px;stroke-linecap:butt;stroke-linejoin:miter;stroke-opacity:1"/>
<path class="bond-9 atom-9 atom-10" d="M 534.451,75.1051 L 538.468,71.5864" style="fill:none;fill-rule:evenodd;stroke:#000000;stroke-width:2.0px;stroke-linecap:butt;stroke-linejoin:miter;stroke-opacity:1"/>
<path class="bond-10 atom-10 atom-11" d="M 538.468,71.5864 L 551.025,75.8572" style="fill:none;fill-rule:evenodd;stroke:#000000;stroke-width:2.0px;stroke-linecap:butt;stroke-linejoin:miter;stroke-opacity:1"/>
<path class="bond-10 atom-10 atom-11" d="M 541.206,69.7157 L 549.996,72.7053" style="fill:none;fill-rule:evenodd;stroke:#000000;stroke-width:2.0px;stroke-linecap:butt;stroke-linejoin:miter;stroke-opacity:1"/>
<path class="bond-33 atom-17 atom-10" d="M 535.889,58.5767 L 538.468,71.5864" style="fill:none;fill-rule:evenodd;stroke:#000000;stroke-width:2.0px;stroke-linecap:butt;stroke-linejoin:miter;stroke-opacity:1"/>
<path class="bond-11 atom-11 atom-12" d="M 551.025,75.8572 L 561.002,67.1184" style="fill:none;fill-rule:evenodd;stroke:#000000;stroke-width:2.0px;stroke-linecap:butt;stroke-linejoin:miter;stroke-opacity:1"/>
<path class="bond-12 atom-12 atom-13" d="M 561.002,67.1184 L 558.422,54.1087" style="fill:none;fill-rule:evenodd;stroke:#000000;stroke-width:2.0px;stroke-linecap:butt;stroke-linejoin:miter;stroke-opacity:1"/>
<path class="bond-12 atom-12 atom-13" d="M 558.013,65.6828 L 556.207,56.5761" style="fill:none;fill-rule:evenodd;stroke:#000000;stroke-width:2.0px;stroke-linecap:butt;stroke-linejoin:miter;stroke-opacity:1"/>
<path class="bond-13 atom-13 atom-14" d="M 558.422,54.1087 L 562.613,50.4376" style="fill:none;fill-rule:evenodd;stroke:#000000;stroke-width:2.0px;stroke-linecap:butt;stroke-linejoin:miter;stroke-opacity:1"/>
<path class="bond-13 atom-13 atom-14" d="M 562.613,50.4376 L 566.805,46.7666" style="fill:none;fill-rule:evenodd;stroke:#33CCCC;stroke-width:2.0px;stroke-linecap:butt;stroke-linejoin:miter;stroke-opacity:1"/>
<path class="bond-14 atom-13 atom-15" d="M 558.422,54.1087 L 545.866,49.8379" style="fill:none;fill-rule:evenodd;stroke:#000000;stroke-width:2.0px;stroke-linecap:butt;stroke-linejoin:miter;stroke-opacity:1"/>
<path class="bond-15 atom-15 atom-16" d="M 545.866,49.8379 L 544.84,44.6643" style="fill:none;fill-rule:evenodd;stroke:#000000;stroke-width:2.0px;stroke-linecap:butt;stroke-linejoin:miter;stroke-opacity:1"/>
<path class="bond-15 atom-15 atom-16" d="M 544.84,44.6643 L 543.814,39.4908" style="fill:none;fill-rule:evenodd;stroke:#00CC00;stroke-width:2.0px;stroke-linecap:butt;stroke-linejoin:miter;stroke-opacity:1"/>
<path class="bond-16 atom-15 atom-17" d="M 545.866,49.8379 L 535.889,58.5767" style="fill:none;fill-rule:evenodd;stroke:#000000;stroke-width:2.0px;stroke-linecap:butt;stroke-linejoin:miter;stroke-opacity:1"/>
<path class="bond-16 atom-15 atom-17" d="M 546.117,53.1441 L 539.133,59.2613" style="fill:none;fill-rule:evenodd;stroke:#000000;stroke-width:2.0px;stroke-linecap:butt;stroke-linejoin:miter;stroke-opacity:1"/>
<path class="bond-18 atom-18 atom-19" d="M 521.094,102.074 L 508.538,97.8029" style="fill:none;fill-rule:evenodd;stroke:#000000;stroke-width:2.0px;stroke-linecap:butt;stroke-linejoin:miter;stroke-opacity:1"/>
<path class="bond-19 atom-19 atom-20" d="M 508.538,97.8029 L 498.561,106.542" style="fill:none;fill-rule:evenodd;stroke:#000000;stroke-width:2.0px;stroke-linecap:butt;stroke-linejoin:miter;stroke-opacity:1"/>
<path class="bond-19 atom-19 atom-20" d="M 508.789,101.109 L 501.805,107.226" style="fill:none;fill-rule:evenodd;stroke:#000000;stroke-width:2.0px;stroke-linecap:butt;stroke-linejoin:miter;stroke-opacity:1"/>
<path class="bond-20 atom-20 atom-21" d="M 498.561,106.542 L 493.423,104.794" style="fill:none;fill-rule:evenodd;stroke:#000000;stroke-width:2.0px;stroke-linecap:butt;stroke-linejoin:miter;stroke-opacity:1"/>
<path class="bond-20 atom-20 atom-21" d="M 493.423,104.794 L 488.286,103.047" style="fill:none;fill-rule:evenodd;stroke:#FF0000;stroke-width:2.0px;stroke-linecap:butt;stroke-linejoin:miter;stroke-opacity:1"/>
<path class="bond-21 atom-21 atom-22" d="M 485.513,99.7914 L 484.469,94.5263" style="fill:none;fill-rule:evenodd;stroke:#FF0000;stroke-width:2.0px;stroke-linecap:butt;stroke-linejoin:miter;stroke-opacity:1"/>
<path class="bond-21 atom-21 atom-22" d="M 484.469,94.5263 L 483.425,89.2613" style="fill:none;fill-rule:evenodd;stroke:#000000;stroke-width:2.0px;stroke-linecap:butt;stroke-linejoin:miter;stroke-opacity:1"/>
<path class="bond-22 atom-22 atom-23" d="M 483.425,89.2613 L 470.868,84.9905" style="fill:none;fill-rule:evenodd;stroke:#000000;stroke-width:2.0px;stroke-linecap:butt;stroke-linejoin:miter;stroke-opacity:1"/>
<path class="bond-23 atom-23 atom-24" d="M 470.868,84.9905 L 468.289,71.9808" style="fill:none;fill-rule:evenodd;stroke:#000000;stroke-width:2.0px;stroke-linecap:butt;stroke-linejoin:miter;stroke-opacity:1"/>
<path class="bond-24 atom-24 atom-25" d="M 468.289,71.9808 L 462.982,70.1757" style="fill:none;fill-rule:evenodd;stroke:#000000;stroke-width:2.0px;stroke-linecap:butt;stroke-linejoin:miter;stroke-opacity:1"/>
<path class="bond-24 atom-24 atom-25" d="M 462.982,70.1757 L 457.675,68.3707" style="fill:none;fill-rule:evenodd;stroke:#0000FF;stroke-width:2.0px;stroke-linecap:butt;stroke-linejoin:miter;stroke-opacity:1"/>
<path class="bond-25 atom-25 atom-26" d="M 455.245,65.2544 L 454.199,59.9773" style="fill:none;fill-rule:evenodd;stroke:#0000FF;stroke-width:2.0px;stroke-linecap:butt;stroke-linejoin:miter;stroke-opacity:1"/>
<path class="bond-25 atom-25 atom-26" d="M 454.199,59.9773 L 453.152,54.7003" style="fill:none;fill-rule:evenodd;stroke:#000000;stroke-width:2.0px;stroke-linecap:butt;stroke-linejoin:miter;stroke-opacity:1"/>
<path class="bond-31 atom-30 atom-25" d="M 445.755,76.4488 L 449.772,72.9301" style="fill:none;fill-rule:evenodd;stroke:#000000;stroke-width:2.0px;stroke-linecap:butt;stroke-linejoin:miter;stroke-opacity:1"/>
<path class="bond-31 atom-30 atom-25" d="M 449.772,72.9301 L 453.789,69.4115" style="fill:none;fill-rule:evenodd;stroke:#0000FF;stroke-width:2.0px;stroke-linecap:butt;stroke-linejoin:miter;stroke-opacity:1"/>
<path class="bond-26 atom-26 atom-27" d="M 453.152,54.7003 L 440.596,50.4295" style="fill:none;fill-rule:evenodd;stroke:#000000;stroke-width:2.0px;stroke-linecap:butt;stroke-linejoin:miter;stroke-opacity:1"/>
<path class="bond-27 atom-27 atom-28" d="M 440.596,50.4295 L 430.619,59.1683" style="fill:none;fill-rule:evenodd;stroke:#000000;stroke-width:2.0px;stroke-linecap:butt;stroke-linejoin:miter;stroke-opacity:1"/>
<path class="bond-28 atom-28 atom-29" d="M 430.619,59.1683 L 433.199,72.178" style="fill:none;fill-rule:evenodd;stroke:#000000;stroke-width:2.0px;stroke-linecap:butt;stroke-linejoin:miter;stroke-opacity:1"/>
<path class="bond-29 atom-29 atom-30" d="M 433.199,72.178 L 445.755,76.4488" style="fill:none;fill-rule:evenodd;stroke:#000000;stroke-width:2.0px;stroke-linecap:butt;stroke-linejoin:miter;stroke-opacity:1"/>
<path class="atom-1" d="M 489.214 128.302 Q 489.214 127.282, 489.718 126.712 Q 490.222 126.142, 491.164 126.142 Q 492.106 126.142, 492.61 126.712 Q 493.114 127.282, 493.114 128.302 Q 493.114 129.334, 492.604 129.922 Q 492.094 130.504, 491.164 130.504 Q 490.228 130.504, 489.718 129.922 Q 489.214 129.34, 489.214 128.302 M 491.164 130.024 Q 491.812 130.024, 492.16 129.592 Q 492.514 129.154, 492.514 128.302 Q 492.514 127.468, 492.16 127.048 Q 491.812 126.622, 491.164 126.622 Q 490.516 126.622, 490.162 127.042 Q 489.814 127.462, 489.814 128.302 Q 489.814 129.16, 490.162 129.592 Q 490.516 130.024, 491.164 130.024 " fill="#FF0000"/>
<path class="atom-5" d="M 535.291 117.23 L 536.683 119.48 Q 536.821 119.702, 537.043 120.104 Q 537.265 120.506, 537.277 120.53 L 537.277 117.23 L 537.841 117.23 L 537.841 121.478 L 537.259 121.478 L 535.765 119.018 Q 535.591 118.73, 535.405 118.4 Q 535.225 118.07, 535.171 117.968 L 535.171 121.478 L 534.619 121.478 L 534.619 117.23 L 535.291 117.23 " fill="#0000FF"/>
<path class="atom-7" d="M 542.689 95.4817 L 544.081 97.7317 Q 544.219 97.9537, 544.441 98.3557 Q 544.663 98.7577, 544.675 98.7817 L 544.675 95.4817 L 545.239 95.4817 L 545.239 99.7297 L 544.657 99.7297 L 543.163 97.2697 Q 542.989 96.9817, 542.803 96.6517 Q 542.623 96.3217, 542.569 96.2197 L 542.569 99.7297 L 542.017 99.7297 L 542.017 95.4817 L 542.689 95.4817 " fill="#0000FF"/>
<path class="atom-9" d="M 523.059 78.2012 L 523.635 78.2012 L 523.635 80.0072 L 525.807 80.0072 L 525.807 78.2012 L 526.383 78.2012 L 526.383 82.4492 L 525.807 82.4492 L 525.807 80.4872 L 523.635 80.4872 L 523.635 82.4492 L 523.059 82.4492 L 523.059 78.2012 " fill="#0000FF"/>
<path class="atom-9" d="M 527.553 78.2012 L 528.945 80.4512 Q 529.083 80.6732, 529.305 81.0752 Q 529.527 81.4772, 529.539 81.5012 L 529.539 78.2012 L 530.103 78.2012 L 530.103 82.4492 L 529.521 82.4492 L 528.027 79.9892 Q 527.853 79.7012, 527.667 79.3712 Q 527.487 79.0412, 527.433 78.9392 L 527.433 82.4492 L 526.881 82.4492 L 526.881 78.2012 L 527.553 78.2012 " fill="#0000FF"/>
<path class="atom-14" d="M 567.136 43.2459 L 569.662 43.2459 L 569.662 43.7319 L 567.706 43.7319 L 567.706 45.0219 L 569.446 45.0219 L 569.446 45.5139 L 567.706 45.5139 L 567.706 47.4939 L 567.136 47.4939 L 567.136 43.2459 " fill="#33CCCC"/>
<path class="atom-16" d="M 541.648 36.9752 Q 541.648 35.9192, 542.14 35.3672 Q 542.638 34.8092, 543.58 34.8092 Q 544.456 34.8092, 544.924 35.4272 L 544.528 35.7512 Q 544.186 35.3012, 543.58 35.3012 Q 542.938 35.3012, 542.596 35.7332 Q 542.26 36.1592, 542.26 36.9752 Q 542.26 37.8152, 542.608 38.2472 Q 542.962 38.6792, 543.646 38.6792 Q 544.114 38.6792, 544.66 38.3972 L 544.828 38.8472 Q 544.606 38.9912, 544.27 39.0752 Q 543.934 39.1592, 543.562 39.1592 Q 542.638 39.1592, 542.14 38.5952 Q 541.648 38.0312, 541.648 36.9752 " fill="#00CC00"/>
<path class="atom-16" d="M 545.44 34.5512 L 545.992 34.5512 L 545.992 39.1052 L 545.44 39.1052 L 545.44 34.5512 " fill="#00CC00"/>
<path class="atom-21" d="M 484.054 102.283 Q 484.054 101.263, 484.558 100.693 Q 485.062 100.123, 486.004 100.123 Q 486.946 100.123, 487.45 100.693 Q 487.954 101.263, 487.954 102.283 Q 487.954 103.315, 487.444 103.903 Q 486.934 104.485, 486.004 104.485 Q 485.068 104.485, 484.558 103.903 Q 484.054 103.321, 484.054 102.283 M 486.004 104.005 Q 486.652 104.005, 487 103.573 Q 487.354 103.135, 487.354 102.283 Q 487.354 101.449, 487 101.029 Q 486.652 100.603, 486.004 100.603 Q 485.356 100.603, 485.002 101.023 Q 484.654 101.443, 484.654 102.283 Q 484.654 103.141, 485.002 103.573 Q 485.356 104.005, 486.004 104.005 " fill="#FF0000"/>
<path class="atom-25" d="M 454.793 65.586 L 456.185 67.836 Q 456.323 68.058, 456.545 68.46 Q 456.767 68.862, 456.779 68.886 L 456.779 65.586 L 457.343 65.586 L 457.343 69.834 L 456.761 69.834 L 455.267 67.374 Q 455.093 67.086, 454.907 66.756 Q 454.727 66.426, 454.673 66.324 L 454.673 69.834 L 454.121 69.834 L 454.121 65.586 L 454.793 65.586 " fill="#0000FF"/>
<path d="M 467.296 188.088 Q 467.296 185.272, 468.608 183.8 Q 469.936 182.312, 472.448 182.312 Q 474.784 182.312, 476.032 183.96 L 474.976 184.824 Q 474.064 183.624, 472.448 183.624 Q 470.736 183.624, 469.824 184.776 Q 468.928 185.912, 468.928 188.088 Q 468.928 190.328, 469.856 191.48 Q 470.8 192.632, 472.624 192.632 Q 473.872 192.632, 475.328 191.88 L 475.776 193.08 Q 475.184 193.464, 474.288 193.688 Q 473.392 193.912, 472.4 193.912 Q 469.936 193.912, 468.608 192.408 Q 467.296 190.904, 467.296 188.088 " fill="#000000"/>
<path d="M 477.408 181.624 L 478.88 181.624 L 478.88 193.768 L 477.408 193.768 L 477.408 181.624 " fill="#000000"/>
<path d="M 487.104 185.544 L 487.104 193.768 L 485.872 193.768 L 485.696 192.632 Q 484.624 193.912, 482.912 193.912 Q 481.52 193.912, 480.816 193.176 Q 480.112 192.424, 480.112 190.984 L 480.112 185.544 L 481.616 185.544 L 481.616 190.872 Q 481.616 191.848, 481.984 192.296 Q 482.368 192.728, 483.2 192.728 Q 483.952 192.728, 484.576 192.392 Q 485.2 192.04, 485.6 191.432 L 485.6 185.544 L 487.104 185.544 " fill="#000000"/>
<path d="M 488.368 192.072 Q 489.088 192.376, 489.6 192.52 Q 490.128 192.664, 490.688 192.664 Q 491.408 192.664, 491.808 192.36 Q 492.224 192.056, 492.224 191.464 Q 492.224 191.096, 492 190.872 Q 491.792 190.632, 491.52 190.52 Q 491.264 190.408, 490.544 190.168 Q 490.432 190.136, 489.696 189.88 Q 488.96 189.624, 488.56 189.08 Q 488.176 188.536, 488.176 187.736 Q 488.176 186.744, 488.944 186.072 Q 489.712 185.4, 491.2 185.4 Q 491.824 185.4, 492.368 185.544 Q 492.928 185.688, 493.536 185.928 L 493.136 187.112 Q 492.608 186.904, 492.144 186.776 Q 491.696 186.648, 491.2 186.648 Q 490.448 186.648, 490.064 186.952 Q 489.68 187.24, 489.68 187.72 Q 489.68 188.168, 489.984 188.392 Q 490.288 188.6, 490.96 188.84 Q 491.136 188.888, 491.28 188.952 L 491.664 189.096 Q 492.336 189.32, 492.736 189.544 Q 493.152 189.768, 493.44 190.232 Q 493.728 190.68, 493.728 191.432 Q 493.728 192.616, 492.88 193.272 Q 492.048 193.912, 490.704 193.912 Q 489.92 193.912, 489.248 193.752 Q 488.576 193.576, 487.904 193.288 L 488.368 192.072 " fill="#000000"/>
<path d="M 494.192 186.696 L 494.192 185.544 L 495.76 185.544 L 496.016 183.144 L 497.136 183.144 L 497.136 185.544 L 499.648 185.544 L 499.648 186.696 L 497.136 186.696 L 497.136 191.24 Q 497.136 192.664, 498.336 192.664 Q 498.816 192.664, 499.52 192.44 L 499.776 193.496 Q 498.896 193.864, 498.064 193.864 Q 496.992 193.864, 496.304 193.224 Q 495.632 192.584, 495.632 191.32 L 495.632 186.696 L 494.192 186.696 " fill="#000000"/>
<path d="M 500.512 189.64 Q 500.512 187.624, 501.52 186.52 Q 502.528 185.4, 504.368 185.4 Q 506.176 185.4, 506.976 186.488 Q 507.792 187.56, 507.792 189.592 L 507.792 189.848 L 502.048 189.848 Q 502.08 191.24, 502.704 191.976 Q 503.328 192.712, 504.496 192.712 Q 505.136 192.712, 505.728 192.568 Q 506.32 192.408, 507.04 192.088 L 507.472 193.112 Q 506.656 193.528, 505.92 193.72 Q 505.184 193.896, 504.416 193.896 Q 502.56 193.896, 501.536 192.776 Q 500.512 191.656, 500.512 189.64 M 504.368 186.584 Q 503.424 186.584, 502.848 187.128 Q 502.288 187.672, 502.112 188.728 L 506.208 188.728 Q 506.096 187.624, 505.648 187.112 Q 505.2 186.584, 504.368 186.584 " fill="#000000"/>
<path d="M 510.368 185.544 L 510.544 186.68 Q 511.408 185.4, 512.816 185.4 Q 513.264 185.4, 513.872 185.56 L 513.632 186.904 Q 512.944 186.744, 512.56 186.744 Q 511.888 186.744, 511.44 187.016 Q 511.008 187.272, 510.656 187.896 L 510.656 193.768 L 509.152 193.768 L 509.152 185.544 L 510.368 185.544 " fill="#000000"/>
<path d="" fill="#000000"/>
<path d="M 523.984 187.8 Q 525.088 188.12, 525.616 188.84 Q 526.16 189.544, 526.16 190.664 Q 526.16 191.624, 525.68 192.376 Q 525.2 193.112, 524.32 193.528 Q 523.44 193.928, 522.288 193.928 Q 521.072 193.928, 520.16 193.512 Q 519.264 193.08, 518.544 192.216 L 519.456 191.288 Q 520.16 192.056, 520.752 192.36 Q 521.344 192.648, 522.288 192.648 Q 523.312 192.648, 523.936 192.104 Q 524.56 191.544, 524.56 190.648 Q 524.56 189.496, 523.904 188.984 Q 523.264 188.456, 521.872 188.456 L 521.056 188.456 L 521.056 187.304 L 521.776 187.304 Q 523.008 187.288, 523.664 186.76 Q 524.32 186.216, 524.32 185.208 Q 524.32 184.472, 523.776 184.04 Q 523.232 183.592, 522.304 183.592 Q 521.36 183.592, 520.768 183.928 Q 520.192 184.264, 519.744 185.112 L 518.64 184.52 Q 519.04 183.576, 520 182.952 Q 520.96 182.312, 522.304 182.312 Q 523.968 182.312, 524.944 183.096 Q 525.92 183.88, 525.92 185.208 Q 525.92 186.12, 525.424 186.776 Q 524.928 187.432, 523.984 187.8 " fill="#000000"/>
</svg>