<svg xmlns="http://www.w3.org/2000/svg" xmlns:rdkit="http://www.rdkit.org/xml" xmlns:xlink="http://www.w3.org/1999/xlink" version="1.1" baseProfile="full" xml:space="preserve" width="600px" height="200px" viewBox="0 0 600 200">
<!-- END OF HEADER -->
<rect style="opacity:0.0;fill:#FFFFFF;stroke:none" width="600.0" height="200.0" x="0.0" y="0.0"> </rect>
<path class="bond-0 atom-0 atom-1" d="M 8.9,115.2 L 21.7,118.6" style="fill:none;fill-rule:evenodd;stroke:#000000;stroke-width:2.0px;stroke-linecap:butt;stroke-linejoin:miter;stroke-opacity:1"/>
<path class="bond-0 atom-0 atom-1" d="M 9.4,113.3 L 21.1,116.4" style="fill:none;fill-rule:evenodd;stroke:#000000;stroke-width:2.0px;stroke-linecap:butt;stroke-linejoin:miter;stroke-opacity:1"/>
<path class="bond-1 atom-1 atom-2" d="M 21.7,118.6 L 31.1,109.2" style="fill:none;fill-rule:evenodd;stroke:#000000;stroke-width:2.0px;stroke-linecap:butt;stroke-linejoin:miter;stroke-opacity:1"/>
<path class="bond-2 atom-2 atom-3" d="M 32.2,109.5 L 30.7,104.1" style="fill:none;fill-rule:evenodd;stroke:#000000;stroke-width:2.0px;stroke-linecap:butt;stroke-linejoin:miter;stroke-opacity:1"/>
<path class="bond-2 atom-2 atom-3" d="M 30.7,104.1 L 29.3,98.8" style="fill:none;fill-rule:evenodd;stroke:#FF0000;stroke-width:2.0px;stroke-linecap:butt;stroke-linejoin:miter;stroke-opacity:1"/>
<path class="bond-2 atom-2 atom-3" d="M 30.3,110.0 L 28.8,104.7" style="fill:none;fill-rule:evenodd;stroke:#000000;stroke-width:2.0px;stroke-linecap:butt;stroke-linejoin:miter;stroke-opacity:1"/>
<path class="bond-2 atom-2 atom-3" d="M 28.8,104.7 L 27.4,99.3" style="fill:none;fill-rule:evenodd;stroke:#FF0000;stroke-width:2.0px;stroke-linecap:butt;stroke-linejoin:miter;stroke-opacity:1"/>
<path class="bond-3 atom-2 atom-4" d="M 31.1,109.2 L 36.5,110.6" style="fill:none;fill-rule:evenodd;stroke:#000000;stroke-width:2.0px;stroke-linecap:butt;stroke-linejoin:miter;stroke-opacity:1"/>
<path class="bond-3 atom-2 atom-4" d="M 36.5,110.6 L 41.8,112.1" style="fill:none;fill-rule:evenodd;stroke:#0000FF;stroke-width:2.0px;stroke-linecap:butt;stroke-linejoin:miter;stroke-opacity:1"/>
<path class="bond-4 atom-4 atom-5" d="M 45.9,110.6 L 49.6,106.9" style="fill:none;fill-rule:evenodd;stroke:#0000FF;stroke-width:2.0px;stroke-linecap:butt;stroke-linejoin:miter;stroke-opacity:1"/>
<path class="bond-4 atom-4 atom-5" d="M 49.6,106.9 L 53.3,103.2" style="fill:none;fill-rule:evenodd;stroke:#000000;stroke-width:2.0px;stroke-linecap:butt;stroke-linejoin:miter;stroke-opacity:1"/>
<path class="bond-5 atom-5 atom-6" d="M 53.3,103.2 L 66.1,106.7" style="fill:none;fill-rule:evenodd;stroke:#000000;stroke-width:2.0px;stroke-linecap:butt;stroke-linejoin:miter;stroke-opacity:1"/>
<path class="bond-6 atom-6 atom-7" d="M 66.1,106.7 L 69.6,103.1" style="fill:none;fill-rule:evenodd;stroke:#000000;stroke-width:2.0px;stroke-linecap:butt;stroke-linejoin:miter;stroke-opacity:1"/>
<path class="bond-6 atom-6 atom-7" d="M 69.6,103.1 L 73.1,99.6" style="fill:none;fill-rule:evenodd;stroke:#FF0000;stroke-width:2.0px;stroke-linecap:butt;stroke-linejoin:miter;stroke-opacity:1"/>
<path class="bond-7 atom-7 atom-8" d="M 77.8,97.9 L 83.1,99.3" style="fill:none;fill-rule:evenodd;stroke:#FF0000;stroke-width:2.0px;stroke-linecap:butt;stroke-linejoin:miter;stroke-opacity:1"/>
<path class="bond-7 atom-7 atom-8" d="M 83.1,99.3 L 88.3,100.7" style="fill:none;fill-rule:evenodd;stroke:#000000;stroke-width:2.0px;stroke-linecap:butt;stroke-linejoin:miter;stroke-opacity:1"/>
<path class="bond-8 atom-8 atom-9" d="M 88.3,100.7 L 91.7,113.5" style="fill:none;fill-rule:evenodd;stroke:#000000;stroke-width:2.0px;stroke-linecap:butt;stroke-linejoin:miter;stroke-opacity:1"/>
<path class="bond-8 atom-8 atom-9" d="M 90.5,101.3 L 93.4,111.9" style="fill:none;fill-rule:evenodd;stroke:#000000;stroke-width:2.0px;stroke-linecap:butt;stroke-linejoin:miter;stroke-opacity:1"/>
<path class="bond-9 atom-9 atom-10" d="M 91.7,113.5 L 104.6,116.9" style="fill:none;fill-rule:evenodd;stroke:#000000;stroke-width:2.0px;stroke-linecap:butt;stroke-linejoin:miter;stroke-opacity:1"/>
<path class="bond-10 atom-10 atom-11" d="M 104.6,116.9 L 105.9,122.0" style="fill:none;fill-rule:evenodd;stroke:#000000;stroke-width:2.0px;stroke-linecap:butt;stroke-linejoin:miter;stroke-opacity:1"/>
<path class="bond-10 atom-10 atom-11" d="M 105.9,122.0 L 107.3,127.2" style="fill:none;fill-rule:evenodd;stroke:#0000FF;stroke-width:2.0px;stroke-linecap:butt;stroke-linejoin:miter;stroke-opacity:1"/>
<path class="bond-10 atom-10 atom-11" d="M 106.8,117.5 L 108.0,122.1" style="fill:none;fill-rule:evenodd;stroke:#000000;stroke-width:2.0px;stroke-linecap:butt;stroke-linejoin:miter;stroke-opacity:1"/>
<path class="bond-10 atom-10 atom-11" d="M 108.0,122.1 L 109.2,126.6" style="fill:none;fill-rule:evenodd;stroke:#0000FF;stroke-width:2.0px;stroke-linecap:butt;stroke-linejoin:miter;stroke-opacity:1"/>
<path class="bond-11 atom-11 atom-12" d="M 110.0,130.3 L 115.4,131.7" style="fill:none;fill-rule:evenodd;stroke:#0000FF;stroke-width:2.0px;stroke-linecap:butt;stroke-linejoin:miter;stroke-opacity:1"/>
<path class="bond-11 atom-11 atom-12" d="M 115.4,131.7 L 120.8,133.1" style="fill:none;fill-rule:evenodd;stroke:#000000;stroke-width:2.0px;stroke-linecap:butt;stroke-linejoin:miter;stroke-opacity:1"/>
<path class="bond-12 atom-12 atom-13" d="M 120.8,133.1 L 124.5,129.5" style="fill:none;fill-rule:evenodd;stroke:#000000;stroke-width:2.0px;stroke-linecap:butt;stroke-linejoin:miter;stroke-opacity:1"/>
<path class="bond-12 atom-12 atom-13" d="M 124.5,129.5 L 128.1,125.8" style="fill:none;fill-rule:evenodd;stroke:#0000FF;stroke-width:2.0px;stroke-linecap:butt;stroke-linejoin:miter;stroke-opacity:1"/>
<path class="bond-12 atom-12 atom-13" d="M 120.2,130.9 L 123.5,127.7" style="fill:none;fill-rule:evenodd;stroke:#000000;stroke-width:2.0px;stroke-linecap:butt;stroke-linejoin:miter;stroke-opacity:1"/>
<path class="bond-12 atom-12 atom-13" d="M 123.5,127.7 L 126.7,124.4" style="fill:none;fill-rule:evenodd;stroke:#0000FF;stroke-width:2.0px;stroke-linecap:butt;stroke-linejoin:miter;stroke-opacity:1"/>
<path class="bond-13 atom-13 atom-14" d="M 129.5,121.2 L 128.1,116.1" style="fill:none;fill-rule:evenodd;stroke:#0000FF;stroke-width:2.0px;stroke-linecap:butt;stroke-linejoin:miter;stroke-opacity:1"/>
<path class="bond-13 atom-13 atom-14" d="M 128.1,116.1 L 126.7,110.9" style="fill:none;fill-rule:evenodd;stroke:#000000;stroke-width:2.0px;stroke-linecap:butt;stroke-linejoin:miter;stroke-opacity:1"/>
<path class="bond-14 atom-14 atom-15" d="M 126.7,110.9 L 130.4,107.3" style="fill:none;fill-rule:evenodd;stroke:#000000;stroke-width:2.0px;stroke-linecap:butt;stroke-linejoin:miter;stroke-opacity:1"/>
<path class="bond-14 atom-14 atom-15" d="M 130.4,107.3 L 134.1,103.6" style="fill:none;fill-rule:evenodd;stroke:#0000FF;stroke-width:2.0px;stroke-linecap:butt;stroke-linejoin:miter;stroke-opacity:1"/>
<path class="bond-15 atom-15 atom-16" d="M 138.2,102.1 L 143.6,103.5" style="fill:none;fill-rule:evenodd;stroke:#0000FF;stroke-width:2.0px;stroke-linecap:butt;stroke-linejoin:miter;stroke-opacity:1"/>
<path class="bond-15 atom-15 atom-16" d="M 143.6,103.5 L 148.9,105.0" style="fill:none;fill-rule:evenodd;stroke:#000000;stroke-width:2.0px;stroke-linecap:butt;stroke-linejoin:miter;stroke-opacity:1"/>
<path class="bond-16 atom-16 atom-17" d="M 148.9,105.0 L 152.4,117.8" style="fill:none;fill-rule:evenodd;stroke:#000000;stroke-width:2.0px;stroke-linecap:butt;stroke-linejoin:miter;stroke-opacity:1"/>
<path class="bond-16 atom-16 atom-17" d="M 151.2,105.5 L 154.0,116.1" style="fill:none;fill-rule:evenodd;stroke:#000000;stroke-width:2.0px;stroke-linecap:butt;stroke-linejoin:miter;stroke-opacity:1"/>
<path class="bond-17 atom-17 atom-18" d="M 152.4,117.8 L 165.2,121.2" style="fill:none;fill-rule:evenodd;stroke:#000000;stroke-width:2.0px;stroke-linecap:butt;stroke-linejoin:miter;stroke-opacity:1"/>
<path class="bond-18 atom-18 atom-19" d="M 165.2,121.2 L 174.6,111.8" style="fill:none;fill-rule:evenodd;stroke:#000000;stroke-width:2.0px;stroke-linecap:butt;stroke-linejoin:miter;stroke-opacity:1"/>
<path class="bond-18 atom-18 atom-19" d="M 164.6,119.0 L 172.4,111.2" style="fill:none;fill-rule:evenodd;stroke:#000000;stroke-width:2.0px;stroke-linecap:butt;stroke-linejoin:miter;stroke-opacity:1"/>
<path class="bond-19 atom-19 atom-20" d="M 174.6,111.8 L 180.1,113.2" style="fill:none;fill-rule:evenodd;stroke:#000000;stroke-width:2.0px;stroke-linecap:butt;stroke-linejoin:miter;stroke-opacity:1"/>
<path class="bond-19 atom-19 atom-20" d="M 180.1,113.2 L 185.5,114.7" style="fill:none;fill-rule:evenodd;stroke:#7F4C19;stroke-width:2.0px;stroke-linecap:butt;stroke-linejoin:miter;stroke-opacity:1"/>
<path class="bond-20 atom-19 atom-21" d="M 174.6,111.8 L 171.1,99.0" style="fill:none;fill-rule:evenodd;stroke:#000000;stroke-width:2.0px;stroke-linecap:butt;stroke-linejoin:miter;stroke-opacity:1"/>
<path class="bond-21 atom-21 atom-22" d="M 171.1,99.0 L 158.3,95.6" style="fill:none;fill-rule:evenodd;stroke:#000000;stroke-width:2.0px;stroke-linecap:butt;stroke-linejoin:miter;stroke-opacity:1"/>
<path class="bond-21 atom-21 atom-22" d="M 169.5,100.6 L 158.9,97.8" style="fill:none;fill-rule:evenodd;stroke:#000000;stroke-width:2.0px;stroke-linecap:butt;stroke-linejoin:miter;stroke-opacity:1"/>
<path class="bond-22 atom-22 atom-23" d="M 158.3,95.6 L 156.9,90.4" style="fill:none;fill-rule:evenodd;stroke:#000000;stroke-width:2.0px;stroke-linecap:butt;stroke-linejoin:miter;stroke-opacity:1"/>
<path class="bond-22 atom-22 atom-23" d="M 156.9,90.4 L 155.5,85.3" style="fill:none;fill-rule:evenodd;stroke:#33CCCC;stroke-width:2.0px;stroke-linecap:butt;stroke-linejoin:miter;stroke-opacity:1"/>
<path class="bond-23 atom-14 atom-24" d="M 126.7,110.9 L 113.9,107.5" style="fill:none;fill-rule:evenodd;stroke:#000000;stroke-width:2.0px;stroke-linecap:butt;stroke-linejoin:miter;stroke-opacity:1"/>
<path class="bond-23 atom-14 atom-24" d="M 125.1,112.6 L 114.5,109.7" style="fill:none;fill-rule:evenodd;stroke:#000000;stroke-width:2.0px;stroke-linecap:butt;stroke-linejoin:miter;stroke-opacity:1"/>
<path class="bond-24 atom-24 atom-25" d="M 113.9,107.5 L 110.5,94.7" style="fill:none;fill-rule:evenodd;stroke:#000000;stroke-width:2.0px;stroke-linecap:butt;stroke-linejoin:miter;stroke-opacity:1"/>
<path class="bond-25 atom-25 atom-26" d="M 110.5,94.7 L 97.6,91.3" style="fill:none;fill-rule:evenodd;stroke:#000000;stroke-width:2.0px;stroke-linecap:butt;stroke-linejoin:miter;stroke-opacity:1"/>
<path class="bond-25 atom-25 atom-26" d="M 108.8,96.3 L 98.2,93.5" style="fill:none;fill-rule:evenodd;stroke:#000000;stroke-width:2.0px;stroke-linecap:butt;stroke-linejoin:miter;stroke-opacity:1"/>
<path class="bond-26 atom-26 atom-27" d="M 97.6,91.3 L 96.3,86.2" style="fill:none;fill-rule:evenodd;stroke:#000000;stroke-width:2.0px;stroke-linecap:butt;stroke-linejoin:miter;stroke-opacity:1"/>
<path class="bond-26 atom-26 atom-27" d="M 96.3,86.2 L 94.9,81.0" style="fill:none;fill-rule:evenodd;stroke:#0000FF;stroke-width:2.0px;stroke-linecap:butt;stroke-linejoin:miter;stroke-opacity:1"/>
<path class="bond-27 atom-27 atom-28" d="M 96.2,76.4 L 99.9,72.7" style="fill:none;fill-rule:evenodd;stroke:#0000FF;stroke-width:2.0px;stroke-linecap:butt;stroke-linejoin:miter;stroke-opacity:1"/>
<path class="bond-27 atom-27 atom-28" d="M 99.9,72.7 L 103.6,69.1" style="fill:none;fill-rule:evenodd;stroke:#000000;stroke-width:2.0px;stroke-linecap:butt;stroke-linejoin:miter;stroke-opacity:1"/>
<path class="bond-28 atom-28 atom-29" d="M 102.8,69.9 L 108.3,71.3" style="fill:none;fill-rule:evenodd;stroke:#000000;stroke-width:2.0px;stroke-linecap:butt;stroke-linejoin:miter;stroke-opacity:1"/>
<path class="bond-28 atom-28 atom-29" d="M 108.3,71.3 L 113.7,72.8" style="fill:none;fill-rule:evenodd;stroke:#FF0000;stroke-width:2.0px;stroke-linecap:butt;stroke-linejoin:miter;stroke-opacity:1"/>
<path class="bond-28 atom-28 atom-29" d="M 103.3,68.0 L 108.8,69.4" style="fill:none;fill-rule:evenodd;stroke:#000000;stroke-width:2.0px;stroke-linecap:butt;stroke-linejoin:miter;stroke-opacity:1"/>
<path class="bond-28 atom-28 atom-29" d="M 108.8,69.4 L 114.3,70.9" style="fill:none;fill-rule:evenodd;stroke:#FF0000;stroke-width:2.0px;stroke-linecap:butt;stroke-linejoin:miter;stroke-opacity:1"/>
<path class="bond-29 atom-28 atom-30" d="M 103.6,69.1 L 100.1,56.3" style="fill:none;fill-rule:evenodd;stroke:#000000;stroke-width:2.0px;stroke-linecap:butt;stroke-linejoin:miter;stroke-opacity:1"/>
<path class="bond-30 atom-30 atom-31" d="M 100.1,56.3 L 109.5,46.9" style="fill:none;fill-rule:evenodd;stroke:#000000;stroke-width:2.0px;stroke-linecap:butt;stroke-linejoin:miter;stroke-opacity:1"/>
<path class="bond-30 atom-30 atom-31" d="M 102.3,56.8 L 110.9,48.3" style="fill:none;fill-rule:evenodd;stroke:#000000;stroke-width:2.0px;stroke-linecap:butt;stroke-linejoin:miter;stroke-opacity:1"/>
<path class="bond-31 atom-26 atom-8" d="M 97.6,91.3 L 88.3,100.7" style="fill:none;fill-rule:evenodd;stroke:#000000;stroke-width:2.0px;stroke-linecap:butt;stroke-linejoin:miter;stroke-opacity:1"/>
<path class="bond-32 atom-24 atom-10" d="M 113.9,107.5 L 104.6,116.9" style="fill:none;fill-rule:evenodd;stroke:#000000;stroke-width:2.0px;stroke-linecap:butt;stroke-linejoin:miter;stroke-opacity:1"/>
<path class="bond-33 atom-22 atom-16" d="M 158.3,95.6 L 148.9,105.0" style="fill:none;fill-rule:evenodd;stroke:#000000;stroke-width:2.0px;stroke-linecap:butt;stroke-linejoin:miter;stroke-opacity:1"/>
<path d="M 21.1,118.4 L 21.7,118.6 L 22.2,118.1" style="fill:none;stroke:#000000;stroke-width:2.0px;stroke-linecap:butt;stroke-linejoin:miter;stroke-opacity:1;"/>
<path d="M 30.6,109.7 L 31.1,109.2 L 31.3,109.3" style="fill:none;stroke:#000000;stroke-width:2.0px;stroke-linecap:butt;stroke-linejoin:miter;stroke-opacity:1;"/>
<path d="M 53.1,103.4 L 53.3,103.2 L 53.9,103.4" style="fill:none;stroke:#000000;stroke-width:2.0px;stroke-linecap:butt;stroke-linejoin:miter;stroke-opacity:1;"/>
<path d="M 65.4,106.5 L 66.1,106.7 L 66.3,106.5" style="fill:none;stroke:#000000;stroke-width:2.0px;stroke-linecap:butt;stroke-linejoin:miter;stroke-opacity:1;"/>
<path d="M 91.6,112.8 L 91.7,113.5 L 92.4,113.7" style="fill:none;stroke:#000000;stroke-width:2.0px;stroke-linecap:butt;stroke-linejoin:miter;stroke-opacity:1;"/>
<path d="M 120.6,133.1 L 120.8,133.1 L 121.0,133.0" style="fill:none;stroke:#000000;stroke-width:2.0px;stroke-linecap:butt;stroke-linejoin:miter;stroke-opacity:1;"/>
<path d="M 152.2,117.1 L 152.4,117.8 L 153.0,117.9" style="fill:none;stroke:#000000;stroke-width:2.0px;stroke-linecap:butt;stroke-linejoin:miter;stroke-opacity:1;"/>
<path d="M 164.6,121.0 L 165.2,121.2 L 165.7,120.7" style="fill:none;stroke:#000000;stroke-width:2.0px;stroke-linecap:butt;stroke-linejoin:miter;stroke-opacity:1;"/>
<path d="M 171.3,99.6 L 171.1,99.0 L 170.5,98.8" style="fill:none;stroke:#000000;stroke-width:2.0px;stroke-linecap:butt;stroke-linejoin:miter;stroke-opacity:1;"/>
<path d="M 110.6,95.3 L 110.5,94.7 L 109.8,94.5" style="fill:none;stroke:#000000;stroke-width:2.0px;stroke-linecap:butt;stroke-linejoin:miter;stroke-opacity:1;"/>
<path d="M 103.4,69.3 L 103.6,69.1 L 103.4,68.4" style="fill:none;stroke:#000000;stroke-width:2.0px;stroke-linecap:butt;stroke-linejoin:miter;stroke-opacity:1;"/>
<path d="M 100.3,56.9 L 100.1,56.3 L 100.6,55.8" style="fill:none;stroke:#000000;stroke-width:2.0px;stroke-linecap:butt;stroke-linejoin:miter;stroke-opacity:1;"/>
<path class="atom-3" d="M 25.7 96.4 Q 25.7 95.4, 26.2 94.8 Q 26.7 94.2, 27.6 94.2 Q 28.6 94.2, 29.1 94.8 Q 29.6 95.4, 29.6 96.4 Q 29.6 97.4, 29.1 98.0 Q 28.5 98.6, 27.6 98.6 Q 26.7 98.6, 26.2 98.0 Q 25.7 97.4, 25.7 96.4 M 27.6 98.1 Q 28.3 98.1, 28.6 97.7 Q 29.0 97.3, 29.0 96.4 Q 29.0 95.6, 28.6 95.2 Q 28.3 94.7, 27.6 94.7 Q 27.0 94.7, 26.6 95.1 Q 26.3 95.6, 26.3 96.4 Q 26.3 97.3, 26.6 97.7 Q 27.0 98.1, 27.6 98.1 " fill="#FF0000"/>
<path class="atom-4" d="M 43.0 110.5 L 44.3 112.8 Q 44.5 113.0, 44.7 113.4 Q 44.9 113.8, 44.9 113.8 L 44.9 110.5 L 45.5 110.5 L 45.5 114.8 L 44.9 114.8 L 43.4 112.3 Q 43.3 112.0, 43.1 111.7 Q 42.9 111.3, 42.8 111.2 L 42.8 114.8 L 42.3 114.8 L 42.3 110.5 L 43.0 110.5 " fill="#0000FF"/>
<path class="atom-4" d="M 42.2 115.2 L 42.8 115.2 L 42.8 117.0 L 45.0 117.0 L 45.0 115.2 L 45.6 115.2 L 45.6 119.4 L 45.0 119.4 L 45.0 117.5 L 42.8 117.5 L 42.8 119.4 L 42.2 119.4 L 42.2 115.2 " fill="#0000FF"/>
<path class="atom-7" d="M 73.5 97.3 Q 73.5 96.2, 74.0 95.7 Q 74.5 95.1, 75.5 95.1 Q 76.4 95.1, 76.9 95.7 Q 77.4 96.2, 77.4 97.3 Q 77.4 98.3, 76.9 98.9 Q 76.4 99.5, 75.5 99.5 Q 74.5 99.5, 74.0 98.9 Q 73.5 98.3, 73.5 97.3 M 75.5 99.0 Q 76.1 99.0, 76.5 98.6 Q 76.8 98.1, 76.8 97.3 Q 76.8 96.4, 76.5 96.0 Q 76.1 95.6, 75.5 95.6 Q 74.8 95.6, 74.5 96.0 Q 74.1 96.4, 74.1 97.3 Q 74.1 98.1, 74.5 98.6 Q 74.8 99.0, 75.5 99.0 " fill="#FF0000"/>
<path class="atom-11" d="M 107.1 127.6 L 108.5 129.8 Q 108.6 130.1, 108.8 130.5 Q 109.0 130.9, 109.0 130.9 L 109.0 127.6 L 109.6 127.6 L 109.6 131.8 L 109.0 131.8 L 107.5 129.4 Q 107.4 129.1, 107.2 128.8 Q 107.0 128.4, 106.9 128.3 L 106.9 131.8 L 106.4 131.8 L 106.4 127.6 L 107.1 127.6 " fill="#0000FF"/>
<path class="atom-13" d="M 129.3 121.6 L 130.6 123.9 Q 130.8 124.1, 131.0 124.5 Q 131.2 124.9, 131.2 124.9 L 131.2 121.6 L 131.8 121.6 L 131.8 125.9 L 131.2 125.9 L 129.7 123.4 Q 129.6 123.1, 129.4 122.8 Q 129.2 122.5, 129.1 122.4 L 129.1 125.9 L 128.6 125.9 L 128.6 121.6 L 129.3 121.6 " fill="#0000FF"/>
<path class="atom-15" d="M 135.2 99.4 L 136.6 101.7 Q 136.7 101.9, 136.9 102.3 Q 137.1 102.7, 137.2 102.7 L 137.2 99.4 L 137.7 99.4 L 137.7 103.7 L 137.1 103.7 L 135.6 101.2 Q 135.5 100.9, 135.3 100.6 Q 135.1 100.3, 135.1 100.1 L 135.1 103.7 L 134.5 103.7 L 134.5 99.4 L 135.2 99.4 " fill="#0000FF"/>
<path class="atom-15" d="M 134.5 94.7 L 135.0 94.7 L 135.0 96.5 L 137.2 96.5 L 137.2 94.7 L 137.8 94.7 L 137.8 99.0 L 137.2 99.0 L 137.2 97.0 L 135.0 97.0 L 135.0 99.0 L 134.5 99.0 L 134.5 94.7 " fill="#0000FF"/>
<path class="atom-20" d="M 188.0 115.1 Q 188.4 115.2, 188.6 115.5 Q 188.8 115.7, 188.8 116.1 Q 188.8 116.7, 188.5 117.0 Q 188.1 117.3, 187.4 117.3 L 186.0 117.3 L 186.0 113.1 L 187.2 113.1 Q 187.9 113.1, 188.3 113.4 Q 188.7 113.7, 188.7 114.2 Q 188.7 114.9, 188.0 115.1 M 186.5 113.6 L 186.5 114.9 L 187.2 114.9 Q 187.6 114.9, 187.8 114.7 Q 188.1 114.6, 188.1 114.2 Q 188.1 113.6, 187.2 113.6 L 186.5 113.6 M 187.4 116.9 Q 187.8 116.9, 188.0 116.7 Q 188.2 116.5, 188.2 116.1 Q 188.2 115.7, 188.0 115.6 Q 187.8 115.4, 187.3 115.4 L 186.5 115.4 L 186.5 116.9 L 187.4 116.9 " fill="#7F4C19"/>
<path class="atom-20" d="M 189.8 114.2 L 189.9 114.7 Q 190.2 114.2, 190.7 114.2 Q 190.9 114.2, 191.1 114.3 L 191.0 114.8 Q 190.8 114.7, 190.6 114.7 Q 190.4 114.7, 190.2 114.8 Q 190.0 114.9, 189.9 115.1 L 189.9 117.3 L 189.4 117.3 L 189.4 114.2 L 189.8 114.2 " fill="#7F4C19"/>
<path class="atom-23" d="M 153.6 80.6 L 156.1 80.6 L 156.1 81.1 L 154.2 81.1 L 154.2 82.4 L 155.9 82.4 L 155.9 82.9 L 154.2 82.9 L 154.2 84.9 L 153.6 84.9 L 153.6 80.6 " fill="#33CCCC"/>
<path class="atom-27" d="M 88.4 76.3 L 89.0 76.3 L 89.0 78.1 L 91.2 78.1 L 91.2 76.3 L 91.8 76.3 L 91.8 80.6 L 91.2 80.6 L 91.2 78.6 L 89.0 78.6 L 89.0 80.6 L 88.4 80.6 L 88.4 76.3 " fill="#0000FF"/>
<path class="atom-27" d="M 93.3 76.3 L 94.7 78.6 Q 94.8 78.8, 95.0 79.2 Q 95.2 79.6, 95.2 79.6 L 95.2 76.3 L 95.8 76.3 L 95.8 80.6 L 95.2 80.6 L 93.7 78.1 Q 93.6 77.8, 93.4 77.5 Q 93.2 77.2, 93.1 77.1 L 93.1 80.6 L 92.6 80.6 L 92.6 76.3 L 93.3 76.3 " fill="#0000FF"/>
<path class="atom-29" d="M 114.4 72.5 Q 114.4 71.5, 114.9 70.9 Q 115.4 70.3, 116.4 70.3 Q 117.3 70.3, 117.8 70.9 Q 118.3 71.5, 118.3 72.5 Q 118.3 73.5, 117.8 74.1 Q 117.3 74.7, 116.4 74.7 Q 115.5 74.7, 114.9 74.1 Q 114.4 73.5, 114.4 72.5 M 116.4 74.2 Q 117.0 74.2, 117.4 73.8 Q 117.7 73.4, 117.7 72.5 Q 117.7 71.7, 117.4 71.2 Q 117.0 70.8, 116.4 70.8 Q 115.7 70.8, 115.4 71.2 Q 115.0 71.7, 115.0 72.5 Q 115.0 73.4, 115.4 73.8 Q 115.7 74.2, 116.4 74.2 " fill="#FF0000"/>
<path class="legend" d="M 68.8 189.2 Q 68.8 186.4, 70.1 184.9 Q 71.4 183.4, 73.9 183.4 Q 76.3 183.4, 77.5 185.0 L 76.5 185.9 Q 75.6 184.7, 73.9 184.7 Q 72.2 184.7, 71.3 185.9 Q 70.4 187.0, 70.4 189.2 Q 70.4 191.4, 71.4 192.6 Q 72.3 193.7, 74.1 193.7 Q 75.4 193.7, 76.8 193.0 L 77.3 194.2 Q 76.7 194.6, 75.8 194.8 Q 74.9 195.0, 73.9 195.0 Q 71.4 195.0, 70.1 193.5 Q 68.8 192.0, 68.8 189.2 " fill="#000000"/>
<path class="legend" d="M 78.7 182.7 L 80.2 182.7 L 80.2 194.9 L 78.7 194.9 L 78.7 182.7 " fill="#000000"/>
<path class="legend" d="M 89.1 186.6 L 89.1 194.9 L 87.8 194.9 L 87.7 193.7 Q 86.6 195.0, 84.9 195.0 Q 83.5 195.0, 82.8 194.3 Q 82.1 193.5, 82.1 192.1 L 82.1 186.6 L 83.6 186.6 L 83.6 192.0 Q 83.6 192.9, 83.9 193.4 Q 84.3 193.8, 85.2 193.8 Q 85.9 193.8, 86.5 193.5 Q 87.2 193.1, 87.6 192.5 L 87.6 186.6 L 89.1 186.6 " fill="#000000"/>
<path class="legend" d="M 91.4 193.2 Q 92.1 193.5, 92.6 193.6 Q 93.1 193.8, 93.7 193.8 Q 94.4 193.8, 94.8 193.4 Q 95.2 193.1, 95.2 192.6 Q 95.2 192.2, 95.0 192.0 Q 94.8 191.7, 94.5 191.6 Q 94.3 191.5, 93.5 191.3 Q 93.4 191.2, 92.7 191.0 Q 92.0 190.7, 91.6 190.2 Q 91.2 189.6, 91.2 188.8 Q 91.2 187.8, 91.9 187.2 Q 92.7 186.5, 94.2 186.5 Q 94.8 186.5, 95.4 186.6 Q 95.9 186.8, 96.5 187.0 L 96.1 188.2 Q 95.6 188.0, 95.1 187.9 Q 94.7 187.7, 94.2 187.7 Q 93.4 187.7, 93.1 188.0 Q 92.7 188.3, 92.7 188.8 Q 92.7 189.3, 93.0 189.5 Q 93.3 189.7, 94.0 189.9 Q 94.1 190.0, 94.3 190.0 L 94.7 190.2 Q 95.3 190.4, 95.7 190.6 Q 96.2 190.9, 96.4 191.3 Q 96.7 191.8, 96.7 192.5 Q 96.7 193.7, 95.9 194.4 Q 95.0 195.0, 93.7 195.0 Q 92.9 195.0, 92.2 194.8 Q 91.6 194.7, 90.9 194.4 L 91.4 193.2 " fill="#000000"/>
<path class="legend" d="M 98.1 187.8 L 98.1 186.6 L 99.7 186.6 L 99.9 184.2 L 101.0 184.2 L 101.0 186.6 L 103.6 186.6 L 103.6 187.8 L 101.0 187.8 L 101.0 192.3 Q 101.0 193.8, 102.2 193.8 Q 102.7 193.8, 103.4 193.5 L 103.7 194.6 Q 102.8 195.0, 102.0 195.0 Q 100.9 195.0, 100.2 194.3 Q 99.5 193.7, 99.5 192.4 L 99.5 187.8 L 98.1 187.8 " fill="#000000"/>
<path class="legend" d="M 104.6 190.7 Q 104.6 188.7, 105.6 187.6 Q 106.6 186.5, 108.5 186.5 Q 110.3 186.5, 111.1 187.6 Q 111.9 188.6, 111.9 190.7 L 111.9 190.9 L 106.1 190.9 Q 106.2 192.3, 106.8 193.1 Q 107.4 193.8, 108.6 193.8 Q 109.2 193.8, 109.8 193.7 Q 110.4 193.5, 111.1 193.2 L 111.6 194.2 Q 110.8 194.6, 110.0 194.8 Q 109.3 195.0, 108.5 195.0 Q 106.7 195.0, 105.6 193.9 Q 104.6 192.7, 104.6 190.7 M 108.5 187.7 Q 107.5 187.7, 106.9 188.2 Q 106.4 188.8, 106.2 189.8 L 110.3 189.8 Q 110.2 188.7, 109.7 188.2 Q 109.3 187.7, 108.5 187.7 " fill="#000000"/>
<path class="legend" d="M 114.2 186.6 L 114.4 187.8 Q 115.3 186.5, 116.7 186.5 Q 117.1 186.5, 117.7 186.6 L 117.5 188.0 Q 116.8 187.8, 116.4 187.8 Q 115.8 187.8, 115.3 188.1 Q 114.9 188.4, 114.5 189.0 L 114.5 194.9 L 113.0 194.9 L 113.0 186.6 L 114.2 186.6 " fill="#000000"/>
<path class="legend" d="" fill="#000000"/>
<path class="legend" d="M 125.0 193.6 L 127.5 193.6 L 127.5 185.1 L 124.7 186.0 L 124.4 185.0 L 127.8 183.5 L 129.0 183.7 L 129.0 193.6 L 131.2 193.6 L 131.2 194.9 L 125.0 194.9 L 125.0 193.6 " fill="#000000"/>
<path class="bond-0 atom-0 atom-1" d="M 335.7,60.2 L 335.2,73.4" style="fill:none;fill-rule:evenodd;stroke:#000000;stroke-width:2.0px;stroke-linecap:butt;stroke-linejoin:miter;stroke-opacity:1"/>
<path class="bond-1 atom-1 atom-2" d="M 335.2,73.4 L 346.4,80.5" style="fill:none;fill-rule:evenodd;stroke:#000000;stroke-width:2.0px;stroke-linecap:butt;stroke-linejoin:miter;stroke-opacity:1"/>
<path class="bond-2 atom-1 atom-3" d="M 335.2,73.4 L 330.4,76.0" style="fill:none;fill-rule:evenodd;stroke:#000000;stroke-width:2.0px;stroke-linecap:butt;stroke-linejoin:miter;stroke-opacity:1"/>
<path class="bond-2 atom-1 atom-3" d="M 330.4,76.0 L 325.5,78.6" style="fill:none;fill-rule:evenodd;stroke:#0000FF;stroke-width:2.0px;stroke-linecap:butt;stroke-linejoin:miter;stroke-opacity:1"/>
<path class="bond-3 atom-3 atom-4" d="M 321.4,78.6 L 313.6,74.8" style="fill:none;fill-rule:evenodd;stroke:#0000FF;stroke-width:2.0px;stroke-linecap:butt;stroke-linejoin:miter;stroke-opacity:1"/>
<path class="bond-4 atom-4 atom-5" d="M 309.5,75.9 L 305.9,79.7" style="fill:none;fill-rule:evenodd;stroke:#0000FF;stroke-width:2.0px;stroke-linecap:butt;stroke-linejoin:miter;stroke-opacity:1"/>
<path class="bond-4 atom-4 atom-5" d="M 305.9,79.7 L 302.3,83.4" style="fill:none;fill-rule:evenodd;stroke:#000000;stroke-width:2.0px;stroke-linecap:butt;stroke-linejoin:miter;stroke-opacity:1"/>
<path class="bond-4 atom-4 atom-5" d="M 310.9,77.3 L 307.8,80.5" style="fill:none;fill-rule:evenodd;stroke:#0000FF;stroke-width:2.0px;stroke-linecap:butt;stroke-linejoin:miter;stroke-opacity:1"/>
<path class="bond-4 atom-4 atom-5" d="M 307.8,80.5 L 304.8,83.7" style="fill:none;fill-rule:evenodd;stroke:#000000;stroke-width:2.0px;stroke-linecap:butt;stroke-linejoin:miter;stroke-opacity:1"/>
<path class="bond-5 atom-5 atom-6" d="M 302.3,83.4 L 289.2,81.5" style="fill:none;fill-rule:evenodd;stroke:#000000;stroke-width:2.0px;stroke-linecap:butt;stroke-linejoin:miter;stroke-opacity:1"/>
<path class="bond-6 atom-6 atom-7" d="M 289.2,81.5 L 284.2,69.2" style="fill:none;fill-rule:evenodd;stroke:#000000;stroke-width:2.0px;stroke-linecap:butt;stroke-linejoin:miter;stroke-opacity:1"/>
<path class="bond-6 atom-6 atom-7" d="M 286.9,81.2 L 282.8,71.0" style="fill:none;fill-rule:evenodd;stroke:#000000;stroke-width:2.0px;stroke-linecap:butt;stroke-linejoin:miter;stroke-opacity:1"/>
<path class="bond-7 atom-7 atom-8" d="M 284.2,69.2 L 271.1,67.4" style="fill:none;fill-rule:evenodd;stroke:#000000;stroke-width:2.0px;stroke-linecap:butt;stroke-linejoin:miter;stroke-opacity:1"/>
<path class="bond-8 atom-8 atom-9" d="M 271.1,67.4 L 262.9,77.8" style="fill:none;fill-rule:evenodd;stroke:#000000;stroke-width:2.0px;stroke-linecap:butt;stroke-linejoin:miter;stroke-opacity:1"/>
<path class="bond-8 atom-8 atom-9" d="M 271.9,69.5 L 265.2,78.1" style="fill:none;fill-rule:evenodd;stroke:#000000;stroke-width:2.0px;stroke-linecap:butt;stroke-linejoin:miter;stroke-opacity:1"/>
<path class="bond-9 atom-9 atom-10" d="M 262.9,77.8 L 267.9,90.1" style="fill:none;fill-rule:evenodd;stroke:#000000;stroke-width:2.0px;stroke-linecap:butt;stroke-linejoin:miter;stroke-opacity:1"/>
<path class="bond-10 atom-10 atom-11" d="M 267.9,90.1 L 264.8,94.0" style="fill:none;fill-rule:evenodd;stroke:#000000;stroke-width:2.0px;stroke-linecap:butt;stroke-linejoin:miter;stroke-opacity:1"/>
<path class="bond-10 atom-10 atom-11" d="M 264.8,94.0 L 261.7,98.0" style="fill:none;fill-rule:evenodd;stroke:#FF0000;stroke-width:2.0px;stroke-linecap:butt;stroke-linejoin:miter;stroke-opacity:1"/>
<path class="bond-11 atom-10 atom-12" d="M 267.9,90.1 L 281.0,92.0" style="fill:none;fill-rule:evenodd;stroke:#000000;stroke-width:2.0px;stroke-linecap:butt;stroke-linejoin:miter;stroke-opacity:1"/>
<path class="bond-11 atom-10 atom-12" d="M 269.3,88.3 L 280.2,89.8" style="fill:none;fill-rule:evenodd;stroke:#000000;stroke-width:2.0px;stroke-linecap:butt;stroke-linejoin:miter;stroke-opacity:1"/>
<path class="bond-12 atom-5 atom-13" d="M 302.3,83.4 L 308.6,95.1" style="fill:none;fill-rule:evenodd;stroke:#000000;stroke-width:2.0px;stroke-linecap:butt;stroke-linejoin:miter;stroke-opacity:1"/>
<path class="bond-13 atom-13 atom-14" d="M 308.6,95.1 L 304.0,107.6" style="fill:none;fill-rule:evenodd;stroke:#000000;stroke-width:2.0px;stroke-linecap:butt;stroke-linejoin:miter;stroke-opacity:1"/>
<path class="bond-13 atom-13 atom-14" d="M 310.0,96.8 L 306.3,107.2" style="fill:none;fill-rule:evenodd;stroke:#000000;stroke-width:2.0px;stroke-linecap:butt;stroke-linejoin:miter;stroke-opacity:1"/>
<path class="bond-14 atom-14 atom-15" d="M 304.0,107.6 L 298.5,108.5" style="fill:none;fill-rule:evenodd;stroke:#000000;stroke-width:2.0px;stroke-linecap:butt;stroke-linejoin:miter;stroke-opacity:1"/>
<path class="bond-14 atom-14 atom-15" d="M 298.5,108.5 L 293.0,109.5" style="fill:none;fill-rule:evenodd;stroke:#0000FF;stroke-width:2.0px;stroke-linecap:butt;stroke-linejoin:miter;stroke-opacity:1"/>
<path class="bond-15 atom-14 atom-16" d="M 304.0,107.6 L 307.2,111.4" style="fill:none;fill-rule:evenodd;stroke:#000000;stroke-width:2.0px;stroke-linecap:butt;stroke-linejoin:miter;stroke-opacity:1"/>
<path class="bond-15 atom-14 atom-16" d="M 307.2,111.4 L 310.5,115.3" style="fill:none;fill-rule:evenodd;stroke:#0000FF;stroke-width:2.0px;stroke-linecap:butt;stroke-linejoin:miter;stroke-opacity:1"/>
<path class="bond-16 atom-16 atom-17" d="M 314.6,117.4 L 320.1,116.4" style="fill:none;fill-rule:evenodd;stroke:#0000FF;stroke-width:2.0px;stroke-linecap:butt;stroke-linejoin:miter;stroke-opacity:1"/>
<path class="bond-16 atom-16 atom-17" d="M 320.1,116.4 L 325.6,115.4" style="fill:none;fill-rule:evenodd;stroke:#000000;stroke-width:2.0px;stroke-linecap:butt;stroke-linejoin:miter;stroke-opacity:1"/>
<path class="bond-16 atom-16 atom-17" d="M 314.2,115.4 L 319.2,114.5" style="fill:none;fill-rule:evenodd;stroke:#0000FF;stroke-width:2.0px;stroke-linecap:butt;stroke-linejoin:miter;stroke-opacity:1"/>
<path class="bond-16 atom-16 atom-17" d="M 319.2,114.5 L 324.1,113.7" style="fill:none;fill-rule:evenodd;stroke:#000000;stroke-width:2.0px;stroke-linecap:butt;stroke-linejoin:miter;stroke-opacity:1"/>
<path class="bond-17 atom-17 atom-18" d="M 325.6,115.4 L 327.4,110.5" style="fill:none;fill-rule:evenodd;stroke:#000000;stroke-width:2.0px;stroke-linecap:butt;stroke-linejoin:miter;stroke-opacity:1"/>
<path class="bond-17 atom-17 atom-18" d="M 327.4,110.5 L 329.2,105.5" style="fill:none;fill-rule:evenodd;stroke:#0000FF;stroke-width:2.0px;stroke-linecap:butt;stroke-linejoin:miter;stroke-opacity:1"/>
<path class="bond-18 atom-18 atom-19" d="M 328.1,100.5 L 324.9,96.6" style="fill:none;fill-rule:evenodd;stroke:#0000FF;stroke-width:2.0px;stroke-linecap:butt;stroke-linejoin:miter;stroke-opacity:1"/>
<path class="bond-18 atom-18 atom-19" d="M 324.9,96.6 L 321.6,92.8" style="fill:none;fill-rule:evenodd;stroke:#000000;stroke-width:2.0px;stroke-linecap:butt;stroke-linejoin:miter;stroke-opacity:1"/>
<path class="bond-18 atom-18 atom-19" d="M 326.6,101.8 L 323.7,98.4" style="fill:none;fill-rule:evenodd;stroke:#0000FF;stroke-width:2.0px;stroke-linecap:butt;stroke-linejoin:miter;stroke-opacity:1"/>
<path class="bond-18 atom-18 atom-19" d="M 323.7,98.4 L 320.8,94.9" style="fill:none;fill-rule:evenodd;stroke:#000000;stroke-width:2.0px;stroke-linecap:butt;stroke-linejoin:miter;stroke-opacity:1"/>
<path class="bond-19 atom-19 atom-3" d="M 321.6,92.8 L 322.4,87.5" style="fill:none;fill-rule:evenodd;stroke:#000000;stroke-width:2.0px;stroke-linecap:butt;stroke-linejoin:miter;stroke-opacity:1"/>
<path class="bond-19 atom-19 atom-3" d="M 322.4,87.5 L 323.1,82.2" style="fill:none;fill-rule:evenodd;stroke:#0000FF;stroke-width:2.0px;stroke-linecap:butt;stroke-linejoin:miter;stroke-opacity:1"/>
<path class="bond-20 atom-12 atom-6" d="M 281.0,92.0 L 289.2,81.5" style="fill:none;fill-rule:evenodd;stroke:#000000;stroke-width:2.0px;stroke-linecap:butt;stroke-linejoin:miter;stroke-opacity:1"/>
<path class="bond-21 atom-19 atom-13" d="M 321.6,92.8 L 308.6,95.1" style="fill:none;fill-rule:evenodd;stroke:#000000;stroke-width:2.0px;stroke-linecap:butt;stroke-linejoin:miter;stroke-opacity:1"/>
<path d="M 284.5,69.8 L 284.2,69.2 L 283.6,69.1" style="fill:none;stroke:#000000;stroke-width:2.0px;stroke-linecap:butt;stroke-linejoin:miter;stroke-opacity:1;"/>
<path d="M 271.7,67.4 L 271.1,67.4 L 270.7,67.9" style="fill:none;stroke:#000000;stroke-width:2.0px;stroke-linecap:butt;stroke-linejoin:miter;stroke-opacity:1;"/>
<path d="M 263.3,77.3 L 262.9,77.8 L 263.2,78.4" style="fill:none;stroke:#000000;stroke-width:2.0px;stroke-linecap:butt;stroke-linejoin:miter;stroke-opacity:1;"/>
<path d="M 280.4,91.9 L 281.0,92.0 L 281.4,91.4" style="fill:none;stroke:#000000;stroke-width:2.0px;stroke-linecap:butt;stroke-linejoin:miter;stroke-opacity:1;"/>
<path d="M 325.3,115.5 L 325.6,115.4 L 325.7,115.2" style="fill:none;stroke:#000000;stroke-width:2.0px;stroke-linecap:butt;stroke-linejoin:miter;stroke-opacity:1;"/>
<path class="atom-3" d="M 322.5 77.5 L 323.9 79.8 Q 324.1 80.0, 324.3 80.4 Q 324.5 80.8, 324.5 80.8 L 324.5 77.5 L 325.1 77.5 L 325.1 81.8 L 324.5 81.8 L 323.0 79.3 Q 322.8 79.0, 322.6 78.7 Q 322.5 78.4, 322.4 78.3 L 322.4 81.8 L 321.9 81.8 L 321.9 77.5 L 322.5 77.5 " fill="#0000FF"/>
<path class="atom-4" d="M 310.6 71.7 L 312.0 73.9 Q 312.1 74.2, 312.4 74.6 Q 312.6 75.0, 312.6 75.0 L 312.6 71.7 L 313.2 71.7 L 313.2 75.9 L 312.6 75.9 L 311.1 73.5 Q 310.9 73.2, 310.7 72.9 Q 310.5 72.5, 310.5 72.4 L 310.5 75.9 L 309.9 75.9 L 309.9 71.7 L 310.6 71.7 " fill="#0000FF"/>
<path class="atom-11" d="M 253.6 98.5 L 254.1 98.5 L 254.1 100.3 L 256.3 100.3 L 256.3 98.5 L 256.9 98.5 L 256.9 102.7 L 256.3 102.7 L 256.3 100.8 L 254.1 100.8 L 254.1 102.7 L 253.6 102.7 L 253.6 98.5 " fill="#FF0000"/>
<path class="atom-11" d="M 257.8 100.6 Q 257.8 99.6, 258.3 99.0 Q 258.8 98.4, 259.7 98.4 Q 260.6 98.4, 261.1 99.0 Q 261.7 99.6, 261.7 100.6 Q 261.7 101.6, 261.1 102.2 Q 260.6 102.8, 259.7 102.8 Q 258.8 102.8, 258.3 102.2 Q 257.8 101.6, 257.8 100.6 M 259.7 102.3 Q 260.3 102.3, 260.7 101.9 Q 261.1 101.4, 261.1 100.6 Q 261.1 99.7, 260.7 99.3 Q 260.3 98.9, 259.7 98.9 Q 259.1 98.9, 258.7 99.3 Q 258.4 99.7, 258.4 100.6 Q 258.4 101.4, 258.7 101.9 Q 259.1 102.3, 259.7 102.3 " fill="#FF0000"/>
<path class="atom-15" d="M 282.7 107.7 L 283.3 107.7 L 283.3 109.5 L 285.5 109.5 L 285.5 107.7 L 286.1 107.7 L 286.1 112.0 L 285.5 112.0 L 285.5 110.0 L 283.3 110.0 L 283.3 112.0 L 282.7 112.0 L 282.7 107.7 " fill="#0000FF"/>
<path class="atom-15" d="M 286.9 111.8 Q 287.0 111.6, 287.2 111.4 Q 287.5 111.3, 287.8 111.3 Q 288.3 111.3, 288.5 111.5 Q 288.7 111.7, 288.7 112.1 Q 288.7 112.5, 288.4 112.9 Q 288.1 113.3, 287.5 113.8 L 288.8 113.8 L 288.8 114.1 L 286.9 114.1 L 286.9 113.8 Q 287.4 113.5, 287.7 113.2 Q 288.0 112.9, 288.2 112.7 Q 288.3 112.4, 288.3 112.2 Q 288.3 111.9, 288.2 111.7 Q 288.1 111.6, 287.8 111.6 Q 287.6 111.6, 287.5 111.7 Q 287.3 111.8, 287.2 112.0 L 286.9 111.8 " fill="#0000FF"/>
<path class="atom-15" d="M 290.0 107.7 L 291.4 110.0 Q 291.5 110.2, 291.8 110.6 Q 292.0 111.0, 292.0 111.0 L 292.0 107.7 L 292.6 107.7 L 292.6 112.0 L 292.0 112.0 L 290.5 109.5 Q 290.3 109.2, 290.1 108.9 Q 289.9 108.6, 289.9 108.5 L 289.9 112.0 L 289.3 112.0 L 289.3 107.7 L 290.0 107.7 " fill="#0000FF"/>
<path class="atom-16" d="M 311.6 115.6 L 313.0 117.8 Q 313.1 118.1, 313.3 118.5 Q 313.6 118.9, 313.6 118.9 L 313.6 115.6 L 314.1 115.6 L 314.1 119.8 L 313.6 119.8 L 312.1 117.4 Q 311.9 117.1, 311.7 116.8 Q 311.5 116.4, 311.5 116.3 L 311.5 119.8 L 310.9 119.8 L 310.9 115.6 L 311.6 115.6 " fill="#0000FF"/>
<path class="atom-18" d="M 329.2 100.8 L 330.6 103.1 Q 330.7 103.3, 331.0 103.7 Q 331.2 104.1, 331.2 104.1 L 331.2 100.8 L 331.8 100.8 L 331.8 105.1 L 331.2 105.1 L 329.7 102.6 Q 329.5 102.3, 329.3 102.0 Q 329.1 101.7, 329.1 101.6 L 329.1 105.1 L 328.5 105.1 L 328.5 100.8 L 329.2 100.8 " fill="#0000FF"/>
<path class="legend" d="M 268.4 189.2 Q 268.4 186.4, 269.7 184.9 Q 271.0 183.4, 273.5 183.4 Q 275.8 183.4, 277.1 185.0 L 276.0 185.9 Q 275.1 184.7, 273.5 184.7 Q 271.8 184.7, 270.9 185.9 Q 270.0 187.0, 270.0 189.2 Q 270.0 191.4, 270.9 192.6 Q 271.9 193.7, 273.7 193.7 Q 274.9 193.7, 276.4 193.0 L 276.8 194.2 Q 276.2 194.6, 275.3 194.8 Q 274.5 195.0, 273.5 195.0 Q 271.0 195.0, 269.7 193.5 Q 268.4 192.0, 268.4 189.2 " fill="#000000"/>
<path class="legend" d="M 278.3 182.7 L 279.7 182.7 L 279.7 194.9 L 278.3 194.9 L 278.3 182.7 " fill="#000000"/>
<path class="legend" d="M 288.6 186.6 L 288.6 194.9 L 287.4 194.9 L 287.2 193.7 Q 286.2 195.0, 284.5 195.0 Q 283.1 195.0, 282.4 194.3 Q 281.7 193.5, 281.7 192.1 L 281.7 186.6 L 283.2 186.6 L 283.2 192.0 Q 283.2 192.9, 283.5 193.4 Q 283.9 193.8, 284.7 193.8 Q 285.5 193.8, 286.1 193.5 Q 286.7 193.1, 287.1 192.5 L 287.1 186.6 L 288.6 186.6 " fill="#000000"/>
<path class="legend" d="M 291.0 193.2 Q 291.7 193.5, 292.2 193.6 Q 292.7 193.8, 293.3 193.8 Q 294.0 193.8, 294.4 193.4 Q 294.8 193.1, 294.8 192.6 Q 294.8 192.2, 294.6 192.0 Q 294.4 191.7, 294.1 191.6 Q 293.9 191.5, 293.1 191.3 Q 293.0 191.2, 292.3 191.0 Q 291.5 190.7, 291.1 190.2 Q 290.8 189.6, 290.8 188.8 Q 290.8 187.8, 291.5 187.2 Q 292.3 186.5, 293.8 186.5 Q 294.4 186.5, 295.0 186.6 Q 295.5 186.8, 296.1 187.0 L 295.7 188.2 Q 295.2 188.0, 294.7 187.9 Q 294.3 187.7, 293.8 187.7 Q 293.0 187.7, 292.7 188.0 Q 292.3 188.3, 292.3 188.8 Q 292.3 189.3, 292.6 189.5 Q 292.9 189.7, 293.5 189.9 Q 293.7 190.0, 293.9 190.0 L 294.3 190.2 Q 294.9 190.4, 295.3 190.6 Q 295.7 190.9, 296.0 191.3 Q 296.3 191.8, 296.3 192.5 Q 296.3 193.7, 295.5 194.4 Q 294.6 195.0, 293.3 195.0 Q 292.5 195.0, 291.8 194.8 Q 291.2 194.7, 290.5 194.4 L 291.0 193.2 " fill="#000000"/>
<path class="legend" d="M 297.7 187.8 L 297.7 186.6 L 299.3 186.6 L 299.5 184.2 L 300.6 184.2 L 300.6 186.6 L 303.2 186.6 L 303.2 187.8 L 300.6 187.8 L 300.6 192.3 Q 300.6 193.8, 301.8 193.8 Q 302.3 193.8, 303.0 193.5 L 303.3 194.6 Q 302.4 195.0, 301.6 195.0 Q 300.5 195.0, 299.8 194.3 Q 299.1 193.7, 299.1 192.4 L 299.1 187.8 L 297.7 187.8 " fill="#000000"/>
<path class="legend" d="M 304.2 190.7 Q 304.2 188.7, 305.2 187.6 Q 306.2 186.5, 308.1 186.5 Q 309.9 186.5, 310.7 187.6 Q 311.5 188.6, 311.5 190.7 L 311.5 190.9 L 305.8 190.9 Q 305.8 192.3, 306.4 193.1 Q 307.0 193.8, 308.2 193.8 Q 308.8 193.8, 309.4 193.7 Q 310.0 193.5, 310.7 193.2 L 311.2 194.2 Q 310.4 194.6, 309.6 194.8 Q 308.9 195.0, 308.1 195.0 Q 306.3 195.0, 305.2 193.9 Q 304.2 192.7, 304.2 190.7 M 308.1 187.7 Q 307.1 187.7, 306.6 188.2 Q 306.0 188.8, 305.8 189.8 L 309.9 189.8 Q 309.8 188.7, 309.4 188.2 Q 308.9 187.7, 308.1 187.7 " fill="#000000"/>
<path class="legend" d="M 313.9 186.6 L 314.0 187.8 Q 314.9 186.5, 316.3 186.5 Q 316.8 186.5, 317.4 186.6 L 317.1 188.0 Q 316.4 187.8, 316.1 187.8 Q 315.4 187.8, 314.9 188.1 Q 314.5 188.4, 314.1 189.0 L 314.1 194.9 L 312.6 194.9 L 312.6 186.6 L 313.9 186.6 " fill="#000000"/>
<path class="legend" d="" fill="#000000"/>
<path class="legend" d="M 324.0 185.7 Q 324.5 184.6, 325.5 184.0 Q 326.4 183.4, 327.8 183.4 Q 329.5 183.4, 330.5 184.3 Q 331.5 185.3, 331.5 186.9 Q 331.5 188.6, 330.2 190.2 Q 329.0 191.7, 326.4 193.6 L 331.6 193.6 L 331.6 194.9 L 324.0 194.9 L 324.0 193.8 Q 326.1 192.3, 327.4 191.2 Q 328.6 190.0, 329.2 189.0 Q 329.9 188.0, 329.9 187.0 Q 329.9 185.9, 329.3 185.3 Q 328.8 184.7, 327.8 184.7 Q 326.9 184.7, 326.3 185.0 Q 325.7 185.4, 325.3 186.2 L 324.0 185.7 " fill="#000000"/>
<path class="bond-0 atom-0 atom-1" d="M 478.5,131.5 L 483.5,133.2" style="fill:none;fill-rule:evenodd;stroke:#000000;stroke-width:2.0px;stroke-linecap:butt;stroke-linejoin:miter;stroke-opacity:1"/>
<path class="bond-0 atom-0 atom-1" d="M 483.5,133.2 L 488.6,135.0" style="fill:none;fill-rule:evenodd;stroke:#FF0000;stroke-width:2.0px;stroke-linecap:butt;stroke-linejoin:miter;stroke-opacity:1"/>
<path class="bond-1 atom-1 atom-2" d="M 493.4,133.7 L 497.2,130.4" style="fill:none;fill-rule:evenodd;stroke:#FF0000;stroke-width:2.0px;stroke-linecap:butt;stroke-linejoin:miter;stroke-opacity:1"/>
<path class="bond-1 atom-1 atom-2" d="M 497.2,130.4 L 501.0,127.0" style="fill:none;fill-rule:evenodd;stroke:#000000;stroke-width:2.0px;stroke-linecap:butt;stroke-linejoin:miter;stroke-opacity:1"/>
<path class="bond-2 atom-2 atom-3" d="M 501.0,127.0 L 513.6,131.3" style="fill:none;fill-rule:evenodd;stroke:#000000;stroke-width:2.0px;stroke-linecap:butt;stroke-linejoin:miter;stroke-opacity:1"/>
<path class="bond-2 atom-2 atom-3" d="M 502.7,125.5 L 513.1,129.1" style="fill:none;fill-rule:evenodd;stroke:#000000;stroke-width:2.0px;stroke-linecap:butt;stroke-linejoin:miter;stroke-opacity:1"/>
<path class="bond-3 atom-3 atom-4" d="M 513.6,131.3 L 523.5,122.6" style="fill:none;fill-rule:evenodd;stroke:#000000;stroke-width:2.0px;stroke-linecap:butt;stroke-linejoin:miter;stroke-opacity:1"/>
<path class="bond-4 atom-4 atom-5" d="M 523.5,122.6 L 528.8,124.4" style="fill:none;fill-rule:evenodd;stroke:#000000;stroke-width:2.0px;stroke-linecap:butt;stroke-linejoin:miter;stroke-opacity:1"/>
<path class="bond-4 atom-4 atom-5" d="M 528.8,124.4 L 534.1,126.1" style="fill:none;fill-rule:evenodd;stroke:#0000FF;stroke-width:2.0px;stroke-linecap:butt;stroke-linejoin:miter;stroke-opacity:1"/>
<path class="bond-4 atom-4 atom-5" d="M 525.3,121.1 L 530.0,122.7" style="fill:none;fill-rule:evenodd;stroke:#000000;stroke-width:2.0px;stroke-linecap:butt;stroke-linejoin:miter;stroke-opacity:1"/>
<path class="bond-4 atom-4 atom-5" d="M 530.0,122.7 L 534.7,124.3" style="fill:none;fill-rule:evenodd;stroke:#0000FF;stroke-width:2.0px;stroke-linecap:butt;stroke-linejoin:miter;stroke-opacity:1"/>
<path class="bond-5 atom-5 atom-6" d="M 538.2,125.1 L 542.1,121.6" style="fill:none;fill-rule:evenodd;stroke:#0000FF;stroke-width:2.0px;stroke-linecap:butt;stroke-linejoin:miter;stroke-opacity:1"/>
<path class="bond-5 atom-5 atom-6" d="M 542.1,121.6 L 546.1,118.1" style="fill:none;fill-rule:evenodd;stroke:#000000;stroke-width:2.0px;stroke-linecap:butt;stroke-linejoin:miter;stroke-opacity:1"/>
<path class="bond-6 atom-6 atom-7" d="M 546.1,118.1 L 545.1,112.9" style="fill:none;fill-rule:evenodd;stroke:#000000;stroke-width:2.0px;stroke-linecap:butt;stroke-linejoin:miter;stroke-opacity:1"/>
<path class="bond-6 atom-6 atom-7" d="M 545.1,112.9 L 544.0,107.6" style="fill:none;fill-rule:evenodd;stroke:#0000FF;stroke-width:2.0px;stroke-linecap:butt;stroke-linejoin:miter;stroke-opacity:1"/>
<path class="bond-6 atom-6 atom-7" d="M 543.9,117.4 L 543.0,112.7" style="fill:none;fill-rule:evenodd;stroke:#000000;stroke-width:2.0px;stroke-linecap:butt;stroke-linejoin:miter;stroke-opacity:1"/>
<path class="bond-6 atom-6 atom-7" d="M 543.0,112.7 L 542.1,108.0" style="fill:none;fill-rule:evenodd;stroke:#0000FF;stroke-width:2.0px;stroke-linecap:butt;stroke-linejoin:miter;stroke-opacity:1"/>
<path class="bond-7 atom-7 atom-8" d="M 541.5,104.4 L 536.2,102.6" style="fill:none;fill-rule:evenodd;stroke:#0000FF;stroke-width:2.0px;stroke-linecap:butt;stroke-linejoin:miter;stroke-opacity:1"/>
<path class="bond-7 atom-7 atom-8" d="M 536.2,102.6 L 530.9,100.8" style="fill:none;fill-rule:evenodd;stroke:#000000;stroke-width:2.0px;stroke-linecap:butt;stroke-linejoin:miter;stroke-opacity:1"/>
<path class="bond-8 atom-8 atom-9" d="M 530.9,100.8 L 529.9,95.6" style="fill:none;fill-rule:evenodd;stroke:#000000;stroke-width:2.0px;stroke-linecap:butt;stroke-linejoin:miter;stroke-opacity:1"/>
<path class="bond-8 atom-8 atom-9" d="M 529.9,95.6 L 528.9,90.4" style="fill:none;fill-rule:evenodd;stroke:#0000FF;stroke-width:2.0px;stroke-linecap:butt;stroke-linejoin:miter;stroke-opacity:1"/>
<path class="bond-9 atom-9 atom-10" d="M 530.4,86.0 L 534.4,82.5" style="fill:none;fill-rule:evenodd;stroke:#0000FF;stroke-width:2.0px;stroke-linecap:butt;stroke-linejoin:miter;stroke-opacity:1"/>
<path class="bond-9 atom-9 atom-10" d="M 534.4,82.5 L 538.3,79.1" style="fill:none;fill-rule:evenodd;stroke:#000000;stroke-width:2.0px;stroke-linecap:butt;stroke-linejoin:miter;stroke-opacity:1"/>
<path class="bond-10 atom-10 atom-11" d="M 538.3,79.1 L 550.9,83.3" style="fill:none;fill-rule:evenodd;stroke:#000000;stroke-width:2.0px;stroke-linecap:butt;stroke-linejoin:miter;stroke-opacity:1"/>
<path class="bond-10 atom-10 atom-11" d="M 540.1,77.5 L 550.5,81.1" style="fill:none;fill-rule:evenodd;stroke:#000000;stroke-width:2.0px;stroke-linecap:butt;stroke-linejoin:miter;stroke-opacity:1"/>
<path class="bond-11 atom-11 atom-12" d="M 550.9,83.3 L 560.9,74.6" style="fill:none;fill-rule:evenodd;stroke:#000000;stroke-width:2.0px;stroke-linecap:butt;stroke-linejoin:miter;stroke-opacity:1"/>
<path class="bond-12 atom-12 atom-13" d="M 560.9,74.6 L 558.3,61.6" style="fill:none;fill-rule:evenodd;stroke:#000000;stroke-width:2.0px;stroke-linecap:butt;stroke-linejoin:miter;stroke-opacity:1"/>
<path class="bond-12 atom-12 atom-13" d="M 558.7,73.8 L 556.6,63.1" style="fill:none;fill-rule:evenodd;stroke:#000000;stroke-width:2.0px;stroke-linecap:butt;stroke-linejoin:miter;stroke-opacity:1"/>
<path class="bond-13 atom-13 atom-14" d="M 558.3,61.6 L 562.5,57.9" style="fill:none;fill-rule:evenodd;stroke:#000000;stroke-width:2.0px;stroke-linecap:butt;stroke-linejoin:miter;stroke-opacity:1"/>
<path class="bond-13 atom-13 atom-14" d="M 562.5,57.9 L 566.6,54.3" style="fill:none;fill-rule:evenodd;stroke:#33CCCC;stroke-width:2.0px;stroke-linecap:butt;stroke-linejoin:miter;stroke-opacity:1"/>
<path class="bond-14 atom-13 atom-15" d="M 558.3,61.6 L 545.7,57.3" style="fill:none;fill-rule:evenodd;stroke:#000000;stroke-width:2.0px;stroke-linecap:butt;stroke-linejoin:miter;stroke-opacity:1"/>
<path class="bond-15 atom-15 atom-16" d="M 545.7,57.3 L 544.7,52.2" style="fill:none;fill-rule:evenodd;stroke:#000000;stroke-width:2.0px;stroke-linecap:butt;stroke-linejoin:miter;stroke-opacity:1"/>
<path class="bond-15 atom-15 atom-16" d="M 544.7,52.2 L 543.7,47.0" style="fill:none;fill-rule:evenodd;stroke:#00CC00;stroke-width:2.0px;stroke-linecap:butt;stroke-linejoin:miter;stroke-opacity:1"/>
<path class="bond-16 atom-15 atom-17" d="M 545.7,57.3 L 535.8,66.0" style="fill:none;fill-rule:evenodd;stroke:#000000;stroke-width:2.0px;stroke-linecap:butt;stroke-linejoin:miter;stroke-opacity:1"/>
<path class="bond-16 atom-15 atom-17" d="M 546.2,59.5 L 537.9,66.8" style="fill:none;fill-rule:evenodd;stroke:#000000;stroke-width:2.0px;stroke-linecap:butt;stroke-linejoin:miter;stroke-opacity:1"/>
<path class="bond-17 atom-8 atom-18" d="M 530.9,100.8 L 521.0,109.6" style="fill:none;fill-rule:evenodd;stroke:#000000;stroke-width:2.0px;stroke-linecap:butt;stroke-linejoin:miter;stroke-opacity:1"/>
<path class="bond-17 atom-8 atom-18" d="M 531.4,103.1 L 523.1,110.3" style="fill:none;fill-rule:evenodd;stroke:#000000;stroke-width:2.0px;stroke-linecap:butt;stroke-linejoin:miter;stroke-opacity:1"/>
<path class="bond-18 atom-18 atom-19" d="M 521.0,109.6 L 508.4,105.3" style="fill:none;fill-rule:evenodd;stroke:#000000;stroke-width:2.0px;stroke-linecap:butt;stroke-linejoin:miter;stroke-opacity:1"/>
<path class="bond-19 atom-19 atom-20" d="M 508.4,105.3 L 498.4,114.0" style="fill:none;fill-rule:evenodd;stroke:#000000;stroke-width:2.0px;stroke-linecap:butt;stroke-linejoin:miter;stroke-opacity:1"/>
<path class="bond-19 atom-19 atom-20" d="M 508.8,107.5 L 500.6,114.8" style="fill:none;fill-rule:evenodd;stroke:#000000;stroke-width:2.0px;stroke-linecap:butt;stroke-linejoin:miter;stroke-opacity:1"/>
<path class="bond-20 atom-20 atom-21" d="M 498.4,114.0 L 493.3,112.3" style="fill:none;fill-rule:evenodd;stroke:#000000;stroke-width:2.0px;stroke-linecap:butt;stroke-linejoin:miter;stroke-opacity:1"/>
<path class="bond-20 atom-20 atom-21" d="M 493.3,112.3 L 488.2,110.6" style="fill:none;fill-rule:evenodd;stroke:#FF0000;stroke-width:2.0px;stroke-linecap:butt;stroke-linejoin:miter;stroke-opacity:1"/>
<path class="bond-21 atom-21 atom-22" d="M 485.3,107.2 L 484.3,102.0" style="fill:none;fill-rule:evenodd;stroke:#FF0000;stroke-width:2.0px;stroke-linecap:butt;stroke-linejoin:miter;stroke-opacity:1"/>
<path class="bond-21 atom-21 atom-22" d="M 484.3,102.0 L 483.3,96.7" style="fill:none;fill-rule:evenodd;stroke:#000000;stroke-width:2.0px;stroke-linecap:butt;stroke-linejoin:miter;stroke-opacity:1"/>
<path class="bond-22 atom-22 atom-23" d="M 483.3,96.7 L 470.7,92.5" style="fill:none;fill-rule:evenodd;stroke:#000000;stroke-width:2.0px;stroke-linecap:butt;stroke-linejoin:miter;stroke-opacity:1"/>
<path class="bond-23 atom-23 atom-24" d="M 470.7,92.5 L 468.1,79.4" style="fill:none;fill-rule:evenodd;stroke:#000000;stroke-width:2.0px;stroke-linecap:butt;stroke-linejoin:miter;stroke-opacity:1"/>
<path class="bond-24 atom-24 atom-25" d="M 468.1,79.4 L 462.9,77.7" style="fill:none;fill-rule:evenodd;stroke:#000000;stroke-width:2.0px;stroke-linecap:butt;stroke-linejoin:miter;stroke-opacity:1"/>
<path class="bond-24 atom-24 atom-25" d="M 462.9,77.7 L 457.6,75.9" style="fill:none;fill-rule:evenodd;stroke:#0000FF;stroke-width:2.0px;stroke-linecap:butt;stroke-linejoin:miter;stroke-opacity:1"/>
<path class="bond-25 atom-25 atom-26" d="M 455.1,72.6 L 454.0,67.4" style="fill:none;fill-rule:evenodd;stroke:#0000FF;stroke-width:2.0px;stroke-linecap:butt;stroke-linejoin:miter;stroke-opacity:1"/>
<path class="bond-25 atom-25 atom-26" d="M 454.0,67.4 L 453.0,62.2" style="fill:none;fill-rule:evenodd;stroke:#000000;stroke-width:2.0px;stroke-linecap:butt;stroke-linejoin:miter;stroke-opacity:1"/>
<path class="bond-26 atom-26 atom-27" d="M 453.0,62.2 L 440.4,57.9" style="fill:none;fill-rule:evenodd;stroke:#000000;stroke-width:2.0px;stroke-linecap:butt;stroke-linejoin:miter;stroke-opacity:1"/>
<path class="bond-27 atom-27 atom-28" d="M 440.4,57.9 L 430.4,66.6" style="fill:none;fill-rule:evenodd;stroke:#000000;stroke-width:2.0px;stroke-linecap:butt;stroke-linejoin:miter;stroke-opacity:1"/>
<path class="bond-28 atom-28 atom-29" d="M 430.4,66.6 L 433.0,79.6" style="fill:none;fill-rule:evenodd;stroke:#000000;stroke-width:2.0px;stroke-linecap:butt;stroke-linejoin:miter;stroke-opacity:1"/>
<path class="bond-29 atom-29 atom-30" d="M 433.0,79.6 L 445.6,83.9" style="fill:none;fill-rule:evenodd;stroke:#000000;stroke-width:2.0px;stroke-linecap:butt;stroke-linejoin:miter;stroke-opacity:1"/>
<path class="bond-30 atom-20 atom-2" d="M 498.4,114.0 L 501.0,127.0" style="fill:none;fill-rule:evenodd;stroke:#000000;stroke-width:2.0px;stroke-linecap:butt;stroke-linejoin:miter;stroke-opacity:1"/>
<path class="bond-31 atom-30 atom-25" d="M 445.6,83.9 L 449.6,80.4" style="fill:none;fill-rule:evenodd;stroke:#000000;stroke-width:2.0px;stroke-linecap:butt;stroke-linejoin:miter;stroke-opacity:1"/>
<path class="bond-31 atom-30 atom-25" d="M 449.6,80.4 L 453.5,77.0" style="fill:none;fill-rule:evenodd;stroke:#0000FF;stroke-width:2.0px;stroke-linecap:butt;stroke-linejoin:miter;stroke-opacity:1"/>
<path class="bond-32 atom-18 atom-4" d="M 521.0,109.6 L 523.5,122.6" style="fill:none;fill-rule:evenodd;stroke:#000000;stroke-width:2.0px;stroke-linecap:butt;stroke-linejoin:miter;stroke-opacity:1"/>
<path class="bond-33 atom-17 atom-10" d="M 535.8,66.0 L 538.3,79.1" style="fill:none;fill-rule:evenodd;stroke:#000000;stroke-width:2.0px;stroke-linecap:butt;stroke-linejoin:miter;stroke-opacity:1"/>
<path d="M 512.9,131.1 L 513.6,131.3 L 514.1,130.9" style="fill:none;stroke:#000000;stroke-width:2.0px;stroke-linecap:butt;stroke-linejoin:miter;stroke-opacity:1;"/>
<path d="M 545.9,118.3 L 546.1,118.1 L 546.0,117.8" style="fill:none;stroke:#000000;stroke-width:2.0px;stroke-linecap:butt;stroke-linejoin:miter;stroke-opacity:1;"/>
<path d="M 550.3,83.1 L 550.9,83.3 L 551.4,82.9" style="fill:none;stroke:#000000;stroke-width:2.0px;stroke-linecap:butt;stroke-linejoin:miter;stroke-opacity:1;"/>
<path d="M 560.4,75.0 L 560.9,74.6 L 560.8,73.9" style="fill:none;stroke:#000000;stroke-width:2.0px;stroke-linecap:butt;stroke-linejoin:miter;stroke-opacity:1;"/>
<path d="M 536.3,65.6 L 535.8,66.0 L 535.9,66.7" style="fill:none;stroke:#000000;stroke-width:2.0px;stroke-linecap:butt;stroke-linejoin:miter;stroke-opacity:1;"/>
<path d="M 509.0,105.5 L 508.4,105.3 L 507.9,105.7" style="fill:none;stroke:#000000;stroke-width:2.0px;stroke-linecap:butt;stroke-linejoin:miter;stroke-opacity:1;"/>
<path d="M 483.3,97.0 L 483.3,96.7 L 482.6,96.5" style="fill:none;stroke:#000000;stroke-width:2.0px;stroke-linecap:butt;stroke-linejoin:miter;stroke-opacity:1;"/>
<path d="M 471.3,92.7 L 470.7,92.5 L 470.6,91.8" style="fill:none;stroke:#000000;stroke-width:2.0px;stroke-linecap:butt;stroke-linejoin:miter;stroke-opacity:1;"/>
<path d="M 468.3,80.1 L 468.1,79.4 L 467.9,79.4" style="fill:none;stroke:#000000;stroke-width:2.0px;stroke-linecap:butt;stroke-linejoin:miter;stroke-opacity:1;"/>
<path d="M 453.0,62.4 L 453.0,62.2 L 452.4,61.9" style="fill:none;stroke:#000000;stroke-width:2.0px;stroke-linecap:butt;stroke-linejoin:miter;stroke-opacity:1;"/>
<path d="M 441.1,58.1 L 440.4,57.9 L 439.9,58.3" style="fill:none;stroke:#000000;stroke-width:2.0px;stroke-linecap:butt;stroke-linejoin:miter;stroke-opacity:1;"/>
<path d="M 430.9,66.2 L 430.4,66.6 L 430.6,67.3" style="fill:none;stroke:#000000;stroke-width:2.0px;stroke-linecap:butt;stroke-linejoin:miter;stroke-opacity:1;"/>
<path d="M 432.9,79.0 L 433.0,79.6 L 433.7,79.9" style="fill:none;stroke:#000000;stroke-width:2.0px;stroke-linecap:butt;stroke-linejoin:miter;stroke-opacity:1;"/>
<path d="M 445.0,83.7 L 445.6,83.9 L 445.8,83.7" style="fill:none;stroke:#000000;stroke-width:2.0px;stroke-linecap:butt;stroke-linejoin:miter;stroke-opacity:1;"/>
<path class="atom-1" d="M 489.1 135.8 Q 489.1 134.8, 489.6 134.2 Q 490.1 133.6, 491.0 133.6 Q 492.0 133.6, 492.5 134.2 Q 493.0 134.8, 493.0 135.8 Q 493.0 136.8, 492.5 137.4 Q 491.9 138.0, 491.0 138.0 Q 490.1 138.0, 489.6 137.4 Q 489.1 136.8, 489.1 135.8 M 491.0 137.5 Q 491.7 137.5, 492.0 137.1 Q 492.4 136.6, 492.4 135.8 Q 492.4 135.0, 492.0 134.5 Q 491.7 134.1, 491.0 134.1 Q 490.4 134.1, 490.0 134.5 Q 489.7 135.0, 489.7 135.8 Q 489.7 136.7, 490.0 137.1 Q 490.4 137.5, 491.0 137.5 " fill="#FF0000"/>
<path class="atom-5" d="M 535.2 124.7 L 536.6 127.0 Q 536.7 127.2, 536.9 127.6 Q 537.1 128.0, 537.2 128.0 L 537.2 124.7 L 537.7 124.7 L 537.7 129.0 L 537.1 129.0 L 535.6 126.5 Q 535.5 126.2, 535.3 125.9 Q 535.1 125.6, 535.0 125.5 L 535.0 129.0 L 534.5 129.0 L 534.5 124.7 L 535.2 124.7 " fill="#0000FF"/>
<path class="atom-7" d="M 542.6 103.0 L 544.0 105.2 Q 544.1 105.4, 544.3 105.8 Q 544.5 106.2, 544.6 106.3 L 544.6 103.0 L 545.1 103.0 L 545.1 107.2 L 544.5 107.2 L 543.0 104.7 Q 542.9 104.5, 542.7 104.1 Q 542.5 103.8, 542.5 103.7 L 542.5 107.2 L 541.9 107.2 L 541.9 103.0 L 542.6 103.0 " fill="#0000FF"/>
<path class="atom-9" d="M 522.6 85.7 L 523.2 85.7 L 523.2 87.5 L 525.3 87.5 L 525.3 85.7 L 525.9 85.7 L 525.9 89.9 L 525.3 89.9 L 525.3 88.0 L 523.2 88.0 L 523.2 89.9 L 522.6 89.9 L 522.6 85.7 " fill="#0000FF"/>
<path class="atom-9" d="M 527.4 85.7 L 528.8 87.9 Q 529.0 88.1, 529.2 88.5 Q 529.4 88.9, 529.4 89.0 L 529.4 85.7 L 530.0 85.7 L 530.0 89.9 L 529.4 89.9 L 527.9 87.5 Q 527.7 87.2, 527.5 86.8 Q 527.4 86.5, 527.3 86.4 L 527.3 89.9 L 526.8 89.9 L 526.8 85.7 L 527.4 85.7 " fill="#0000FF"/>
<path class="atom-14" d="M 567.0 50.7 L 569.6 50.7 L 569.6 51.2 L 567.6 51.2 L 567.6 52.5 L 569.3 52.5 L 569.3 53.0 L 567.6 53.0 L 567.6 54.9 L 567.0 54.9 L 567.0 50.7 " fill="#33CCCC"/>
<path class="atom-16" d="M 541.5 44.4 Q 541.5 43.4, 542.0 42.8 Q 542.5 42.3, 543.5 42.3 Q 544.3 42.3, 544.8 42.9 L 544.4 43.2 Q 544.1 42.8, 543.5 42.8 Q 542.8 42.8, 542.5 43.2 Q 542.1 43.6, 542.1 44.4 Q 542.1 45.3, 542.5 45.7 Q 542.8 46.1, 543.5 46.1 Q 544.0 46.1, 544.5 45.8 L 544.7 46.3 Q 544.5 46.4, 544.2 46.5 Q 543.8 46.6, 543.4 46.6 Q 542.5 46.6, 542.0 46.0 Q 541.5 45.5, 541.5 44.4 " fill="#00CC00"/>
<path class="atom-16" d="M 545.2 42.0 L 545.8 42.0 L 545.8 46.6 L 545.2 46.6 L 545.2 42.0 " fill="#00CC00"/>
<path class="atom-21" d="M 483.9 109.8 Q 483.9 108.7, 484.4 108.2 Q 484.9 107.6, 485.9 107.6 Q 486.8 107.6, 487.3 108.2 Q 487.8 108.7, 487.8 109.8 Q 487.8 110.8, 487.3 111.4 Q 486.8 112.0, 485.9 112.0 Q 484.9 112.0, 484.4 111.4 Q 483.9 110.8, 483.9 109.8 M 485.9 111.5 Q 486.5 111.5, 486.9 111.1 Q 487.2 110.6, 487.2 109.8 Q 487.2 108.9, 486.9 108.5 Q 486.5 108.1, 485.9 108.1 Q 485.2 108.1, 484.9 108.5 Q 484.5 108.9, 484.5 109.8 Q 484.5 110.6, 484.9 111.1 Q 485.2 111.5, 485.9 111.5 " fill="#FF0000"/>
<path class="atom-25" d="M 454.6 73.1 L 456.0 75.3 Q 456.2 75.5, 456.4 75.9 Q 456.6 76.3, 456.6 76.4 L 456.6 73.1 L 457.2 73.1 L 457.2 77.3 L 456.6 77.3 L 455.1 74.8 Q 454.9 74.6, 454.7 74.2 Q 454.6 73.9, 454.5 73.8 L 454.5 77.3 L 454.0 77.3 L 454.0 73.1 L 454.6 73.1 " fill="#0000FF"/>
<path class="legend" d="M 468.4 189.2 Q 468.4 186.3, 469.7 184.9 Q 471.0 183.4, 473.5 183.4 Q 475.9 183.4, 477.1 185.0 L 476.0 185.9 Q 475.1 184.7, 473.5 184.7 Q 471.8 184.7, 470.9 185.8 Q 470.0 187.0, 470.0 189.2 Q 470.0 191.4, 470.9 192.6 Q 471.9 193.7, 473.7 193.7 Q 474.9 193.7, 476.4 193.0 L 476.8 194.2 Q 476.3 194.5, 475.4 194.8 Q 474.5 195.0, 473.5 195.0 Q 471.0 195.0, 469.7 193.5 Q 468.4 192.0, 468.4 189.2 " fill="#000000"/>
<path class="legend" d="M 478.3 182.7 L 479.7 182.7 L 479.7 194.8 L 478.3 194.8 L 478.3 182.7 " fill="#000000"/>
<path class="legend" d="M 488.7 186.6 L 488.7 194.8 L 487.4 194.8 L 487.2 193.7 Q 486.2 195.0, 484.5 195.0 Q 483.1 195.0, 482.4 194.2 Q 481.7 193.5, 481.7 192.1 L 481.7 186.6 L 483.2 186.6 L 483.2 191.9 Q 483.2 192.9, 483.5 193.4 Q 483.9 193.8, 484.7 193.8 Q 485.5 193.8, 486.1 193.5 Q 486.7 193.1, 487.1 192.5 L 487.1 186.6 L 488.7 186.6 " fill="#000000"/>
<path class="legend" d="M 491.0 193.1 Q 491.7 193.4, 492.2 193.6 Q 492.7 193.7, 493.3 193.7 Q 494.0 193.7, 494.4 193.4 Q 494.8 193.1, 494.8 192.5 Q 494.8 192.2, 494.6 191.9 Q 494.4 191.7, 494.1 191.6 Q 493.9 191.5, 493.1 191.2 Q 493.0 191.2, 492.3 191.0 Q 491.6 190.7, 491.2 190.2 Q 490.8 189.6, 490.8 188.8 Q 490.8 187.8, 491.5 187.1 Q 492.3 186.5, 493.8 186.5 Q 494.4 186.5, 495.0 186.6 Q 495.5 186.8, 496.1 187.0 L 495.7 188.2 Q 495.2 188.0, 494.7 187.8 Q 494.3 187.7, 493.8 187.7 Q 493.0 187.7, 492.7 188.0 Q 492.3 188.3, 492.3 188.8 Q 492.3 189.2, 492.6 189.5 Q 492.9 189.7, 493.6 189.9 Q 493.7 190.0, 493.9 190.0 L 494.3 190.2 Q 494.9 190.4, 495.3 190.6 Q 495.7 190.8, 496.0 191.3 Q 496.3 191.8, 496.3 192.5 Q 496.3 193.7, 495.5 194.3 Q 494.6 195.0, 493.3 195.0 Q 492.5 195.0, 491.8 194.8 Q 491.2 194.6, 490.5 194.4 L 491.0 193.1 " fill="#000000"/>
<path class="legend" d="M 497.7 187.8 L 497.7 186.6 L 499.3 186.6 L 499.5 184.2 L 500.7 184.2 L 500.7 186.6 L 503.2 186.6 L 503.2 187.8 L 500.7 187.8 L 500.7 192.3 Q 500.7 193.7, 501.9 193.7 Q 502.3 193.7, 503.0 193.5 L 503.3 194.6 Q 502.4 194.9, 501.6 194.9 Q 500.5 194.9, 499.8 194.3 Q 499.1 193.7, 499.1 192.4 L 499.1 187.8 L 497.7 187.8 " fill="#000000"/>
<path class="legend" d="M 504.2 190.7 Q 504.2 188.7, 505.2 187.6 Q 506.2 186.5, 508.1 186.5 Q 509.9 186.5, 510.7 187.6 Q 511.5 188.6, 511.5 190.7 L 511.5 190.9 L 505.8 190.9 Q 505.8 192.3, 506.4 193.0 Q 507.0 193.8, 508.2 193.8 Q 508.9 193.8, 509.4 193.6 Q 510.0 193.5, 510.8 193.2 L 511.2 194.2 Q 510.4 194.6, 509.6 194.8 Q 508.9 195.0, 508.1 195.0 Q 506.3 195.0, 505.3 193.8 Q 504.2 192.7, 504.2 190.7 M 508.1 187.7 Q 507.1 187.7, 506.6 188.2 Q 506.0 188.7, 505.8 189.8 L 509.9 189.8 Q 509.8 188.7, 509.4 188.2 Q 508.9 187.7, 508.1 187.7 " fill="#000000"/>
<path class="legend" d="M 513.9 186.6 L 514.0 187.8 Q 514.9 186.5, 516.3 186.5 Q 516.8 186.5, 517.4 186.6 L 517.1 188.0 Q 516.4 187.8, 516.1 187.8 Q 515.4 187.8, 514.9 188.1 Q 514.5 188.3, 514.2 189.0 L 514.2 194.8 L 512.7 194.8 L 512.7 186.6 L 513.9 186.6 " fill="#000000"/>
<path class="legend" d="" fill="#000000"/>
<path class="legend" d="M 529.5 188.9 Q 530.6 189.2, 531.1 189.9 Q 531.6 190.6, 531.6 191.7 Q 531.6 192.7, 531.2 193.4 Q 530.7 194.2, 529.8 194.6 Q 528.9 195.0, 527.8 195.0 Q 526.5 195.0, 525.6 194.6 Q 524.7 194.2, 524.0 193.3 L 524.9 192.4 Q 525.6 193.1, 526.2 193.4 Q 526.8 193.7, 527.8 193.7 Q 528.8 193.7, 529.4 193.2 Q 530.0 192.6, 530.0 191.7 Q 530.0 190.6, 529.4 190.1 Q 528.7 189.5, 527.3 189.5 L 526.5 189.5 L 526.5 188.4 L 527.2 188.4 Q 528.5 188.4, 529.1 187.8 Q 529.8 187.3, 529.8 186.3 Q 529.8 185.5, 529.2 185.1 Q 528.7 184.7, 527.8 184.7 Q 526.8 184.7, 526.2 185.0 Q 525.7 185.3, 525.2 186.2 L 524.1 185.6 Q 524.5 184.6, 525.5 184.0 Q 526.4 183.4, 527.8 183.4 Q 529.4 183.4, 530.4 184.2 Q 531.4 185.0, 531.4 186.3 Q 531.4 187.2, 530.9 187.8 Q 530.4 188.5, 529.5 188.9 " fill="#000000"/>
</svg>