<svg xmlns="http://www.w3.org/2000/svg" xmlns:rdkit="http://www.rdkit.org/xml" xmlns:xlink="http://www.w3.org/1999/xlink" version="1.1" baseProfile="full" xml:space="preserve" width="600px" height="200px" viewBox="0 0 600 200">
<!-- END OF HEADER -->
<rect style="opacity:0.0;fill:#FFFFFF;stroke:none" width="600.0" height="200.0" x="0.0" y="0.0"> </rect>
<path class="bond-0 atom-0 atom-1" d="M 9.8,115.9 L 22.5,119.3" style="fill:none;fill-rule:evenodd;stroke:#000000;stroke-width:2.0px;stroke-linecap:butt;stroke-linejoin:miter;stroke-opacity:1"/>
<path class="bond-0 atom-0 atom-1" d="M 10.3,114.0 L 21.9,117.1" style="fill:none;fill-rule:evenodd;stroke:#000000;stroke-width:2.0px;stroke-linecap:butt;stroke-linejoin:miter;stroke-opacity:1"/>
<path class="bond-1 atom-1 atom-2" d="M 22.5,119.3 L 31.7,110.0" style="fill:none;fill-rule:evenodd;stroke:#000000;stroke-width:2.0px;stroke-linecap:butt;stroke-linejoin:miter;stroke-opacity:1"/>
<path class="bond-2 atom-2 atom-3" d="M 32.8,110.3 L 31.4,105.0" style="fill:none;fill-rule:evenodd;stroke:#000000;stroke-width:2.0px;stroke-linecap:butt;stroke-linejoin:miter;stroke-opacity:1"/>
<path class="bond-2 atom-2 atom-3" d="M 31.4,105.0 L 30.0,99.7" style="fill:none;fill-rule:evenodd;stroke:#FF0000;stroke-width:2.0px;stroke-linecap:butt;stroke-linejoin:miter;stroke-opacity:1"/>
<path class="bond-2 atom-2 atom-3" d="M 30.9,110.8 L 29.5,105.5" style="fill:none;fill-rule:evenodd;stroke:#000000;stroke-width:2.0px;stroke-linecap:butt;stroke-linejoin:miter;stroke-opacity:1"/>
<path class="bond-2 atom-2 atom-3" d="M 29.5,105.5 L 28.1,100.2" style="fill:none;fill-rule:evenodd;stroke:#FF0000;stroke-width:2.0px;stroke-linecap:butt;stroke-linejoin:miter;stroke-opacity:1"/>
<path class="bond-3 atom-2 atom-4" d="M 31.7,110.0 L 37.1,111.4" style="fill:none;fill-rule:evenodd;stroke:#000000;stroke-width:2.0px;stroke-linecap:butt;stroke-linejoin:miter;stroke-opacity:1"/>
<path class="bond-3 atom-2 atom-4" d="M 37.1,111.4 L 42.4,112.9" style="fill:none;fill-rule:evenodd;stroke:#0000FF;stroke-width:2.0px;stroke-linecap:butt;stroke-linejoin:miter;stroke-opacity:1"/>
<path class="bond-4 atom-4 atom-5" d="M 46.5,111.4 L 50.1,107.7" style="fill:none;fill-rule:evenodd;stroke:#0000FF;stroke-width:2.0px;stroke-linecap:butt;stroke-linejoin:miter;stroke-opacity:1"/>
<path class="bond-4 atom-4 atom-5" d="M 50.1,107.7 L 53.7,104.1" style="fill:none;fill-rule:evenodd;stroke:#000000;stroke-width:2.0px;stroke-linecap:butt;stroke-linejoin:miter;stroke-opacity:1"/>
<path class="bond-5 atom-5 atom-6" d="M 53.7,104.1 L 66.4,107.5" style="fill:none;fill-rule:evenodd;stroke:#000000;stroke-width:2.0px;stroke-linecap:butt;stroke-linejoin:miter;stroke-opacity:1"/>
<path class="bond-6 atom-6 atom-7" d="M 66.4,107.5 L 69.9,104.0" style="fill:none;fill-rule:evenodd;stroke:#000000;stroke-width:2.0px;stroke-linecap:butt;stroke-linejoin:miter;stroke-opacity:1"/>
<path class="bond-6 atom-6 atom-7" d="M 69.9,104.0 L 73.3,100.6" style="fill:none;fill-rule:evenodd;stroke:#FF0000;stroke-width:2.0px;stroke-linecap:butt;stroke-linejoin:miter;stroke-opacity:1"/>
<path class="bond-7 atom-7 atom-8" d="M 78.1,98.8 L 83.2,100.2" style="fill:none;fill-rule:evenodd;stroke:#FF0000;stroke-width:2.0px;stroke-linecap:butt;stroke-linejoin:miter;stroke-opacity:1"/>
<path class="bond-7 atom-7 atom-8" d="M 83.2,100.2 L 88.4,101.6" style="fill:none;fill-rule:evenodd;stroke:#000000;stroke-width:2.0px;stroke-linecap:butt;stroke-linejoin:miter;stroke-opacity:1"/>
<path class="bond-8 atom-8 atom-9" d="M 88.4,101.6 L 91.8,114.3" style="fill:none;fill-rule:evenodd;stroke:#000000;stroke-width:2.0px;stroke-linecap:butt;stroke-linejoin:miter;stroke-opacity:1"/>
<path class="bond-8 atom-8 atom-9" d="M 90.6,102.2 L 93.4,112.6" style="fill:none;fill-rule:evenodd;stroke:#000000;stroke-width:2.0px;stroke-linecap:butt;stroke-linejoin:miter;stroke-opacity:1"/>
<path class="bond-9 atom-9 atom-10" d="M 91.8,114.3 L 104.5,117.6" style="fill:none;fill-rule:evenodd;stroke:#000000;stroke-width:2.0px;stroke-linecap:butt;stroke-linejoin:miter;stroke-opacity:1"/>
<path class="bond-10 atom-10 atom-11" d="M 104.5,117.6 L 105.8,122.7" style="fill:none;fill-rule:evenodd;stroke:#000000;stroke-width:2.0px;stroke-linecap:butt;stroke-linejoin:miter;stroke-opacity:1"/>
<path class="bond-10 atom-10 atom-11" d="M 105.8,122.7 L 107.2,127.8" style="fill:none;fill-rule:evenodd;stroke:#0000FF;stroke-width:2.0px;stroke-linecap:butt;stroke-linejoin:miter;stroke-opacity:1"/>
<path class="bond-10 atom-10 atom-11" d="M 106.7,118.2 L 107.9,122.7" style="fill:none;fill-rule:evenodd;stroke:#000000;stroke-width:2.0px;stroke-linecap:butt;stroke-linejoin:miter;stroke-opacity:1"/>
<path class="bond-10 atom-10 atom-11" d="M 107.9,122.7 L 109.1,127.3" style="fill:none;fill-rule:evenodd;stroke:#0000FF;stroke-width:2.0px;stroke-linecap:butt;stroke-linejoin:miter;stroke-opacity:1"/>
<path class="bond-11 atom-11 atom-12" d="M 109.9,130.9 L 115.3,132.3" style="fill:none;fill-rule:evenodd;stroke:#0000FF;stroke-width:2.0px;stroke-linecap:butt;stroke-linejoin:miter;stroke-opacity:1"/>
<path class="bond-11 atom-11 atom-12" d="M 115.3,132.3 L 120.6,133.7" style="fill:none;fill-rule:evenodd;stroke:#000000;stroke-width:2.0px;stroke-linecap:butt;stroke-linejoin:miter;stroke-opacity:1"/>
<path class="bond-12 atom-12 atom-13" d="M 120.6,133.7 L 124.2,130.1" style="fill:none;fill-rule:evenodd;stroke:#000000;stroke-width:2.0px;stroke-linecap:butt;stroke-linejoin:miter;stroke-opacity:1"/>
<path class="bond-12 atom-12 atom-13" d="M 124.2,130.1 L 127.8,126.5" style="fill:none;fill-rule:evenodd;stroke:#0000FF;stroke-width:2.0px;stroke-linecap:butt;stroke-linejoin:miter;stroke-opacity:1"/>
<path class="bond-12 atom-12 atom-13" d="M 120.0,131.5 L 123.2,128.3" style="fill:none;fill-rule:evenodd;stroke:#000000;stroke-width:2.0px;stroke-linecap:butt;stroke-linejoin:miter;stroke-opacity:1"/>
<path class="bond-12 atom-12 atom-13" d="M 123.2,128.3 L 126.4,125.1" style="fill:none;fill-rule:evenodd;stroke:#0000FF;stroke-width:2.0px;stroke-linecap:butt;stroke-linejoin:miter;stroke-opacity:1"/>
<path class="bond-13 atom-13 atom-14" d="M 129.2,121.8 L 127.8,116.8" style="fill:none;fill-rule:evenodd;stroke:#0000FF;stroke-width:2.0px;stroke-linecap:butt;stroke-linejoin:miter;stroke-opacity:1"/>
<path class="bond-13 atom-13 atom-14" d="M 127.8,116.8 L 126.5,111.7" style="fill:none;fill-rule:evenodd;stroke:#000000;stroke-width:2.0px;stroke-linecap:butt;stroke-linejoin:miter;stroke-opacity:1"/>
<path class="bond-14 atom-14 atom-15" d="M 126.5,111.7 L 130.1,108.1" style="fill:none;fill-rule:evenodd;stroke:#000000;stroke-width:2.0px;stroke-linecap:butt;stroke-linejoin:miter;stroke-opacity:1"/>
<path class="bond-14 atom-14 atom-15" d="M 130.1,108.1 L 133.7,104.5" style="fill:none;fill-rule:evenodd;stroke:#0000FF;stroke-width:2.0px;stroke-linecap:butt;stroke-linejoin:miter;stroke-opacity:1"/>
<path class="bond-15 atom-15 atom-16" d="M 137.8,103.0 L 143.1,104.4" style="fill:none;fill-rule:evenodd;stroke:#0000FF;stroke-width:2.0px;stroke-linecap:butt;stroke-linejoin:miter;stroke-opacity:1"/>
<path class="bond-15 atom-15 atom-16" d="M 143.1,104.4 L 148.4,105.8" style="fill:none;fill-rule:evenodd;stroke:#000000;stroke-width:2.0px;stroke-linecap:butt;stroke-linejoin:miter;stroke-opacity:1"/>
<path class="bond-16 atom-16 atom-17" d="M 148.4,105.8 L 151.8,118.5" style="fill:none;fill-rule:evenodd;stroke:#000000;stroke-width:2.0px;stroke-linecap:butt;stroke-linejoin:miter;stroke-opacity:1"/>
<path class="bond-16 atom-16 atom-17" d="M 150.6,106.4 L 153.5,116.9" style="fill:none;fill-rule:evenodd;stroke:#000000;stroke-width:2.0px;stroke-linecap:butt;stroke-linejoin:miter;stroke-opacity:1"/>
<path class="bond-17 atom-17 atom-18" d="M 151.8,118.5 L 164.5,121.9" style="fill:none;fill-rule:evenodd;stroke:#000000;stroke-width:2.0px;stroke-linecap:butt;stroke-linejoin:miter;stroke-opacity:1"/>
<path class="bond-18 atom-18 atom-19" d="M 164.5,121.9 L 173.8,112.6" style="fill:none;fill-rule:evenodd;stroke:#000000;stroke-width:2.0px;stroke-linecap:butt;stroke-linejoin:miter;stroke-opacity:1"/>
<path class="bond-18 atom-18 atom-19" d="M 163.9,119.7 L 171.6,112.0" style="fill:none;fill-rule:evenodd;stroke:#000000;stroke-width:2.0px;stroke-linecap:butt;stroke-linejoin:miter;stroke-opacity:1"/>
<path class="bond-19 atom-19 atom-20" d="M 173.8,112.6 L 179.2,114.0" style="fill:none;fill-rule:evenodd;stroke:#000000;stroke-width:2.0px;stroke-linecap:butt;stroke-linejoin:miter;stroke-opacity:1"/>
<path class="bond-19 atom-19 atom-20" d="M 179.2,114.0 L 184.6,115.5" style="fill:none;fill-rule:evenodd;stroke:#7F4C19;stroke-width:2.0px;stroke-linecap:butt;stroke-linejoin:miter;stroke-opacity:1"/>
<path class="bond-20 atom-19 atom-21" d="M 173.8,112.6 L 170.4,99.9" style="fill:none;fill-rule:evenodd;stroke:#000000;stroke-width:2.0px;stroke-linecap:butt;stroke-linejoin:miter;stroke-opacity:1"/>
<path class="bond-21 atom-21 atom-22" d="M 170.4,99.9 L 157.7,96.5" style="fill:none;fill-rule:evenodd;stroke:#000000;stroke-width:2.0px;stroke-linecap:butt;stroke-linejoin:miter;stroke-opacity:1"/>
<path class="bond-21 atom-21 atom-22" d="M 168.8,101.5 L 158.3,98.7" style="fill:none;fill-rule:evenodd;stroke:#000000;stroke-width:2.0px;stroke-linecap:butt;stroke-linejoin:miter;stroke-opacity:1"/>
<path class="bond-22 atom-22 atom-23" d="M 157.7,96.5 L 156.3,91.4" style="fill:none;fill-rule:evenodd;stroke:#000000;stroke-width:2.0px;stroke-linecap:butt;stroke-linejoin:miter;stroke-opacity:1"/>
<path class="bond-22 atom-22 atom-23" d="M 156.3,91.4 L 155.0,86.4" style="fill:none;fill-rule:evenodd;stroke:#33CCCC;stroke-width:2.0px;stroke-linecap:butt;stroke-linejoin:miter;stroke-opacity:1"/>
<path class="bond-23 atom-14 atom-24" d="M 126.5,111.7 L 113.8,108.3" style="fill:none;fill-rule:evenodd;stroke:#000000;stroke-width:2.0px;stroke-linecap:butt;stroke-linejoin:miter;stroke-opacity:1"/>
<path class="bond-23 atom-14 atom-24" d="M 124.9,113.3 L 114.4,110.5" style="fill:none;fill-rule:evenodd;stroke:#000000;stroke-width:2.0px;stroke-linecap:butt;stroke-linejoin:miter;stroke-opacity:1"/>
<path class="bond-24 atom-24 atom-25" d="M 113.8,108.3 L 110.3,95.7" style="fill:none;fill-rule:evenodd;stroke:#000000;stroke-width:2.0px;stroke-linecap:butt;stroke-linejoin:miter;stroke-opacity:1"/>
<path class="bond-25 atom-25 atom-26" d="M 110.3,95.7 L 97.7,92.3" style="fill:none;fill-rule:evenodd;stroke:#000000;stroke-width:2.0px;stroke-linecap:butt;stroke-linejoin:miter;stroke-opacity:1"/>
<path class="bond-25 atom-25 atom-26" d="M 108.7,97.3 L 98.2,94.5" style="fill:none;fill-rule:evenodd;stroke:#000000;stroke-width:2.0px;stroke-linecap:butt;stroke-linejoin:miter;stroke-opacity:1"/>
<path class="bond-26 atom-26 atom-27" d="M 97.7,92.3 L 96.3,87.2" style="fill:none;fill-rule:evenodd;stroke:#000000;stroke-width:2.0px;stroke-linecap:butt;stroke-linejoin:miter;stroke-opacity:1"/>
<path class="bond-26 atom-26 atom-27" d="M 96.3,87.2 L 94.9,82.1" style="fill:none;fill-rule:evenodd;stroke:#0000FF;stroke-width:2.0px;stroke-linecap:butt;stroke-linejoin:miter;stroke-opacity:1"/>
<path class="bond-27 atom-27 atom-28" d="M 96.3,77.5 L 99.9,73.9" style="fill:none;fill-rule:evenodd;stroke:#0000FF;stroke-width:2.0px;stroke-linecap:butt;stroke-linejoin:miter;stroke-opacity:1"/>
<path class="bond-27 atom-27 atom-28" d="M 99.9,73.9 L 103.5,70.3" style="fill:none;fill-rule:evenodd;stroke:#000000;stroke-width:2.0px;stroke-linecap:butt;stroke-linejoin:miter;stroke-opacity:1"/>
<path class="bond-28 atom-28 atom-29" d="M 102.7,71.1 L 108.1,72.5" style="fill:none;fill-rule:evenodd;stroke:#000000;stroke-width:2.0px;stroke-linecap:butt;stroke-linejoin:miter;stroke-opacity:1"/>
<path class="bond-28 atom-28 atom-29" d="M 108.1,72.5 L 113.6,74.0" style="fill:none;fill-rule:evenodd;stroke:#FF0000;stroke-width:2.0px;stroke-linecap:butt;stroke-linejoin:miter;stroke-opacity:1"/>
<path class="bond-28 atom-28 atom-29" d="M 103.2,69.2 L 108.6,70.6" style="fill:none;fill-rule:evenodd;stroke:#000000;stroke-width:2.0px;stroke-linecap:butt;stroke-linejoin:miter;stroke-opacity:1"/>
<path class="bond-28 atom-28 atom-29" d="M 108.6,70.6 L 114.1,72.1" style="fill:none;fill-rule:evenodd;stroke:#FF0000;stroke-width:2.0px;stroke-linecap:butt;stroke-linejoin:miter;stroke-opacity:1"/>
<path class="bond-29 atom-28 atom-30" d="M 103.5,70.3 L 100.1,57.6" style="fill:none;fill-rule:evenodd;stroke:#000000;stroke-width:2.0px;stroke-linecap:butt;stroke-linejoin:miter;stroke-opacity:1"/>
<path class="bond-30 atom-30 atom-31" d="M 100.1,57.6 L 109.4,48.3" style="fill:none;fill-rule:evenodd;stroke:#000000;stroke-width:2.0px;stroke-linecap:butt;stroke-linejoin:miter;stroke-opacity:1"/>
<path class="bond-30 atom-30 atom-31" d="M 102.3,58.2 L 110.8,49.7" style="fill:none;fill-rule:evenodd;stroke:#000000;stroke-width:2.0px;stroke-linecap:butt;stroke-linejoin:miter;stroke-opacity:1"/>
<path class="bond-31 atom-26 atom-8" d="M 97.7,92.3 L 88.4,101.6" style="fill:none;fill-rule:evenodd;stroke:#000000;stroke-width:2.0px;stroke-linecap:butt;stroke-linejoin:miter;stroke-opacity:1"/>
<path class="bond-32 atom-24 atom-10" d="M 113.8,108.3 L 104.5,117.6" style="fill:none;fill-rule:evenodd;stroke:#000000;stroke-width:2.0px;stroke-linecap:butt;stroke-linejoin:miter;stroke-opacity:1"/>
<path class="bond-33 atom-22 atom-16" d="M 157.7,96.5 L 148.4,105.8" style="fill:none;fill-rule:evenodd;stroke:#000000;stroke-width:2.0px;stroke-linecap:butt;stroke-linejoin:miter;stroke-opacity:1"/>
<path d="M 21.8,119.1 L 22.5,119.3 L 22.9,118.9" style="fill:none;stroke:#000000;stroke-width:2.0px;stroke-linecap:butt;stroke-linejoin:miter;stroke-opacity:1;"/>
<path d="M 31.3,110.5 L 31.7,110.0 L 32.0,110.1" style="fill:none;stroke:#000000;stroke-width:2.0px;stroke-linecap:butt;stroke-linejoin:miter;stroke-opacity:1;"/>
<path d="M 53.5,104.3 L 53.7,104.1 L 54.3,104.3" style="fill:none;stroke:#000000;stroke-width:2.0px;stroke-linecap:butt;stroke-linejoin:miter;stroke-opacity:1;"/>
<path d="M 65.8,107.3 L 66.4,107.5 L 66.6,107.3" style="fill:none;stroke:#000000;stroke-width:2.0px;stroke-linecap:butt;stroke-linejoin:miter;stroke-opacity:1;"/>
<path d="M 91.6,113.6 L 91.8,114.3 L 92.4,114.4" style="fill:none;stroke:#000000;stroke-width:2.0px;stroke-linecap:butt;stroke-linejoin:miter;stroke-opacity:1;"/>
<path d="M 120.3,133.6 L 120.6,133.7 L 120.8,133.5" style="fill:none;stroke:#000000;stroke-width:2.0px;stroke-linecap:butt;stroke-linejoin:miter;stroke-opacity:1;"/>
<path d="M 151.7,117.9 L 151.8,118.5 L 152.5,118.7" style="fill:none;stroke:#000000;stroke-width:2.0px;stroke-linecap:butt;stroke-linejoin:miter;stroke-opacity:1;"/>
<path d="M 163.9,121.7 L 164.5,121.9 L 165.0,121.4" style="fill:none;stroke:#000000;stroke-width:2.0px;stroke-linecap:butt;stroke-linejoin:miter;stroke-opacity:1;"/>
<path d="M 170.6,100.5 L 170.4,99.9 L 169.8,99.7" style="fill:none;stroke:#000000;stroke-width:2.0px;stroke-linecap:butt;stroke-linejoin:miter;stroke-opacity:1;"/>
<path d="M 110.5,96.3 L 110.3,95.7 L 109.7,95.5" style="fill:none;stroke:#000000;stroke-width:2.0px;stroke-linecap:butt;stroke-linejoin:miter;stroke-opacity:1;"/>
<path d="M 103.3,70.5 L 103.5,70.3 L 103.3,69.6" style="fill:none;stroke:#000000;stroke-width:2.0px;stroke-linecap:butt;stroke-linejoin:miter;stroke-opacity:1;"/>
<path d="M 100.3,58.2 L 100.1,57.6 L 100.6,57.1" style="fill:none;stroke:#000000;stroke-width:2.0px;stroke-linecap:butt;stroke-linejoin:miter;stroke-opacity:1;"/>
<path class="atom-3" d="M 26.4 97.3 Q 26.4 96.3, 26.9 95.8 Q 27.4 95.2, 28.3 95.2 Q 29.3 95.2, 29.8 95.8 Q 30.3 96.3, 30.3 97.3 Q 30.3 98.4, 29.8 99.0 Q 29.3 99.5, 28.3 99.5 Q 27.4 99.5, 26.9 99.0 Q 26.4 98.4, 26.4 97.3 M 28.3 99.1 Q 29.0 99.1, 29.3 98.6 Q 29.7 98.2, 29.7 97.3 Q 29.7 96.5, 29.3 96.1 Q 29.0 95.7, 28.3 95.7 Q 27.7 95.7, 27.3 96.1 Q 27.0 96.5, 27.0 97.3 Q 27.0 98.2, 27.3 98.6 Q 27.7 99.1, 28.3 99.1 " fill="#FF0000"/>
<path class="atom-4" d="M 43.5 111.3 L 44.9 113.5 Q 45.0 113.7, 45.2 114.2 Q 45.5 114.6, 45.5 114.6 L 45.5 111.3 L 46.0 111.3 L 46.0 115.5 L 45.5 115.5 L 44.0 113.1 Q 43.8 112.8, 43.6 112.4 Q 43.4 112.1, 43.4 112.0 L 43.4 115.5 L 42.8 115.5 L 42.8 111.3 L 43.5 111.3 " fill="#0000FF"/>
<path class="atom-4" d="M 42.8 115.9 L 43.3 115.9 L 43.3 117.8 L 45.5 117.8 L 45.5 115.9 L 46.1 115.9 L 46.1 120.2 L 45.5 120.2 L 45.5 118.2 L 43.3 118.2 L 43.3 120.2 L 42.8 120.2 L 42.8 115.9 " fill="#0000FF"/>
<path class="atom-7" d="M 73.7 98.2 Q 73.7 97.2, 74.2 96.6 Q 74.7 96.0, 75.7 96.0 Q 76.6 96.0, 77.1 96.6 Q 77.6 97.2, 77.6 98.2 Q 77.6 99.2, 77.1 99.8 Q 76.6 100.4, 75.7 100.4 Q 74.7 100.4, 74.2 99.8 Q 73.7 99.2, 73.7 98.2 M 75.7 99.9 Q 76.3 99.9, 76.7 99.5 Q 77.0 99.0, 77.0 98.2 Q 77.0 97.4, 76.7 96.9 Q 76.3 96.5, 75.7 96.5 Q 75.0 96.5, 74.7 96.9 Q 74.3 97.4, 74.3 98.2 Q 74.3 99.1, 74.7 99.5 Q 75.0 99.9, 75.7 99.9 " fill="#FF0000"/>
<path class="atom-11" d="M 107.0 128.2 L 108.4 130.4 Q 108.5 130.7, 108.7 131.1 Q 108.9 131.5, 108.9 131.5 L 108.9 128.2 L 109.5 128.2 L 109.5 132.4 L 108.9 132.4 L 107.4 130.0 Q 107.3 129.7, 107.1 129.4 Q 106.9 129.0, 106.8 128.9 L 106.8 132.4 L 106.3 132.4 L 106.3 128.2 L 107.0 128.2 " fill="#0000FF"/>
<path class="atom-13" d="M 128.9 122.3 L 130.3 124.5 Q 130.5 124.8, 130.7 125.2 Q 130.9 125.6, 130.9 125.6 L 130.9 122.3 L 131.5 122.3 L 131.5 126.5 L 130.9 126.5 L 129.4 124.1 Q 129.2 123.8, 129.0 123.5 Q 128.9 123.1, 128.8 123.0 L 128.8 126.5 L 128.3 126.5 L 128.3 122.3 L 128.9 122.3 " fill="#0000FF"/>
<path class="atom-15" d="M 134.8 100.3 L 136.2 102.5 Q 136.3 102.8, 136.5 103.2 Q 136.8 103.6, 136.8 103.6 L 136.8 100.3 L 137.3 100.3 L 137.3 104.5 L 136.8 104.5 L 135.3 102.1 Q 135.1 101.8, 134.9 101.5 Q 134.7 101.1, 134.7 101.0 L 134.7 104.5 L 134.1 104.5 L 134.1 100.3 L 134.8 100.3 " fill="#0000FF"/>
<path class="atom-15" d="M 134.1 95.6 L 134.6 95.6 L 134.6 97.4 L 136.8 97.4 L 136.8 95.6 L 137.4 95.6 L 137.4 99.9 L 136.8 99.9 L 136.8 97.9 L 134.6 97.9 L 134.6 99.9 L 134.1 99.9 L 134.1 95.6 " fill="#0000FF"/>
<path class="atom-20" d="M 187.1 115.8 Q 187.5 116.0, 187.7 116.2 Q 188.0 116.5, 188.0 116.8 Q 188.0 117.4, 187.6 117.8 Q 187.2 118.1, 186.5 118.1 L 185.1 118.1 L 185.1 113.8 L 186.3 113.8 Q 187.0 113.8, 187.4 114.1 Q 187.8 114.4, 187.8 115.0 Q 187.8 115.6, 187.1 115.8 M 185.6 114.3 L 185.6 115.6 L 186.3 115.6 Q 186.7 115.6, 187.0 115.5 Q 187.2 115.3, 187.2 115.0 Q 187.2 114.3, 186.3 114.3 L 185.6 114.3 M 186.5 117.6 Q 186.9 117.6, 187.1 117.4 Q 187.4 117.2, 187.4 116.8 Q 187.4 116.5, 187.1 116.3 Q 186.9 116.1, 186.4 116.1 L 185.6 116.1 L 185.6 117.6 L 186.5 117.6 " fill="#7F4C19"/>
<path class="atom-20" d="M 188.9 115.0 L 189.0 115.4 Q 189.3 114.9, 189.8 114.9 Q 190.0 114.9, 190.2 115.0 L 190.1 115.5 Q 189.9 115.4, 189.7 115.4 Q 189.5 115.4, 189.3 115.5 Q 189.2 115.6, 189.0 115.9 L 189.0 118.1 L 188.5 118.1 L 188.5 115.0 L 188.9 115.0 " fill="#7F4C19"/>
<path class="atom-23" d="M 153.0 81.7 L 155.6 81.7 L 155.6 82.2 L 153.6 82.2 L 153.6 83.5 L 155.3 83.5 L 155.3 84.0 L 153.6 84.0 L 153.6 85.9 L 153.0 85.9 L 153.0 81.7 " fill="#33CCCC"/>
<path class="atom-27" d="M 88.5 77.5 L 89.0 77.5 L 89.0 79.3 L 91.2 79.3 L 91.2 77.5 L 91.8 77.5 L 91.8 81.7 L 91.2 81.7 L 91.2 79.7 L 89.0 79.7 L 89.0 81.7 L 88.5 81.7 L 88.5 77.5 " fill="#0000FF"/>
<path class="atom-27" d="M 93.3 77.5 L 94.7 79.7 Q 94.8 79.9, 95.1 80.3 Q 95.3 80.7, 95.3 80.8 L 95.3 77.5 L 95.8 77.5 L 95.8 81.7 L 95.3 81.7 L 93.8 79.2 Q 93.6 79.0, 93.4 78.6 Q 93.2 78.3, 93.2 78.2 L 93.2 81.7 L 92.6 81.7 L 92.6 77.5 L 93.3 77.5 " fill="#0000FF"/>
<path class="atom-29" d="M 114.3 73.7 Q 114.3 72.7, 114.8 72.1 Q 115.3 71.5, 116.2 71.5 Q 117.2 71.5, 117.7 72.1 Q 118.2 72.7, 118.2 73.7 Q 118.2 74.7, 117.6 75.3 Q 117.1 75.9, 116.2 75.9 Q 115.3 75.9, 114.8 75.3 Q 114.3 74.7, 114.3 73.7 M 116.2 75.4 Q 116.9 75.4, 117.2 75.0 Q 117.6 74.5, 117.6 73.7 Q 117.6 72.8, 117.2 72.4 Q 116.9 72.0, 116.2 72.0 Q 115.6 72.0, 115.2 72.4 Q 114.9 72.8, 114.9 73.7 Q 114.9 74.5, 115.2 75.0 Q 115.6 75.4, 116.2 75.4 " fill="#FF0000"/>
<path class="legend" d="M 68.8 184.2 Q 68.8 181.4, 70.1 179.9 Q 71.4 178.4, 73.9 178.4 Q 76.3 178.4, 77.5 180.0 L 76.5 180.9 Q 75.6 179.7, 73.9 179.7 Q 72.2 179.7, 71.3 180.9 Q 70.4 182.0, 70.4 184.2 Q 70.4 186.4, 71.4 187.6 Q 72.3 188.7, 74.1 188.7 Q 75.4 188.7, 76.8 188.0 L 77.3 189.2 Q 76.7 189.6, 75.8 189.8 Q 74.9 190.0, 73.9 190.0 Q 71.4 190.0, 70.1 188.5 Q 68.8 187.0, 68.8 184.2 " fill="#000000"/>
<path class="legend" d="M 78.7 177.7 L 80.2 177.7 L 80.2 189.9 L 78.7 189.9 L 78.7 177.7 " fill="#000000"/>
<path class="legend" d="M 89.1 181.6 L 89.1 189.9 L 87.8 189.9 L 87.7 188.7 Q 86.6 190.0, 84.9 190.0 Q 83.5 190.0, 82.8 189.3 Q 82.1 188.5, 82.1 187.1 L 82.1 181.6 L 83.6 181.6 L 83.6 187.0 Q 83.6 187.9, 83.9 188.4 Q 84.3 188.8, 85.2 188.8 Q 85.9 188.8, 86.5 188.5 Q 87.2 188.1, 87.6 187.5 L 87.6 181.6 L 89.1 181.6 " fill="#000000"/>
<path class="legend" d="M 91.4 188.2 Q 92.1 188.5, 92.6 188.6 Q 93.1 188.8, 93.7 188.8 Q 94.4 188.8, 94.8 188.4 Q 95.2 188.1, 95.2 187.6 Q 95.2 187.2, 95.0 187.0 Q 94.8 186.7, 94.5 186.6 Q 94.3 186.5, 93.5 186.3 Q 93.4 186.2, 92.7 186.0 Q 92.0 185.7, 91.6 185.2 Q 91.2 184.6, 91.2 183.8 Q 91.2 182.8, 91.9 182.2 Q 92.7 181.5, 94.2 181.5 Q 94.8 181.5, 95.4 181.6 Q 95.9 181.8, 96.5 182.0 L 96.1 183.2 Q 95.6 183.0, 95.1 182.9 Q 94.7 182.7, 94.2 182.7 Q 93.4 182.7, 93.1 183.0 Q 92.7 183.3, 92.7 183.8 Q 92.7 184.3, 93.0 184.5 Q 93.3 184.7, 94.0 184.9 Q 94.1 185.0, 94.3 185.0 L 94.7 185.2 Q 95.3 185.4, 95.7 185.6 Q 96.2 185.9, 96.4 186.3 Q 96.7 186.8, 96.7 187.5 Q 96.7 188.7, 95.9 189.4 Q 95.0 190.0, 93.7 190.0 Q 92.9 190.0, 92.2 189.8 Q 91.6 189.7, 90.9 189.4 L 91.4 188.2 " fill="#000000"/>
<path class="legend" d="M 98.1 182.8 L 98.1 181.6 L 99.7 181.6 L 99.9 179.2 L 101.0 179.2 L 101.0 181.6 L 103.6 181.6 L 103.6 182.8 L 101.0 182.8 L 101.0 187.3 Q 101.0 188.8, 102.2 188.8 Q 102.7 188.8, 103.4 188.5 L 103.7 189.6 Q 102.8 190.0, 102.0 190.0 Q 100.9 190.0, 100.2 189.3 Q 99.5 188.7, 99.5 187.4 L 99.5 182.8 L 98.1 182.8 " fill="#000000"/>
<path class="legend" d="M 104.6 185.7 Q 104.6 183.7, 105.6 182.6 Q 106.6 181.5, 108.5 181.5 Q 110.3 181.5, 111.1 182.6 Q 111.9 183.6, 111.9 185.7 L 111.9 185.9 L 106.1 185.9 Q 106.2 187.3, 106.8 188.1 Q 107.4 188.8, 108.6 188.8 Q 109.2 188.8, 109.8 188.7 Q 110.4 188.5, 111.1 188.2 L 111.6 189.2 Q 110.8 189.6, 110.0 189.8 Q 109.3 190.0, 108.5 190.0 Q 106.7 190.0, 105.6 188.9 Q 104.6 187.7, 104.6 185.7 M 108.5 182.7 Q 107.5 182.7, 106.9 183.2 Q 106.4 183.8, 106.2 184.8 L 110.3 184.8 Q 110.2 183.7, 109.7 183.2 Q 109.3 182.7, 108.5 182.7 " fill="#000000"/>
<path class="legend" d="M 114.2 181.6 L 114.4 182.8 Q 115.3 181.5, 116.7 181.5 Q 117.1 181.5, 117.7 181.6 L 117.5 183.0 Q 116.8 182.8, 116.4 182.8 Q 115.8 182.8, 115.3 183.1 Q 114.9 183.4, 114.5 184.0 L 114.5 189.9 L 113.0 189.9 L 113.0 181.6 L 114.2 181.6 " fill="#000000"/>
<path class="legend" d="" fill="#000000"/>
<path class="legend" d="M 125.0 188.6 L 127.5 188.6 L 127.5 180.1 L 124.7 181.0 L 124.4 180.0 L 127.8 178.5 L 129.0 178.7 L 129.0 188.6 L 131.2 188.6 L 131.2 189.9 L 125.0 189.9 L 125.0 188.6 " fill="#000000"/>
<path class="bond-0 atom-0 atom-1" d="M 335.3,61.4 L 334.9,74.6" style="fill:none;fill-rule:evenodd;stroke:#000000;stroke-width:2.0px;stroke-linecap:butt;stroke-linejoin:miter;stroke-opacity:1"/>
<path class="bond-1 atom-1 atom-2" d="M 334.9,74.6 L 346.0,81.5" style="fill:none;fill-rule:evenodd;stroke:#000000;stroke-width:2.0px;stroke-linecap:butt;stroke-linejoin:miter;stroke-opacity:1"/>
<path class="bond-2 atom-1 atom-3" d="M 334.9,74.6 L 330.1,77.1" style="fill:none;fill-rule:evenodd;stroke:#000000;stroke-width:2.0px;stroke-linecap:butt;stroke-linejoin:miter;stroke-opacity:1"/>
<path class="bond-2 atom-1 atom-3" d="M 330.1,77.1 L 325.3,79.7" style="fill:none;fill-rule:evenodd;stroke:#0000FF;stroke-width:2.0px;stroke-linecap:butt;stroke-linejoin:miter;stroke-opacity:1"/>
<path class="bond-3 atom-3 atom-4" d="M 321.2,79.7 L 313.5,76.0" style="fill:none;fill-rule:evenodd;stroke:#0000FF;stroke-width:2.0px;stroke-linecap:butt;stroke-linejoin:miter;stroke-opacity:1"/>
<path class="bond-4 atom-4 atom-5" d="M 309.4,77.1 L 305.9,80.8" style="fill:none;fill-rule:evenodd;stroke:#0000FF;stroke-width:2.0px;stroke-linecap:butt;stroke-linejoin:miter;stroke-opacity:1"/>
<path class="bond-4 atom-4 atom-5" d="M 305.9,80.8 L 302.3,84.4" style="fill:none;fill-rule:evenodd;stroke:#000000;stroke-width:2.0px;stroke-linecap:butt;stroke-linejoin:miter;stroke-opacity:1"/>
<path class="bond-4 atom-4 atom-5" d="M 310.8,78.5 L 307.8,81.6" style="fill:none;fill-rule:evenodd;stroke:#0000FF;stroke-width:2.0px;stroke-linecap:butt;stroke-linejoin:miter;stroke-opacity:1"/>
<path class="bond-4 atom-4 atom-5" d="M 307.8,81.6 L 304.7,84.8" style="fill:none;fill-rule:evenodd;stroke:#000000;stroke-width:2.0px;stroke-linecap:butt;stroke-linejoin:miter;stroke-opacity:1"/>
<path class="bond-5 atom-5 atom-6" d="M 302.3,84.4 L 289.3,82.6" style="fill:none;fill-rule:evenodd;stroke:#000000;stroke-width:2.0px;stroke-linecap:butt;stroke-linejoin:miter;stroke-opacity:1"/>
<path class="bond-6 atom-6 atom-7" d="M 289.3,82.6 L 284.4,70.4" style="fill:none;fill-rule:evenodd;stroke:#000000;stroke-width:2.0px;stroke-linecap:butt;stroke-linejoin:miter;stroke-opacity:1"/>
<path class="bond-6 atom-6 atom-7" d="M 287.1,82.3 L 283.0,72.2" style="fill:none;fill-rule:evenodd;stroke:#000000;stroke-width:2.0px;stroke-linecap:butt;stroke-linejoin:miter;stroke-opacity:1"/>
<path class="bond-7 atom-7 atom-8" d="M 284.4,70.4 L 271.4,68.6" style="fill:none;fill-rule:evenodd;stroke:#000000;stroke-width:2.0px;stroke-linecap:butt;stroke-linejoin:miter;stroke-opacity:1"/>
<path class="bond-8 atom-8 atom-9" d="M 271.4,68.6 L 263.3,78.9" style="fill:none;fill-rule:evenodd;stroke:#000000;stroke-width:2.0px;stroke-linecap:butt;stroke-linejoin:miter;stroke-opacity:1"/>
<path class="bond-8 atom-8 atom-9" d="M 272.3,70.7 L 265.6,79.2" style="fill:none;fill-rule:evenodd;stroke:#000000;stroke-width:2.0px;stroke-linecap:butt;stroke-linejoin:miter;stroke-opacity:1"/>
<path class="bond-9 atom-9 atom-10" d="M 263.3,78.9 L 268.2,91.1" style="fill:none;fill-rule:evenodd;stroke:#000000;stroke-width:2.0px;stroke-linecap:butt;stroke-linejoin:miter;stroke-opacity:1"/>
<path class="bond-10 atom-10 atom-11" d="M 268.2,91.1 L 265.2,95.0" style="fill:none;fill-rule:evenodd;stroke:#000000;stroke-width:2.0px;stroke-linecap:butt;stroke-linejoin:miter;stroke-opacity:1"/>
<path class="bond-10 atom-10 atom-11" d="M 265.2,95.0 L 262.2,98.9" style="fill:none;fill-rule:evenodd;stroke:#FF0000;stroke-width:2.0px;stroke-linecap:butt;stroke-linejoin:miter;stroke-opacity:1"/>
<path class="bond-11 atom-10 atom-12" d="M 268.2,91.1 L 281.2,92.9" style="fill:none;fill-rule:evenodd;stroke:#000000;stroke-width:2.0px;stroke-linecap:butt;stroke-linejoin:miter;stroke-opacity:1"/>
<path class="bond-11 atom-10 atom-12" d="M 269.6,89.3 L 280.4,90.8" style="fill:none;fill-rule:evenodd;stroke:#000000;stroke-width:2.0px;stroke-linecap:butt;stroke-linejoin:miter;stroke-opacity:1"/>
<path class="bond-12 atom-5 atom-13" d="M 302.3,84.4 L 308.5,96.0" style="fill:none;fill-rule:evenodd;stroke:#000000;stroke-width:2.0px;stroke-linecap:butt;stroke-linejoin:miter;stroke-opacity:1"/>
<path class="bond-13 atom-13 atom-14" d="M 308.5,96.0 L 304.0,108.4" style="fill:none;fill-rule:evenodd;stroke:#000000;stroke-width:2.0px;stroke-linecap:butt;stroke-linejoin:miter;stroke-opacity:1"/>
<path class="bond-13 atom-13 atom-14" d="M 310.0,97.8 L 306.2,108.0" style="fill:none;fill-rule:evenodd;stroke:#000000;stroke-width:2.0px;stroke-linecap:butt;stroke-linejoin:miter;stroke-opacity:1"/>
<path class="bond-14 atom-14 atom-15" d="M 304.0,108.4 L 298.6,109.3" style="fill:none;fill-rule:evenodd;stroke:#000000;stroke-width:2.0px;stroke-linecap:butt;stroke-linejoin:miter;stroke-opacity:1"/>
<path class="bond-14 atom-14 atom-15" d="M 298.6,109.3 L 293.1,110.3" style="fill:none;fill-rule:evenodd;stroke:#0000FF;stroke-width:2.0px;stroke-linecap:butt;stroke-linejoin:miter;stroke-opacity:1"/>
<path class="bond-15 atom-14 atom-16" d="M 304.0,108.4 L 307.2,112.2" style="fill:none;fill-rule:evenodd;stroke:#000000;stroke-width:2.0px;stroke-linecap:butt;stroke-linejoin:miter;stroke-opacity:1"/>
<path class="bond-15 atom-14 atom-16" d="M 307.2,112.2 L 310.4,116.0" style="fill:none;fill-rule:evenodd;stroke:#0000FF;stroke-width:2.0px;stroke-linecap:butt;stroke-linejoin:miter;stroke-opacity:1"/>
<path class="bond-16 atom-16 atom-17" d="M 314.5,118.1 L 319.9,117.1" style="fill:none;fill-rule:evenodd;stroke:#0000FF;stroke-width:2.0px;stroke-linecap:butt;stroke-linejoin:miter;stroke-opacity:1"/>
<path class="bond-16 atom-16 atom-17" d="M 319.9,117.1 L 325.4,116.2" style="fill:none;fill-rule:evenodd;stroke:#000000;stroke-width:2.0px;stroke-linecap:butt;stroke-linejoin:miter;stroke-opacity:1"/>
<path class="bond-16 atom-16 atom-17" d="M 314.1,116.1 L 319.0,115.3" style="fill:none;fill-rule:evenodd;stroke:#0000FF;stroke-width:2.0px;stroke-linecap:butt;stroke-linejoin:miter;stroke-opacity:1"/>
<path class="bond-16 atom-16 atom-17" d="M 319.0,115.3 L 323.9,114.4" style="fill:none;fill-rule:evenodd;stroke:#000000;stroke-width:2.0px;stroke-linecap:butt;stroke-linejoin:miter;stroke-opacity:1"/>
<path class="bond-17 atom-17 atom-18" d="M 325.4,116.2 L 327.2,111.3" style="fill:none;fill-rule:evenodd;stroke:#000000;stroke-width:2.0px;stroke-linecap:butt;stroke-linejoin:miter;stroke-opacity:1"/>
<path class="bond-17 atom-17 atom-18" d="M 327.2,111.3 L 328.9,106.4" style="fill:none;fill-rule:evenodd;stroke:#0000FF;stroke-width:2.0px;stroke-linecap:butt;stroke-linejoin:miter;stroke-opacity:1"/>
<path class="bond-18 atom-18 atom-19" d="M 327.8,101.4 L 324.6,97.6" style="fill:none;fill-rule:evenodd;stroke:#0000FF;stroke-width:2.0px;stroke-linecap:butt;stroke-linejoin:miter;stroke-opacity:1"/>
<path class="bond-18 atom-18 atom-19" d="M 324.6,97.6 L 321.4,93.7" style="fill:none;fill-rule:evenodd;stroke:#000000;stroke-width:2.0px;stroke-linecap:butt;stroke-linejoin:miter;stroke-opacity:1"/>
<path class="bond-18 atom-18 atom-19" d="M 326.3,102.6 L 323.5,99.3" style="fill:none;fill-rule:evenodd;stroke:#0000FF;stroke-width:2.0px;stroke-linecap:butt;stroke-linejoin:miter;stroke-opacity:1"/>
<path class="bond-18 atom-18 atom-19" d="M 323.5,99.3 L 320.7,95.9" style="fill:none;fill-rule:evenodd;stroke:#000000;stroke-width:2.0px;stroke-linecap:butt;stroke-linejoin:miter;stroke-opacity:1"/>
<path class="bond-19 atom-19 atom-3" d="M 321.4,93.7 L 322.2,88.5" style="fill:none;fill-rule:evenodd;stroke:#000000;stroke-width:2.0px;stroke-linecap:butt;stroke-linejoin:miter;stroke-opacity:1"/>
<path class="bond-19 atom-19 atom-3" d="M 322.2,88.5 L 322.9,83.3" style="fill:none;fill-rule:evenodd;stroke:#0000FF;stroke-width:2.0px;stroke-linecap:butt;stroke-linejoin:miter;stroke-opacity:1"/>
<path class="bond-20 atom-12 atom-6" d="M 281.2,92.9 L 289.3,82.6" style="fill:none;fill-rule:evenodd;stroke:#000000;stroke-width:2.0px;stroke-linecap:butt;stroke-linejoin:miter;stroke-opacity:1"/>
<path class="bond-21 atom-19 atom-13" d="M 321.4,93.7 L 308.5,96.0" style="fill:none;fill-rule:evenodd;stroke:#000000;stroke-width:2.0px;stroke-linecap:butt;stroke-linejoin:miter;stroke-opacity:1"/>
<path d="M 284.7,71.0 L 284.4,70.4 L 283.8,70.3" style="fill:none;stroke:#000000;stroke-width:2.0px;stroke-linecap:butt;stroke-linejoin:miter;stroke-opacity:1;"/>
<path d="M 272.1,68.7 L 271.4,68.6 L 271.0,69.1" style="fill:none;stroke:#000000;stroke-width:2.0px;stroke-linecap:butt;stroke-linejoin:miter;stroke-opacity:1;"/>
<path d="M 263.7,78.4 L 263.3,78.9 L 263.6,79.5" style="fill:none;stroke:#000000;stroke-width:2.0px;stroke-linecap:butt;stroke-linejoin:miter;stroke-opacity:1;"/>
<path d="M 280.6,92.8 L 281.2,92.9 L 281.6,92.4" style="fill:none;stroke:#000000;stroke-width:2.0px;stroke-linecap:butt;stroke-linejoin:miter;stroke-opacity:1;"/>
<path d="M 325.1,116.2 L 325.4,116.2 L 325.5,115.9" style="fill:none;stroke:#000000;stroke-width:2.0px;stroke-linecap:butt;stroke-linejoin:miter;stroke-opacity:1;"/>
<path class="atom-3" d="M 322.3 78.6 L 323.7 80.9 Q 323.9 81.1, 324.1 81.5 Q 324.3 81.9, 324.3 81.9 L 324.3 78.6 L 324.9 78.6 L 324.9 82.9 L 324.3 82.9 L 322.8 80.4 Q 322.6 80.1, 322.4 79.8 Q 322.3 79.5, 322.2 79.4 L 322.2 82.9 L 321.7 82.9 L 321.7 78.6 L 322.3 78.6 " fill="#0000FF"/>
<path class="atom-4" d="M 310.5 72.8 L 311.9 75.1 Q 312.1 75.3, 312.3 75.7 Q 312.5 76.1, 312.5 76.1 L 312.5 72.8 L 313.1 72.8 L 313.1 77.1 L 312.5 77.1 L 311.0 74.6 Q 310.8 74.3, 310.6 74.0 Q 310.5 73.7, 310.4 73.6 L 310.4 77.1 L 309.9 77.1 L 309.9 72.8 L 310.5 72.8 " fill="#0000FF"/>
<path class="atom-11" d="M 254.0 99.4 L 254.6 99.4 L 254.6 101.2 L 256.7 101.2 L 256.7 99.4 L 257.3 99.4 L 257.3 103.6 L 256.7 103.6 L 256.7 101.6 L 254.6 101.6 L 254.6 103.6 L 254.0 103.6 L 254.0 99.4 " fill="#FF0000"/>
<path class="atom-11" d="M 258.2 101.5 Q 258.2 100.4, 258.7 99.9 Q 259.2 99.3, 260.1 99.3 Q 261.1 99.3, 261.6 99.9 Q 262.1 100.4, 262.1 101.5 Q 262.1 102.5, 261.6 103.1 Q 261.1 103.7, 260.1 103.7 Q 259.2 103.7, 258.7 103.1 Q 258.2 102.5, 258.2 101.5 M 260.1 103.2 Q 260.8 103.2, 261.1 102.8 Q 261.5 102.3, 261.5 101.5 Q 261.5 100.6, 261.1 100.2 Q 260.8 99.8, 260.1 99.8 Q 259.5 99.8, 259.1 100.2 Q 258.8 100.6, 258.8 101.5 Q 258.8 102.3, 259.1 102.8 Q 259.5 103.2, 260.1 103.2 " fill="#FF0000"/>
<path class="atom-15" d="M 282.9 108.5 L 283.4 108.5 L 283.4 110.3 L 285.6 110.3 L 285.6 108.5 L 286.2 108.5 L 286.2 112.8 L 285.6 112.8 L 285.6 110.8 L 283.4 110.8 L 283.4 112.8 L 282.9 112.8 L 282.9 108.5 " fill="#0000FF"/>
<path class="atom-15" d="M 287.0 112.6 Q 287.1 112.4, 287.4 112.2 Q 287.6 112.1, 288.0 112.1 Q 288.4 112.1, 288.6 112.3 Q 288.9 112.5, 288.9 112.9 Q 288.9 113.3, 288.5 113.7 Q 288.2 114.1, 287.6 114.6 L 288.9 114.6 L 288.9 114.9 L 287.0 114.9 L 287.0 114.6 Q 287.5 114.3, 287.8 114.0 Q 288.2 113.7, 288.3 113.4 Q 288.5 113.2, 288.5 112.9 Q 288.5 112.7, 288.3 112.5 Q 288.2 112.4, 288.0 112.4 Q 287.7 112.4, 287.6 112.5 Q 287.4 112.6, 287.3 112.8 L 287.0 112.6 " fill="#0000FF"/>
<path class="atom-15" d="M 290.1 108.5 L 291.5 110.8 Q 291.7 111.0, 291.9 111.4 Q 292.1 111.8, 292.1 111.8 L 292.1 108.5 L 292.7 108.5 L 292.7 112.8 L 292.1 112.8 L 290.6 110.3 Q 290.4 110.0, 290.2 109.7 Q 290.1 109.4, 290.0 109.3 L 290.0 112.8 L 289.5 112.8 L 289.5 108.5 L 290.1 108.5 " fill="#0000FF"/>
<path class="atom-16" d="M 311.5 116.3 L 312.9 118.6 Q 313.0 118.8, 313.3 119.2 Q 313.5 119.6, 313.5 119.6 L 313.5 116.3 L 314.1 116.3 L 314.1 120.6 L 313.5 120.6 L 312.0 118.1 Q 311.8 117.8, 311.6 117.5 Q 311.4 117.1, 311.4 117.0 L 311.4 120.6 L 310.8 120.6 L 310.8 116.3 L 311.5 116.3 " fill="#0000FF"/>
<path class="atom-18" d="M 328.9 101.7 L 330.3 103.9 Q 330.5 104.2, 330.7 104.6 Q 330.9 105.0, 330.9 105.0 L 330.9 101.7 L 331.5 101.7 L 331.5 105.9 L 330.9 105.9 L 329.4 103.5 Q 329.2 103.2, 329.1 102.9 Q 328.9 102.5, 328.8 102.4 L 328.8 105.9 L 328.3 105.9 L 328.3 101.7 L 328.9 101.7 " fill="#0000FF"/>
<path class="legend" d="M 268.4 184.2 Q 268.4 181.4, 269.7 179.9 Q 271.0 178.4, 273.5 178.4 Q 275.8 178.4, 277.1 180.0 L 276.0 180.9 Q 275.1 179.7, 273.5 179.7 Q 271.8 179.7, 270.9 180.9 Q 270.0 182.0, 270.0 184.2 Q 270.0 186.4, 270.9 187.6 Q 271.9 188.7, 273.7 188.7 Q 274.9 188.7, 276.4 188.0 L 276.8 189.2 Q 276.2 189.6, 275.3 189.8 Q 274.5 190.0, 273.5 190.0 Q 271.0 190.0, 269.7 188.5 Q 268.4 187.0, 268.4 184.2 " fill="#000000"/>
<path class="legend" d="M 278.3 177.7 L 279.7 177.7 L 279.7 189.9 L 278.3 189.9 L 278.3 177.7 " fill="#000000"/>
<path class="legend" d="M 288.6 181.6 L 288.6 189.9 L 287.4 189.9 L 287.2 188.7 Q 286.2 190.0, 284.5 190.0 Q 283.1 190.0, 282.4 189.3 Q 281.7 188.5, 281.7 187.1 L 281.7 181.6 L 283.2 181.6 L 283.2 187.0 Q 283.2 187.9, 283.5 188.4 Q 283.9 188.8, 284.7 188.8 Q 285.5 188.8, 286.1 188.5 Q 286.7 188.1, 287.1 187.5 L 287.1 181.6 L 288.6 181.6 " fill="#000000"/>
<path class="legend" d="M 291.0 188.2 Q 291.7 188.5, 292.2 188.6 Q 292.7 188.8, 293.3 188.8 Q 294.0 188.8, 294.4 188.4 Q 294.8 188.1, 294.8 187.6 Q 294.8 187.2, 294.6 187.0 Q 294.4 186.7, 294.1 186.6 Q 293.9 186.5, 293.1 186.3 Q 293.0 186.2, 292.3 186.0 Q 291.5 185.7, 291.1 185.2 Q 290.8 184.6, 290.8 183.8 Q 290.8 182.8, 291.5 182.2 Q 292.3 181.5, 293.8 181.5 Q 294.4 181.5, 295.0 181.6 Q 295.5 181.8, 296.1 182.0 L 295.7 183.2 Q 295.2 183.0, 294.7 182.9 Q 294.3 182.7, 293.8 182.7 Q 293.0 182.7, 292.7 183.0 Q 292.3 183.3, 292.3 183.8 Q 292.3 184.3, 292.6 184.5 Q 292.9 184.7, 293.5 184.9 Q 293.7 185.0, 293.9 185.0 L 294.3 185.2 Q 294.9 185.4, 295.3 185.6 Q 295.7 185.9, 296.0 186.3 Q 296.3 186.8, 296.3 187.5 Q 296.3 188.7, 295.5 189.4 Q 294.6 190.0, 293.3 190.0 Q 292.5 190.0, 291.8 189.8 Q 291.2 189.7, 290.5 189.4 L 291.0 188.2 " fill="#000000"/>
<path class="legend" d="M 297.7 182.8 L 297.7 181.6 L 299.3 181.6 L 299.5 179.2 L 300.6 179.2 L 300.6 181.6 L 303.2 181.6 L 303.2 182.8 L 300.6 182.8 L 300.6 187.3 Q 300.6 188.8, 301.8 188.8 Q 302.3 188.8, 303.0 188.5 L 303.3 189.6 Q 302.4 190.0, 301.6 190.0 Q 300.5 190.0, 299.8 189.3 Q 299.1 188.7, 299.1 187.4 L 299.1 182.8 L 297.7 182.8 " fill="#000000"/>
<path class="legend" d="M 304.2 185.7 Q 304.2 183.7, 305.2 182.6 Q 306.2 181.5, 308.1 181.5 Q 309.9 181.5, 310.7 182.6 Q 311.5 183.6, 311.5 185.7 L 311.5 185.9 L 305.8 185.9 Q 305.8 187.3, 306.4 188.1 Q 307.0 188.8, 308.2 188.8 Q 308.8 188.8, 309.4 188.7 Q 310.0 188.5, 310.7 188.2 L 311.2 189.2 Q 310.4 189.6, 309.6 189.8 Q 308.9 190.0, 308.1 190.0 Q 306.3 190.0, 305.2 188.9 Q 304.2 187.7, 304.2 185.7 M 308.1 182.7 Q 307.1 182.7, 306.6 183.2 Q 306.0 183.8, 305.8 184.8 L 309.9 184.8 Q 309.8 183.7, 309.4 183.2 Q 308.9 182.7, 308.1 182.7 " fill="#000000"/>
<path class="legend" d="M 313.9 181.6 L 314.0 182.8 Q 314.9 181.5, 316.3 181.5 Q 316.8 181.5, 317.4 181.6 L 317.1 183.0 Q 316.4 182.8, 316.1 182.8 Q 315.4 182.8, 314.9 183.1 Q 314.5 183.4, 314.1 184.0 L 314.1 189.9 L 312.6 189.9 L 312.6 181.6 L 313.9 181.6 " fill="#000000"/>
<path class="legend" d="" fill="#000000"/>
<path class="legend" d="M 324.0 180.7 Q 324.5 179.6, 325.5 179.0 Q 326.4 178.4, 327.8 178.4 Q 329.5 178.4, 330.5 179.3 Q 331.5 180.3, 331.5 181.9 Q 331.5 183.6, 330.2 185.2 Q 329.0 186.7, 326.4 188.6 L 331.6 188.6 L 331.6 189.9 L 324.0 189.9 L 324.0 188.8 Q 326.1 187.3, 327.4 186.2 Q 328.6 185.0, 329.2 184.0 Q 329.9 183.0, 329.9 182.0 Q 329.9 180.9, 329.3 180.3 Q 328.8 179.7, 327.8 179.7 Q 326.9 179.7, 326.3 180.0 Q 325.7 180.4, 325.3 181.2 L 324.0 180.7 " fill="#000000"/>
<path class="bond-0 atom-0 atom-1" d="M 478.7,132.1 L 483.7,133.8" style="fill:none;fill-rule:evenodd;stroke:#000000;stroke-width:2.0px;stroke-linecap:butt;stroke-linejoin:miter;stroke-opacity:1"/>
<path class="bond-0 atom-0 atom-1" d="M 483.7,133.8 L 488.7,135.5" style="fill:none;fill-rule:evenodd;stroke:#FF0000;stroke-width:2.0px;stroke-linecap:butt;stroke-linejoin:miter;stroke-opacity:1"/>
<path class="bond-1 atom-1 atom-2" d="M 493.5,134.2 L 497.2,131.0" style="fill:none;fill-rule:evenodd;stroke:#FF0000;stroke-width:2.0px;stroke-linecap:butt;stroke-linejoin:miter;stroke-opacity:1"/>
<path class="bond-1 atom-1 atom-2" d="M 497.2,131.0 L 501.0,127.7" style="fill:none;fill-rule:evenodd;stroke:#000000;stroke-width:2.0px;stroke-linecap:butt;stroke-linejoin:miter;stroke-opacity:1"/>
<path class="bond-2 atom-2 atom-3" d="M 501.0,127.7 L 513.4,131.9" style="fill:none;fill-rule:evenodd;stroke:#000000;stroke-width:2.0px;stroke-linecap:butt;stroke-linejoin:miter;stroke-opacity:1"/>
<path class="bond-2 atom-2 atom-3" d="M 502.7,126.2 L 513.0,129.7" style="fill:none;fill-rule:evenodd;stroke:#000000;stroke-width:2.0px;stroke-linecap:butt;stroke-linejoin:miter;stroke-opacity:1"/>
<path class="bond-3 atom-3 atom-4" d="M 513.4,131.9 L 523.3,123.2" style="fill:none;fill-rule:evenodd;stroke:#000000;stroke-width:2.0px;stroke-linecap:butt;stroke-linejoin:miter;stroke-opacity:1"/>
<path class="bond-4 atom-4 atom-5" d="M 523.3,123.2 L 528.5,125.0" style="fill:none;fill-rule:evenodd;stroke:#000000;stroke-width:2.0px;stroke-linecap:butt;stroke-linejoin:miter;stroke-opacity:1"/>
<path class="bond-4 atom-4 atom-5" d="M 528.5,125.0 L 533.7,126.8" style="fill:none;fill-rule:evenodd;stroke:#0000FF;stroke-width:2.0px;stroke-linecap:butt;stroke-linejoin:miter;stroke-opacity:1"/>
<path class="bond-4 atom-4 atom-5" d="M 525.0,121.7 L 529.7,123.3" style="fill:none;fill-rule:evenodd;stroke:#000000;stroke-width:2.0px;stroke-linecap:butt;stroke-linejoin:miter;stroke-opacity:1"/>
<path class="bond-4 atom-4 atom-5" d="M 529.7,123.3 L 534.3,124.9" style="fill:none;fill-rule:evenodd;stroke:#0000FF;stroke-width:2.0px;stroke-linecap:butt;stroke-linejoin:miter;stroke-opacity:1"/>
<path class="bond-5 atom-5 atom-6" d="M 537.8,125.7 L 541.7,122.3" style="fill:none;fill-rule:evenodd;stroke:#0000FF;stroke-width:2.0px;stroke-linecap:butt;stroke-linejoin:miter;stroke-opacity:1"/>
<path class="bond-5 atom-5 atom-6" d="M 541.7,122.3 L 545.6,118.8" style="fill:none;fill-rule:evenodd;stroke:#000000;stroke-width:2.0px;stroke-linecap:butt;stroke-linejoin:miter;stroke-opacity:1"/>
<path class="bond-6 atom-6 atom-7" d="M 545.6,118.8 L 544.6,113.7" style="fill:none;fill-rule:evenodd;stroke:#000000;stroke-width:2.0px;stroke-linecap:butt;stroke-linejoin:miter;stroke-opacity:1"/>
<path class="bond-6 atom-6 atom-7" d="M 544.6,113.7 L 543.6,108.5" style="fill:none;fill-rule:evenodd;stroke:#0000FF;stroke-width:2.0px;stroke-linecap:butt;stroke-linejoin:miter;stroke-opacity:1"/>
<path class="bond-6 atom-6 atom-7" d="M 543.5,118.1 L 542.6,113.5" style="fill:none;fill-rule:evenodd;stroke:#000000;stroke-width:2.0px;stroke-linecap:butt;stroke-linejoin:miter;stroke-opacity:1"/>
<path class="bond-6 atom-6 atom-7" d="M 542.6,113.5 L 541.6,108.9" style="fill:none;fill-rule:evenodd;stroke:#0000FF;stroke-width:2.0px;stroke-linecap:butt;stroke-linejoin:miter;stroke-opacity:1"/>
<path class="bond-7 atom-7 atom-8" d="M 541.0,105.2 L 535.8,103.5" style="fill:none;fill-rule:evenodd;stroke:#0000FF;stroke-width:2.0px;stroke-linecap:butt;stroke-linejoin:miter;stroke-opacity:1"/>
<path class="bond-7 atom-7 atom-8" d="M 535.8,103.5 L 530.6,101.7" style="fill:none;fill-rule:evenodd;stroke:#000000;stroke-width:2.0px;stroke-linecap:butt;stroke-linejoin:miter;stroke-opacity:1"/>
<path class="bond-8 atom-8 atom-9" d="M 530.6,101.7 L 529.6,96.5" style="fill:none;fill-rule:evenodd;stroke:#000000;stroke-width:2.0px;stroke-linecap:butt;stroke-linejoin:miter;stroke-opacity:1"/>
<path class="bond-8 atom-8 atom-9" d="M 529.6,96.5 L 528.6,91.4" style="fill:none;fill-rule:evenodd;stroke:#0000FF;stroke-width:2.0px;stroke-linecap:butt;stroke-linejoin:miter;stroke-opacity:1"/>
<path class="bond-9 atom-9 atom-10" d="M 530.1,87.0 L 534.0,83.6" style="fill:none;fill-rule:evenodd;stroke:#0000FF;stroke-width:2.0px;stroke-linecap:butt;stroke-linejoin:miter;stroke-opacity:1"/>
<path class="bond-9 atom-9 atom-10" d="M 534.0,83.6 L 538.0,80.2" style="fill:none;fill-rule:evenodd;stroke:#000000;stroke-width:2.0px;stroke-linecap:butt;stroke-linejoin:miter;stroke-opacity:1"/>
<path class="bond-10 atom-10 atom-11" d="M 538.0,80.2 L 550.4,84.4" style="fill:none;fill-rule:evenodd;stroke:#000000;stroke-width:2.0px;stroke-linecap:butt;stroke-linejoin:miter;stroke-opacity:1"/>
<path class="bond-10 atom-10 atom-11" d="M 539.7,78.7 L 550.0,82.2" style="fill:none;fill-rule:evenodd;stroke:#000000;stroke-width:2.0px;stroke-linecap:butt;stroke-linejoin:miter;stroke-opacity:1"/>
<path class="bond-11 atom-11 atom-12" d="M 550.4,84.4 L 560.3,75.7" style="fill:none;fill-rule:evenodd;stroke:#000000;stroke-width:2.0px;stroke-linecap:butt;stroke-linejoin:miter;stroke-opacity:1"/>
<path class="bond-12 atom-12 atom-13" d="M 560.3,75.7 L 557.7,62.9" style="fill:none;fill-rule:evenodd;stroke:#000000;stroke-width:2.0px;stroke-linecap:butt;stroke-linejoin:miter;stroke-opacity:1"/>
<path class="bond-12 atom-12 atom-13" d="M 558.1,75.0 L 556.0,64.4" style="fill:none;fill-rule:evenodd;stroke:#000000;stroke-width:2.0px;stroke-linecap:butt;stroke-linejoin:miter;stroke-opacity:1"/>
<path class="bond-13 atom-13 atom-14" d="M 557.7,62.9 L 561.8,59.3" style="fill:none;fill-rule:evenodd;stroke:#000000;stroke-width:2.0px;stroke-linecap:butt;stroke-linejoin:miter;stroke-opacity:1"/>
<path class="bond-13 atom-13 atom-14" d="M 561.8,59.3 L 565.9,55.7" style="fill:none;fill-rule:evenodd;stroke:#33CCCC;stroke-width:2.0px;stroke-linecap:butt;stroke-linejoin:miter;stroke-opacity:1"/>
<path class="bond-14 atom-13 atom-15" d="M 557.7,62.9 L 545.3,58.6" style="fill:none;fill-rule:evenodd;stroke:#000000;stroke-width:2.0px;stroke-linecap:butt;stroke-linejoin:miter;stroke-opacity:1"/>
<path class="bond-15 atom-15 atom-16" d="M 545.3,58.6 L 544.3,53.6" style="fill:none;fill-rule:evenodd;stroke:#000000;stroke-width:2.0px;stroke-linecap:butt;stroke-linejoin:miter;stroke-opacity:1"/>
<path class="bond-15 atom-15 atom-16" d="M 544.3,53.6 L 543.3,48.5" style="fill:none;fill-rule:evenodd;stroke:#00CC00;stroke-width:2.0px;stroke-linecap:butt;stroke-linejoin:miter;stroke-opacity:1"/>
<path class="bond-16 atom-15 atom-17" d="M 545.3,58.6 L 535.4,67.3" style="fill:none;fill-rule:evenodd;stroke:#000000;stroke-width:2.0px;stroke-linecap:butt;stroke-linejoin:miter;stroke-opacity:1"/>
<path class="bond-16 atom-15 atom-17" d="M 545.7,60.9 L 537.6,68.0" style="fill:none;fill-rule:evenodd;stroke:#000000;stroke-width:2.0px;stroke-linecap:butt;stroke-linejoin:miter;stroke-opacity:1"/>
<path class="bond-17 atom-8 atom-18" d="M 530.6,101.7 L 520.7,110.4" style="fill:none;fill-rule:evenodd;stroke:#000000;stroke-width:2.0px;stroke-linecap:butt;stroke-linejoin:miter;stroke-opacity:1"/>
<path class="bond-17 atom-8 atom-18" d="M 531.1,103.9 L 522.9,111.1" style="fill:none;fill-rule:evenodd;stroke:#000000;stroke-width:2.0px;stroke-linecap:butt;stroke-linejoin:miter;stroke-opacity:1"/>
<path class="bond-18 atom-18 atom-19" d="M 520.7,110.4 L 508.3,106.1" style="fill:none;fill-rule:evenodd;stroke:#000000;stroke-width:2.0px;stroke-linecap:butt;stroke-linejoin:miter;stroke-opacity:1"/>
<path class="bond-19 atom-19 atom-20" d="M 508.3,106.1 L 498.4,114.8" style="fill:none;fill-rule:evenodd;stroke:#000000;stroke-width:2.0px;stroke-linecap:butt;stroke-linejoin:miter;stroke-opacity:1"/>
<path class="bond-19 atom-19 atom-20" d="M 508.8,108.4 L 500.6,115.5" style="fill:none;fill-rule:evenodd;stroke:#000000;stroke-width:2.0px;stroke-linecap:butt;stroke-linejoin:miter;stroke-opacity:1"/>
<path class="bond-20 atom-20 atom-21" d="M 498.4,114.8 L 493.4,113.1" style="fill:none;fill-rule:evenodd;stroke:#000000;stroke-width:2.0px;stroke-linecap:butt;stroke-linejoin:miter;stroke-opacity:1"/>
<path class="bond-20 atom-20 atom-21" d="M 493.4,113.1 L 488.4,111.4" style="fill:none;fill-rule:evenodd;stroke:#FF0000;stroke-width:2.0px;stroke-linecap:butt;stroke-linejoin:miter;stroke-opacity:1"/>
<path class="bond-21 atom-21 atom-22" d="M 485.5,108.0 L 484.5,102.8" style="fill:none;fill-rule:evenodd;stroke:#FF0000;stroke-width:2.0px;stroke-linecap:butt;stroke-linejoin:miter;stroke-opacity:1"/>
<path class="bond-21 atom-21 atom-22" d="M 484.5,102.8 L 483.4,97.7" style="fill:none;fill-rule:evenodd;stroke:#000000;stroke-width:2.0px;stroke-linecap:butt;stroke-linejoin:miter;stroke-opacity:1"/>
<path class="bond-22 atom-22 atom-23" d="M 483.4,97.7 L 471.0,93.4" style="fill:none;fill-rule:evenodd;stroke:#000000;stroke-width:2.0px;stroke-linecap:butt;stroke-linejoin:miter;stroke-opacity:1"/>
<path class="bond-23 atom-23 atom-24" d="M 471.0,93.4 L 468.4,80.6" style="fill:none;fill-rule:evenodd;stroke:#000000;stroke-width:2.0px;stroke-linecap:butt;stroke-linejoin:miter;stroke-opacity:1"/>
<path class="bond-24 atom-24 atom-25" d="M 468.4,80.6 L 463.2,78.8" style="fill:none;fill-rule:evenodd;stroke:#000000;stroke-width:2.0px;stroke-linecap:butt;stroke-linejoin:miter;stroke-opacity:1"/>
<path class="bond-24 atom-24 atom-25" d="M 463.2,78.8 L 458.1,77.0" style="fill:none;fill-rule:evenodd;stroke:#0000FF;stroke-width:2.0px;stroke-linecap:butt;stroke-linejoin:miter;stroke-opacity:1"/>
<path class="bond-25 atom-25 atom-26" d="M 455.5,73.8 L 454.5,68.6" style="fill:none;fill-rule:evenodd;stroke:#0000FF;stroke-width:2.0px;stroke-linecap:butt;stroke-linejoin:miter;stroke-opacity:1"/>
<path class="bond-25 atom-25 atom-26" d="M 454.5,68.6 L 453.5,63.4" style="fill:none;fill-rule:evenodd;stroke:#000000;stroke-width:2.0px;stroke-linecap:butt;stroke-linejoin:miter;stroke-opacity:1"/>
<path class="bond-26 atom-26 atom-27" d="M 453.5,63.4 L 441.0,59.2" style="fill:none;fill-rule:evenodd;stroke:#000000;stroke-width:2.0px;stroke-linecap:butt;stroke-linejoin:miter;stroke-opacity:1"/>
<path class="bond-27 atom-27 atom-28" d="M 441.0,59.2 L 431.1,67.9" style="fill:none;fill-rule:evenodd;stroke:#000000;stroke-width:2.0px;stroke-linecap:butt;stroke-linejoin:miter;stroke-opacity:1"/>
<path class="bond-28 atom-28 atom-29" d="M 431.1,67.9 L 433.7,80.7" style="fill:none;fill-rule:evenodd;stroke:#000000;stroke-width:2.0px;stroke-linecap:butt;stroke-linejoin:miter;stroke-opacity:1"/>
<path class="bond-29 atom-29 atom-30" d="M 433.7,80.7 L 446.1,85.0" style="fill:none;fill-rule:evenodd;stroke:#000000;stroke-width:2.0px;stroke-linecap:butt;stroke-linejoin:miter;stroke-opacity:1"/>
<path class="bond-30 atom-20 atom-2" d="M 498.4,114.8 L 501.0,127.7" style="fill:none;fill-rule:evenodd;stroke:#000000;stroke-width:2.0px;stroke-linecap:butt;stroke-linejoin:miter;stroke-opacity:1"/>
<path class="bond-31 atom-30 atom-25" d="M 446.1,85.0 L 450.0,81.5" style="fill:none;fill-rule:evenodd;stroke:#000000;stroke-width:2.0px;stroke-linecap:butt;stroke-linejoin:miter;stroke-opacity:1"/>
<path class="bond-31 atom-30 atom-25" d="M 450.0,81.5 L 454.0,78.1" style="fill:none;fill-rule:evenodd;stroke:#0000FF;stroke-width:2.0px;stroke-linecap:butt;stroke-linejoin:miter;stroke-opacity:1"/>
<path class="bond-32 atom-18 atom-4" d="M 520.7,110.4 L 523.3,123.2" style="fill:none;fill-rule:evenodd;stroke:#000000;stroke-width:2.0px;stroke-linecap:butt;stroke-linejoin:miter;stroke-opacity:1"/>
<path class="bond-33 atom-17 atom-10" d="M 535.4,67.3 L 538.0,80.2" style="fill:none;fill-rule:evenodd;stroke:#000000;stroke-width:2.0px;stroke-linecap:butt;stroke-linejoin:miter;stroke-opacity:1"/>
<path d="M 512.8,131.7 L 513.4,131.9 L 513.9,131.5" style="fill:none;stroke:#000000;stroke-width:2.0px;stroke-linecap:butt;stroke-linejoin:miter;stroke-opacity:1;"/>
<path d="M 545.4,119.0 L 545.6,118.8 L 545.6,118.6" style="fill:none;stroke:#000000;stroke-width:2.0px;stroke-linecap:butt;stroke-linejoin:miter;stroke-opacity:1;"/>
<path d="M 549.8,84.2 L 550.4,84.4 L 550.9,84.0" style="fill:none;stroke:#000000;stroke-width:2.0px;stroke-linecap:butt;stroke-linejoin:miter;stroke-opacity:1;"/>
<path d="M 559.8,76.2 L 560.3,75.7 L 560.1,75.1" style="fill:none;stroke:#000000;stroke-width:2.0px;stroke-linecap:butt;stroke-linejoin:miter;stroke-opacity:1;"/>
<path d="M 535.9,66.8 L 535.4,67.3 L 535.5,67.9" style="fill:none;stroke:#000000;stroke-width:2.0px;stroke-linecap:butt;stroke-linejoin:miter;stroke-opacity:1;"/>
<path d="M 508.9,106.3 L 508.3,106.1 L 507.8,106.6" style="fill:none;stroke:#000000;stroke-width:2.0px;stroke-linecap:butt;stroke-linejoin:miter;stroke-opacity:1;"/>
<path d="M 483.5,97.9 L 483.4,97.7 L 482.8,97.5" style="fill:none;stroke:#000000;stroke-width:2.0px;stroke-linecap:butt;stroke-linejoin:miter;stroke-opacity:1;"/>
<path d="M 471.6,93.7 L 471.0,93.4 L 470.9,92.8" style="fill:none;stroke:#000000;stroke-width:2.0px;stroke-linecap:butt;stroke-linejoin:miter;stroke-opacity:1;"/>
<path d="M 468.6,81.2 L 468.4,80.6 L 468.2,80.5" style="fill:none;stroke:#000000;stroke-width:2.0px;stroke-linecap:butt;stroke-linejoin:miter;stroke-opacity:1;"/>
<path d="M 453.5,63.7 L 453.5,63.4 L 452.8,63.2" style="fill:none;stroke:#000000;stroke-width:2.0px;stroke-linecap:butt;stroke-linejoin:miter;stroke-opacity:1;"/>
<path d="M 441.6,59.4 L 441.0,59.2 L 440.5,59.6" style="fill:none;stroke:#000000;stroke-width:2.0px;stroke-linecap:butt;stroke-linejoin:miter;stroke-opacity:1;"/>
<path d="M 431.6,67.4 L 431.1,67.9 L 431.3,68.5" style="fill:none;stroke:#000000;stroke-width:2.0px;stroke-linecap:butt;stroke-linejoin:miter;stroke-opacity:1;"/>
<path d="M 433.6,80.1 L 433.7,80.7 L 434.3,81.0" style="fill:none;stroke:#000000;stroke-width:2.0px;stroke-linecap:butt;stroke-linejoin:miter;stroke-opacity:1;"/>
<path d="M 445.5,84.8 L 446.1,85.0 L 446.3,84.8" style="fill:none;stroke:#000000;stroke-width:2.0px;stroke-linecap:butt;stroke-linejoin:miter;stroke-opacity:1;"/>
<path class="atom-1" d="M 489.2 136.3 Q 489.2 135.3, 489.7 134.8 Q 490.2 134.2, 491.1 134.2 Q 492.0 134.2, 492.5 134.8 Q 493.1 135.3, 493.1 136.3 Q 493.1 137.4, 492.5 138.0 Q 492.0 138.5, 491.1 138.5 Q 490.2 138.5, 489.7 138.0 Q 489.2 137.4, 489.2 136.3 M 491.1 138.1 Q 491.8 138.1, 492.1 137.6 Q 492.5 137.2, 492.5 136.3 Q 492.5 135.5, 492.1 135.1 Q 491.8 134.7, 491.1 134.7 Q 490.5 134.7, 490.1 135.1 Q 489.8 135.5, 489.8 136.3 Q 489.8 137.2, 490.1 137.6 Q 490.5 138.1, 491.1 138.1 " fill="#FF0000"/>
<path class="atom-5" d="M 534.8 125.4 L 536.2 127.6 Q 536.3 127.8, 536.6 128.2 Q 536.8 128.6, 536.8 128.7 L 536.8 125.4 L 537.4 125.4 L 537.4 129.6 L 536.8 129.6 L 535.3 127.1 Q 535.1 126.9, 534.9 126.5 Q 534.7 126.2, 534.7 126.1 L 534.7 129.6 L 534.1 129.6 L 534.1 125.4 L 534.8 125.4 " fill="#0000FF"/>
<path class="atom-7" d="M 542.1 103.8 L 543.5 106.1 Q 543.7 106.3, 543.9 106.7 Q 544.1 107.1, 544.1 107.1 L 544.1 103.8 L 544.7 103.8 L 544.7 108.1 L 544.1 108.1 L 542.6 105.6 Q 542.4 105.3, 542.2 105.0 Q 542.1 104.7, 542.0 104.5 L 542.0 108.1 L 541.5 108.1 L 541.5 103.8 L 542.1 103.8 " fill="#0000FF"/>
<path class="atom-9" d="M 522.3 86.7 L 522.9 86.7 L 522.9 88.5 L 525.1 88.5 L 525.1 86.7 L 525.6 86.7 L 525.6 90.9 L 525.1 90.9 L 525.1 89.0 L 522.9 89.0 L 522.9 90.9 L 522.3 90.9 L 522.3 86.7 " fill="#0000FF"/>
<path class="atom-9" d="M 527.1 86.7 L 528.5 88.9 Q 528.7 89.2, 528.9 89.6 Q 529.1 90.0, 529.1 90.0 L 529.1 86.7 L 529.7 86.7 L 529.7 90.9 L 529.1 90.9 L 527.6 88.5 Q 527.4 88.2, 527.3 87.9 Q 527.1 87.5, 527.0 87.4 L 527.0 90.9 L 526.5 90.9 L 526.5 86.7 L 527.1 86.7 " fill="#0000FF"/>
<path class="atom-14" d="M 566.3 52.1 L 568.9 52.1 L 568.9 52.6 L 566.9 52.6 L 566.9 53.8 L 568.7 53.8 L 568.7 54.3 L 566.9 54.3 L 566.9 56.3 L 566.3 56.3 L 566.3 52.1 " fill="#33CCCC"/>
<path class="atom-16" d="M 541.1 45.9 Q 541.1 44.8, 541.6 44.3 Q 542.1 43.7, 543.0 43.7 Q 543.9 43.7, 544.4 44.3 L 544.0 44.7 Q 543.6 44.2, 543.0 44.2 Q 542.4 44.2, 542.0 44.6 Q 541.7 45.1, 541.7 45.9 Q 541.7 46.7, 542.1 47.2 Q 542.4 47.6, 543.1 47.6 Q 543.6 47.6, 544.1 47.3 L 544.3 47.8 Q 544.0 47.9, 543.7 48.0 Q 543.4 48.1, 543.0 48.1 Q 542.1 48.1, 541.6 47.5 Q 541.1 46.9, 541.1 45.9 " fill="#00CC00"/>
<path class="atom-16" d="M 544.8 43.5 L 545.4 43.5 L 545.4 48.0 L 544.8 48.0 L 544.8 43.5 " fill="#00CC00"/>
<path class="atom-21" d="M 484.0 110.6 Q 484.0 109.5, 484.5 109.0 Q 485.0 108.4, 486.0 108.4 Q 486.9 108.4, 487.4 109.0 Q 487.9 109.5, 487.9 110.6 Q 487.9 111.6, 487.4 112.2 Q 486.9 112.8, 486.0 112.8 Q 485.1 112.8, 484.5 112.2 Q 484.0 111.6, 484.0 110.6 M 486.0 112.3 Q 486.6 112.3, 487.0 111.9 Q 487.3 111.4, 487.3 110.6 Q 487.3 109.7, 487.0 109.3 Q 486.6 108.9, 486.0 108.9 Q 485.3 108.9, 485.0 109.3 Q 484.6 109.7, 484.6 110.6 Q 484.6 111.4, 485.0 111.9 Q 485.3 112.3, 486.0 112.3 " fill="#FF0000"/>
<path class="atom-25" d="M 455.1 74.2 L 456.5 76.4 Q 456.6 76.7, 456.8 77.1 Q 457.0 77.5, 457.1 77.5 L 457.1 74.2 L 457.6 74.2 L 457.6 78.4 L 457.0 78.4 L 455.5 76.0 Q 455.4 75.7, 455.2 75.4 Q 455.0 75.0, 454.9 74.9 L 454.9 78.4 L 454.4 78.4 L 454.4 74.2 L 455.1 74.2 " fill="#0000FF"/>
<path class="legend" d="M 468.4 184.2 Q 468.4 181.3, 469.7 179.9 Q 471.0 178.4, 473.5 178.4 Q 475.9 178.4, 477.1 180.0 L 476.0 180.9 Q 475.1 179.7, 473.5 179.7 Q 471.8 179.7, 470.9 180.8 Q 470.0 182.0, 470.0 184.2 Q 470.0 186.4, 470.9 187.6 Q 471.9 188.7, 473.7 188.7 Q 474.9 188.7, 476.4 188.0 L 476.8 189.2 Q 476.3 189.5, 475.4 189.8 Q 474.5 190.0, 473.5 190.0 Q 471.0 190.0, 469.7 188.5 Q 468.4 187.0, 468.4 184.2 " fill="#000000"/>
<path class="legend" d="M 478.3 177.7 L 479.7 177.7 L 479.7 189.8 L 478.3 189.8 L 478.3 177.7 " fill="#000000"/>
<path class="legend" d="M 488.7 181.6 L 488.7 189.8 L 487.4 189.8 L 487.2 188.7 Q 486.2 190.0, 484.5 190.0 Q 483.1 190.0, 482.4 189.2 Q 481.7 188.5, 481.7 187.1 L 481.7 181.6 L 483.2 181.6 L 483.2 186.9 Q 483.2 187.9, 483.5 188.4 Q 483.9 188.8, 484.7 188.8 Q 485.5 188.8, 486.1 188.5 Q 486.7 188.1, 487.1 187.5 L 487.1 181.6 L 488.7 181.6 " fill="#000000"/>
<path class="legend" d="M 491.0 188.1 Q 491.7 188.4, 492.2 188.6 Q 492.7 188.7, 493.3 188.7 Q 494.0 188.7, 494.4 188.4 Q 494.8 188.1, 494.8 187.5 Q 494.8 187.2, 494.6 186.9 Q 494.4 186.7, 494.1 186.6 Q 493.9 186.5, 493.1 186.2 Q 493.0 186.2, 492.3 186.0 Q 491.6 185.7, 491.2 185.2 Q 490.8 184.6, 490.8 183.8 Q 490.8 182.8, 491.5 182.1 Q 492.3 181.5, 493.8 181.5 Q 494.4 181.5, 495.0 181.6 Q 495.5 181.8, 496.1 182.0 L 495.7 183.2 Q 495.2 183.0, 494.7 182.8 Q 494.3 182.7, 493.8 182.7 Q 493.0 182.7, 492.7 183.0 Q 492.3 183.3, 492.3 183.8 Q 492.3 184.2, 492.6 184.5 Q 492.9 184.7, 493.6 184.9 Q 493.7 185.0, 493.9 185.0 L 494.3 185.2 Q 494.9 185.4, 495.3 185.6 Q 495.7 185.8, 496.0 186.3 Q 496.3 186.8, 496.3 187.5 Q 496.3 188.7, 495.5 189.3 Q 494.6 190.0, 493.3 190.0 Q 492.5 190.0, 491.8 189.8 Q 491.2 189.6, 490.5 189.4 L 491.0 188.1 " fill="#000000"/>
<path class="legend" d="M 497.7 182.8 L 497.7 181.6 L 499.3 181.6 L 499.5 179.2 L 500.7 179.2 L 500.7 181.6 L 503.2 181.6 L 503.2 182.8 L 500.7 182.8 L 500.7 187.3 Q 500.7 188.7, 501.9 188.7 Q 502.3 188.7, 503.0 188.5 L 503.3 189.6 Q 502.4 189.9, 501.6 189.9 Q 500.5 189.9, 499.8 189.3 Q 499.1 188.7, 499.1 187.4 L 499.1 182.8 L 497.7 182.8 " fill="#000000"/>
<path class="legend" d="M 504.2 185.7 Q 504.2 183.7, 505.2 182.6 Q 506.2 181.5, 508.1 181.5 Q 509.9 181.5, 510.7 182.6 Q 511.5 183.6, 511.5 185.7 L 511.5 185.9 L 505.8 185.9 Q 505.8 187.3, 506.4 188.0 Q 507.0 188.8, 508.2 188.8 Q 508.9 188.8, 509.4 188.6 Q 510.0 188.5, 510.8 188.2 L 511.2 189.2 Q 510.4 189.6, 509.6 189.8 Q 508.9 190.0, 508.1 190.0 Q 506.3 190.0, 505.3 188.8 Q 504.2 187.7, 504.2 185.7 M 508.1 182.7 Q 507.1 182.7, 506.6 183.2 Q 506.0 183.7, 505.8 184.8 L 509.9 184.8 Q 509.8 183.7, 509.4 183.2 Q 508.9 182.7, 508.1 182.7 " fill="#000000"/>
<path class="legend" d="M 513.9 181.6 L 514.0 182.8 Q 514.9 181.5, 516.3 181.5 Q 516.8 181.5, 517.4 181.6 L 517.1 183.0 Q 516.4 182.8, 516.1 182.8 Q 515.4 182.8, 514.9 183.1 Q 514.5 183.3, 514.2 184.0 L 514.2 189.8 L 512.7 189.8 L 512.7 181.6 L 513.9 181.6 " fill="#000000"/>
<path class="legend" d="" fill="#000000"/>
<path class="legend" d="M 529.5 183.9 Q 530.6 184.2, 531.1 184.9 Q 531.6 185.6, 531.6 186.7 Q 531.6 187.7, 531.2 188.4 Q 530.7 189.2, 529.8 189.6 Q 528.9 190.0, 527.8 190.0 Q 526.5 190.0, 525.6 189.6 Q 524.7 189.2, 524.0 188.3 L 524.9 187.4 Q 525.6 188.1, 526.2 188.4 Q 526.8 188.7, 527.8 188.7 Q 528.8 188.7, 529.4 188.2 Q 530.0 187.6, 530.0 186.7 Q 530.0 185.6, 529.4 185.1 Q 528.7 184.5, 527.3 184.5 L 526.5 184.5 L 526.5 183.4 L 527.2 183.4 Q 528.5 183.4, 529.1 182.8 Q 529.8 182.3, 529.8 181.3 Q 529.8 180.5, 529.2 180.1 Q 528.7 179.7, 527.8 179.7 Q 526.8 179.7, 526.2 180.0 Q 525.7 180.3, 525.2 181.2 L 524.1 180.6 Q 524.5 179.6, 525.5 179.0 Q 526.4 178.4, 527.8 178.4 Q 529.4 178.4, 530.4 179.2 Q 531.4 180.0, 531.4 181.3 Q 531.4 182.2, 530.9 182.8 Q 530.4 183.5, 529.5 183.9 " fill="#000000"/>
</svg>