<svg xmlns="http://www.w3.org/2000/svg" xmlns:rdkit="http://www.rdkit.org/xml" xmlns:xlink="http://www.w3.org/1999/xlink" version="1.1" baseProfile="full" xml:space="preserve" width="600px" height="200px" viewBox="0 0 600 200">
<!-- END OF HEADER -->
<rect style="opacity:1.0;fill:#FFFFFF;stroke:none" width="600.0" height="200.0" x="0.0" y="0.0"> </rect>
<path class="bond-0 atom-0 atom-1" d="M 10.4,77.7 L 70.1,43.2" style="fill:none;fill-rule:evenodd;stroke:#000000;stroke-width:2.0px;stroke-linecap:butt;stroke-linejoin:miter;stroke-opacity:1"/>
<path class="bond-1 atom-1 atom-2" d="M 70.1,43.2 L 129.9,77.7" style="fill:none;fill-rule:evenodd;stroke:#000000;stroke-width:2.0px;stroke-linecap:butt;stroke-linejoin:miter;stroke-opacity:1"/>
<path class="bond-2 atom-2 atom-3" d="M 129.9,77.7 L 189.6,43.2" style="fill:none;fill-rule:evenodd;stroke:#000000;stroke-width:2.0px;stroke-linecap:butt;stroke-linejoin:miter;stroke-opacity:1"/>
<path class="bond-3 atom-2 atom-4" d="M 129.9,77.7 L 129.9,106.1" style="fill:none;fill-rule:evenodd;stroke:#000000;stroke-width:2.0px;stroke-linecap:butt;stroke-linejoin:miter;stroke-opacity:1"/>
<path class="bond-3 atom-2 atom-4" d="M 129.9,106.1 L 129.9,134.5" style="fill:none;fill-rule:evenodd;stroke:#FF0000;stroke-width:2.0px;stroke-linecap:butt;stroke-linejoin:miter;stroke-opacity:1"/>
<path d="M 67.1,44.9 L 70.1,43.2 L 73.1,44.9" style="fill:none;stroke:#000000;stroke-width:2.0px;stroke-linecap:butt;stroke-linejoin:miter;stroke-opacity:1;"/>
<path class="atom-4" d="M 120.9 146.7 Q 120.9 142.0, 123.2 139.4 Q 125.5 136.8, 129.9 136.8 Q 134.2 136.8, 136.5 139.4 Q 138.8 142.0, 138.8 146.7 Q 138.8 151.4, 136.5 154.2 Q 134.1 156.8, 129.9 156.8 Q 125.6 156.8, 123.2 154.2 Q 120.9 151.5, 120.9 146.7 M 129.9 154.6 Q 132.9 154.6, 134.5 152.6 Q 136.1 150.6, 136.1 146.7 Q 136.1 142.9, 134.5 140.9 Q 132.9 139.0, 129.9 139.0 Q 126.9 139.0, 125.3 140.9 Q 123.7 142.8, 123.7 146.7 Q 123.7 150.6, 125.3 152.6 Q 126.9 154.6, 129.9 154.6 " fill="#FF0000"/>
<path class="atom-4" d="M 141.9 137.0 L 144.5 137.0 L 144.5 145.3 L 154.5 145.3 L 154.5 137.0 L 157.2 137.0 L 157.2 156.5 L 154.5 156.5 L 154.5 147.5 L 144.5 147.5 L 144.5 156.5 L 141.9 156.5 L 141.9 137.0 " fill="#FF0000"/>
<path class="bond-0 atom-0 atom-1" d="M 209.1,79.9 L 268.8,45.4" style="fill:none;fill-rule:evenodd;stroke:#000000;stroke-width:2.0px;stroke-linecap:butt;stroke-linejoin:miter;stroke-opacity:1"/>
<path class="bond-1 atom-1 atom-2" d="M 268.8,45.4 L 328.6,79.9" style="fill:none;fill-rule:evenodd;stroke:#000000;stroke-width:2.0px;stroke-linecap:butt;stroke-linejoin:miter;stroke-opacity:1"/>
<path class="bond-2 atom-2 atom-3" d="M 331.4,78.0 L 331.7,78.4" style="fill:none;fill-rule:evenodd;stroke:#000000;stroke-width:1.0px;stroke-linecap:butt;stroke-linejoin:miter;stroke-opacity:1"/>
<path class="bond-2 atom-2 atom-3" d="M 334.3,76.0 L 334.8,76.9" style="fill:none;fill-rule:evenodd;stroke:#000000;stroke-width:1.0px;stroke-linecap:butt;stroke-linejoin:miter;stroke-opacity:1"/>
<path class="bond-2 atom-2 atom-3" d="M 337.2,74.1 L 337.9,75.4" style="fill:none;fill-rule:evenodd;stroke:#000000;stroke-width:1.0px;stroke-linecap:butt;stroke-linejoin:miter;stroke-opacity:1"/>
<path class="bond-2 atom-2 atom-3" d="M 340.0,72.1 L 341.0,73.9" style="fill:none;fill-rule:evenodd;stroke:#000000;stroke-width:1.0px;stroke-linecap:butt;stroke-linejoin:miter;stroke-opacity:1"/>
<path class="bond-2 atom-2 atom-3" d="M 342.9,70.2 L 344.2,72.4" style="fill:none;fill-rule:evenodd;stroke:#000000;stroke-width:1.0px;stroke-linecap:butt;stroke-linejoin:miter;stroke-opacity:1"/>
<path class="bond-2 atom-2 atom-3" d="M 345.7,68.2 L 347.3,70.9" style="fill:none;fill-rule:evenodd;stroke:#000000;stroke-width:1.0px;stroke-linecap:butt;stroke-linejoin:miter;stroke-opacity:1"/>
<path class="bond-2 atom-2 atom-3" d="M 348.6,66.3 L 350.4,69.4" style="fill:none;fill-rule:evenodd;stroke:#000000;stroke-width:1.0px;stroke-linecap:butt;stroke-linejoin:miter;stroke-opacity:1"/>
<path class="bond-2 atom-2 atom-3" d="M 351.4,64.3 L 353.5,67.9" style="fill:none;fill-rule:evenodd;stroke:#000000;stroke-width:1.0px;stroke-linecap:butt;stroke-linejoin:miter;stroke-opacity:1"/>
<path class="bond-2 atom-2 atom-3" d="M 354.3,62.4 L 356.6,66.4" style="fill:none;fill-rule:evenodd;stroke:#000000;stroke-width:1.0px;stroke-linecap:butt;stroke-linejoin:miter;stroke-opacity:1"/>
<path class="bond-2 atom-2 atom-3" d="M 357.2,60.4 L 359.7,64.9" style="fill:none;fill-rule:evenodd;stroke:#000000;stroke-width:1.0px;stroke-linecap:butt;stroke-linejoin:miter;stroke-opacity:1"/>
<path class="bond-2 atom-2 atom-3" d="M 360.0,58.5 L 362.9,63.4" style="fill:none;fill-rule:evenodd;stroke:#000000;stroke-width:1.0px;stroke-linecap:butt;stroke-linejoin:miter;stroke-opacity:1"/>
<path class="bond-2 atom-2 atom-3" d="M 362.9,56.5 L 366.0,61.9" style="fill:none;fill-rule:evenodd;stroke:#000000;stroke-width:1.0px;stroke-linecap:butt;stroke-linejoin:miter;stroke-opacity:1"/>
<path class="bond-2 atom-2 atom-3" d="M 365.7,54.6 L 369.1,60.4" style="fill:none;fill-rule:evenodd;stroke:#000000;stroke-width:1.0px;stroke-linecap:butt;stroke-linejoin:miter;stroke-opacity:1"/>
<path class="bond-2 atom-2 atom-3" d="M 368.6,52.6 L 372.2,58.9" style="fill:none;fill-rule:evenodd;stroke:#000000;stroke-width:1.0px;stroke-linecap:butt;stroke-linejoin:miter;stroke-opacity:1"/>
<path class="bond-2 atom-2 atom-3" d="M 371.4,50.7 L 375.3,57.4" style="fill:none;fill-rule:evenodd;stroke:#000000;stroke-width:1.0px;stroke-linecap:butt;stroke-linejoin:miter;stroke-opacity:1"/>
<path class="bond-2 atom-2 atom-3" d="M 374.3,48.7 L 378.4,55.9" style="fill:none;fill-rule:evenodd;stroke:#000000;stroke-width:1.0px;stroke-linecap:butt;stroke-linejoin:miter;stroke-opacity:1"/>
<path class="bond-2 atom-2 atom-3" d="M 377.2,46.8 L 381.6,54.4" style="fill:none;fill-rule:evenodd;stroke:#000000;stroke-width:1.0px;stroke-linecap:butt;stroke-linejoin:miter;stroke-opacity:1"/>
<path class="bond-2 atom-2 atom-3" d="M 380.0,44.8 L 384.7,52.9" style="fill:none;fill-rule:evenodd;stroke:#000000;stroke-width:1.0px;stroke-linecap:butt;stroke-linejoin:miter;stroke-opacity:1"/>
<path class="bond-2 atom-2 atom-3" d="M 382.9,42.9 L 387.8,51.4" style="fill:none;fill-rule:evenodd;stroke:#000000;stroke-width:1.0px;stroke-linecap:butt;stroke-linejoin:miter;stroke-opacity:1"/>
<path class="bond-2 atom-2 atom-3" d="M 385.7,40.9 L 390.9,49.9" style="fill:none;fill-rule:evenodd;stroke:#000000;stroke-width:1.0px;stroke-linecap:butt;stroke-linejoin:miter;stroke-opacity:1"/>
<path class="bond-3 atom-2 atom-4" d="M 328.6,79.9 L 328.6,108.3" style="fill:none;fill-rule:evenodd;stroke:#000000;stroke-width:2.0px;stroke-linecap:butt;stroke-linejoin:miter;stroke-opacity:1"/>
<path class="bond-3 atom-2 atom-4" d="M 328.6,108.3 L 328.6,136.7" style="fill:none;fill-rule:evenodd;stroke:#FF0000;stroke-width:2.0px;stroke-linecap:butt;stroke-linejoin:miter;stroke-opacity:1"/>
<path d="M 265.8,47.1 L 268.8,45.4 L 271.8,47.1" style="fill:none;stroke:#000000;stroke-width:2.0px;stroke-linecap:butt;stroke-linejoin:miter;stroke-opacity:1;"/>
<path d="M 325.6,78.2 L 328.6,79.9 L 328.6,81.3" style="fill:none;stroke:#000000;stroke-width:2.0px;stroke-linecap:butt;stroke-linejoin:miter;stroke-opacity:1;"/>
<path class="atom-4" d="M 319.6 148.9 Q 319.6 144.3, 321.9 141.6 Q 324.2 139.0, 328.6 139.0 Q 332.9 139.0, 335.2 141.6 Q 337.5 144.3, 337.5 148.9 Q 337.5 153.7, 335.2 156.4 Q 332.9 159.1, 328.6 159.1 Q 324.3 159.1, 321.9 156.4 Q 319.6 153.7, 319.6 148.9 M 328.6 156.9 Q 331.6 156.9, 333.2 154.9 Q 334.8 152.9, 334.8 148.9 Q 334.8 145.1, 333.2 143.2 Q 331.6 141.2, 328.6 141.2 Q 325.6 141.2, 324.0 143.1 Q 322.4 145.1, 322.4 148.9 Q 322.4 152.9, 324.0 154.9 Q 325.6 156.9, 328.6 156.9 " fill="#FF0000"/>
<path class="atom-4" d="M 340.6 139.2 L 343.2 139.2 L 343.2 147.5 L 353.2 147.5 L 353.2 139.2 L 355.9 139.2 L 355.9 158.8 L 353.2 158.8 L 353.2 149.7 L 343.2 149.7 L 343.2 158.8 L 340.6 158.8 L 340.6 139.2 " fill="#FF0000"/>
<path class="bond-0 atom-0 atom-1" d="M 409.1,79.9 L 468.8,45.4" style="fill:none;fill-rule:evenodd;stroke:#000000;stroke-width:2.0px;stroke-linecap:butt;stroke-linejoin:miter;stroke-opacity:1"/>
<path class="bond-1 atom-1 atom-2" d="M 468.8,45.4 L 528.6,79.9" style="fill:none;fill-rule:evenodd;stroke:#000000;stroke-width:2.0px;stroke-linecap:butt;stroke-linejoin:miter;stroke-opacity:1"/>
<path class="bond-2 atom-2 atom-3" d="M 528.6,79.9 L 585.7,40.9 L 590.9,49.9 Z" style="fill:#000000;fill-rule:evenodd;fill-opacity:1;stroke:#000000;stroke-width:0.5px;stroke-linecap:butt;stroke-linejoin:miter;stroke-opacity:1;"/>
<path class="bond-3 atom-2 atom-4" d="M 528.6,79.9 L 528.6,108.3" style="fill:none;fill-rule:evenodd;stroke:#000000;stroke-width:2.0px;stroke-linecap:butt;stroke-linejoin:miter;stroke-opacity:1"/>
<path class="bond-3 atom-2 atom-4" d="M 528.6,108.3 L 528.6,136.7" style="fill:none;fill-rule:evenodd;stroke:#FF0000;stroke-width:2.0px;stroke-linecap:butt;stroke-linejoin:miter;stroke-opacity:1"/>
<path d="M 465.8,47.1 L 468.8,45.4 L 471.8,47.1" style="fill:none;stroke:#000000;stroke-width:2.0px;stroke-linecap:butt;stroke-linejoin:miter;stroke-opacity:1;"/>
<path d="M 525.6,78.2 L 528.6,79.9 L 528.6,81.3" style="fill:none;stroke:#000000;stroke-width:2.0px;stroke-linecap:butt;stroke-linejoin:miter;stroke-opacity:1;"/>
<path class="atom-4" d="M 519.6 148.9 Q 519.6 144.3, 521.9 141.6 Q 524.2 139.0, 528.6 139.0 Q 532.9 139.0, 535.2 141.6 Q 537.5 144.3, 537.5 148.9 Q 537.5 153.7, 535.2 156.4 Q 532.9 159.1, 528.6 159.1 Q 524.3 159.1, 521.9 156.4 Q 519.6 153.7, 519.6 148.9 M 528.6 156.9 Q 531.6 156.9, 533.2 154.9 Q 534.8 152.9, 534.8 148.9 Q 534.8 145.1, 533.2 143.2 Q 531.6 141.2, 528.6 141.2 Q 525.6 141.2, 524.0 143.1 Q 522.4 145.1, 522.4 148.9 Q 522.4 152.9, 524.0 154.9 Q 525.6 156.9, 528.6 156.9 " fill="#FF0000"/>
<path class="atom-4" d="M 540.6 139.2 L 543.2 139.2 L 543.2 147.5 L 553.2 147.5 L 553.2 139.2 L 555.9 139.2 L 555.9 158.8 L 553.2 158.8 L 553.2 149.7 L 543.2 149.7 L 543.2 158.8 L 540.6 158.8 L 540.6 139.2 " fill="#FF0000"/>
</svg>